LV UpItalic-Light.ufo
<glyph name="exclam" format="1">
  <advance width="195"/>
  <unicode hex="0021"/>
  <outline>
    <contour>
      <point x="60" y="740" type="line"/>
      <point x="71" y="176" type="line"/>
      <point x="123" y="176" type="line"/>
      <point x="148" y="740" type="line"/>
    </contour>
    <contour>
      <point x="97" y="-8" type="curve"/>
      <point x="129" y="-8"/>
      <point x="152" y="15"/>
      <point x="152" y="45" type="curve"/>
      <point x="152" y="76"/>
      <point x="129" y="99"/>
      <point x="97" y="99" type="curve"/>
      <point x="66" y="99"/>
      <point x="43" y="76"/>
      <point x="43" y="45" type="curve"/>
      <point x="43" y="14"/>
      <point x="66" y="-8"/>
    </contour>
  </outline>
</glyph>
<glyph name="numbersign" format="1">
  <advance width="600"/>
  <unicode hex="0023"/>
  <outline>
    <contour>
      <point x="449" y="710" type="line"/>
      <point x="299" y="0" type="line"/>
      <point x="369" y="0" type="line"/>
      <point x="519" y="710" type="line"/>
    </contour>
    <contour>
      <point x="34" y="269" type="line"/>
      <point x="20" y="203" type="line"/>
      <point x="516" y="203" type="line"/>
      <point x="530" y="269" type="line"/>
    </contour>
    <contour>
      <point x="231" y="710" type="line"/>
      <point x="81" y="0" type="line"/>
      <point x="151" y="0" type="line"/>
      <point x="301" y="710" type="line"/>
    </contour>
    <contour>
      <point x="84" y="506" type="line"/>
      <point x="70" y="440" type="line"/>
      <point x="566" y="440" type="line"/>
      <point x="580" y="506" type="line"/>
    </contour>
  </outline>
</glyph>
<glyph name="dollar" format="1">
  <advance width="600"/>
  <unicode hex="0024"/>
  <outline>
    <contour>
      <point x="310" y="-8" type="curve"/>
      <point x="443" y="-8"/>
      <point x="542" y="72"/>
      <point x="542" y="188" type="curve"/>
      <point x="542" y="455"/>
      <point x="171" y="309"/>
      <point x="171" y="517" type="curve"/>
      <point x="171" y="596"/>
      <point x="229" y="648"/>
      <point x="307" y="648" type="curve"/>
      <point x="384" y="648"/>
      <point x="431" y="608"/>
      <point x="449" y="518" type="curve"/>
      <point x="521" y="530" type="line"/>
      <point x="506" y="649"/>
      <point x="424" y="720"/>
      <point x="309" y="720" type="curve"/>
      <point x="186" y="720"/>
      <point x="89" y="633"/>
      <point x="89" y="514" type="curve"/>
      <point x="89" y="234"/>
      <point x="460" y="377"/>
      <point x="460" y="187" type="curve"/>
      <point x="460" y="111"/>
      <point x="402" y="64"/>
      <point x="316" y="64" type="curve"/>
      <point x="211" y="64"/>
      <point x="155" y="111"/>
      <point x="136" y="221" type="curve"/>
      <point x="59" y="210" type="line"/>
      <point x="75" y="66"/>
      <point x="164" y="-8"/>
    </contour>
    <contour>
      <point x="329" y="-120" type="line"/>
      <point x="329" y="30" type="line"/>
      <point x="271" y="30" type="line"/>
      <point x="271" y="-120" type="line"/>
    </contour>
    <contour>
      <point x="329" y="680" type="line"/>
      <point x="329" y="830" type="line"/>
      <point x="271" y="830" type="line"/>
      <point x="271" y="680" type="line"/>
    </contour>
  </outline>
</glyph>
<glyph name="percent" format="1">
  <advance width="738"/>
  <unicode hex="0025"/>
  <outline>
    <contour>
      <point x="553" y="710" type="line"/>
      <point x="114" y="0" type="line"/>
      <point x="185" y="0" type="line"/>
      <point x="624" y="710" type="line"/>
    </contour>
    <contour>
      <point x="203" y="418" type="curve"/>
      <point x="296" y="418"/>
      <point x="366" y="487"/>
      <point x="366" y="578" type="curve"/>
      <point x="366" y="663"/>
      <point x="306" y="719"/>
      <point x="215" y="719" type="curve"/>
      <point x="118" y="719"/>
      <point x="50" y="653"/>
      <point x="50" y="560" type="curve"/>
      <point x="50" y="475"/>
      <point x="111" y="418"/>
    </contour>
    <contour>
      <point x="205" y="471" type="curve"/>
      <point x="147" y="471"/>
      <point x="110" y="506"/>
      <point x="110" y="560" type="curve"/>
      <point x="110" y="622"/>
      <point x="153" y="667"/>
      <point x="214" y="667" type="curve"/>
      <point x="270" y="667"/>
      <point x="306" y="631"/>
      <point x="306" y="576" type="curve"/>
      <point x="306" y="515"/>
      <point x="264" y="471"/>
    </contour>
    <contour>
      <point x="525" y="-7" type="curve"/>
      <point x="618" y="-7"/>
      <point x="688" y="62"/>
      <point x="688" y="153" type="curve"/>
      <point x="688" y="238"/>
      <point x="628" y="294"/>
      <point x="537" y="294" type="curve"/>
      <point x="440" y="294"/>
      <point x="372" y="228"/>
      <point x="372" y="135" type="curve"/>
      <point x="372" y="50"/>
      <point x="433" y="-7"/>
    </contour>
    <contour>
      <point x="527" y="46" type="curve"/>
      <point x="469" y="46"/>
      <point x="432" y="81"/>
      <point x="432" y="135" type="curve"/>
      <point x="432" y="197"/>
      <point x="475" y="242"/>
      <point x="536" y="242" type="curve"/>
      <point x="592" y="242"/>
      <point x="628" y="206"/>
      <point x="628" y="151" type="curve"/>
      <point x="628" y="90"/>
      <point x="586" y="46"/>
    </contour>
  </outline>
</glyph>
<glyph name="ampersand" format="1">
  <advance width="772"/>
  <unicode hex="0026"/>
  <outline>
    <contour>
      <point x="301" y="-8" type="curve"/>
      <point x="490" y="-8"/>
      <point x="632" y="130"/>
      <point x="639" y="366" type="curve"/>
      <point x="573" y="366" type="line"/>
      <point x="566" y="165"/>
      <point x="459" y="58"/>
      <point x="312" y="58" type="curve"/>
      <point x="207" y="58"/>
      <point x="137" y="114"/>
      <point x="137" y="205" type="curve"/>
      <point x="137" y="413"/>
      <point x="437" y="368"/>
      <point x="437" y="585" type="curve"/>
      <point x="437" y="669"/>
      <point x="375" y="724"/>
      <point x="280" y="724" type="curve"/>
      <point x="181" y="724"/>
      <point x="111" y="659"/>
      <point x="111" y="568" type="curve"/>
      <point x="111" y="512"/>
      <point x="131" y="469"/>
      <point x="184" y="411" type="curve"/>
      <point x="494" y="77" type="line" smooth="yes"/>
      <point x="549" y="18"/>
      <point x="597" y="-6"/>
      <point x="659" y="-6" type="curve"/>
      <point x="696" y="-6"/>
      <point x="725" y="3"/>
      <point x="752" y="23" type="curve"/>
      <point x="730" y="79" type="line"/>
      <point x="709" y="66"/>
      <point x="689" y="60"/>
      <point x="669" y="60" type="curve"/>
      <point x="623" y="61"/>
      <point x="592" y="78"/>
      <point x="545" y="128" type="curve"/>
      <point x="252" y="444" type="line" smooth="yes"/>
      <point x="202" y="500"/>
      <point x="186" y="529"/>
      <point x="186" y="570" type="curve"/>
      <point x="186" y="626"/>
      <point x="224" y="664"/>
      <point x="281" y="664" type="curve"/>
      <point x="336" y="664"/>
      <point x="369" y="634"/>
      <point x="369" y="580" type="curve"/>
      <point x="369" y="420"/>
      <point x="57" y="437"/>
      <point x="57" y="197" type="curve"/>
      <point x="57" y="73"/>
      <point x="157" y="-8"/>
    </contour>
    <contour>
      <point x="464" y="410" type="line"/>
      <point x="464" y="345" type="line"/>
      <point x="740" y="345" type="line"/>
      <point x="740" y="410" type="line"/>
    </contour>
  </outline>
</glyph>
<glyph name="quotesingle" format="1">
  <advance width="221"/>
  <unicode hex="0027"/>
  <outline>
    <contour>
      <point x="69" y="710" type="line"/>
      <point x="84" y="463" type="line"/>
      <point x="137" y="463" type="line"/>
      <point x="152" y="710" type="line"/>
    </contour>
  </outline>
</glyph>
<glyph name="parenleft" format="1">
  <advance width="296"/>
  <unicode hex="0028"/>
  <outline>
    <contour>
      <point x="282" y="-210" type="curve"/>
      <point x="317" y="-170" type="line"/>
      <point x="213" y="-78"/>
      <point x="151" y="84"/>
      <point x="151" y="269" type="curve"/>
      <point x="151" y="454"/>
      <point x="213" y="616"/>
      <point x="317" y="708" type="curve"/>
      <point x="282" y="748" type="line"/>
      <point x="135" y="626"/>
      <point x="68" y="461"/>
      <point x="68" y="269" type="curve"/>
      <point x="68" y="78"/>
      <point x="135" y="-85"/>
    </contour>
  </outline>
</glyph>
<glyph name="parenright" format="1">
  <advance width="296"/>
  <unicode hex="0029"/>
  <outline>
    <contour>
      <point x="-21" y="-170" type="curve"/>
      <point x="14" y="-210" type="line"/>
      <point x="161" y="-85"/>
      <point x="228" y="78"/>
      <point x="228" y="269" type="curve"/>
      <point x="228" y="461"/>
      <point x="161" y="626"/>
      <point x="14" y="748" type="curve"/>
      <point x="-21" y="708" type="line"/>
      <point x="83" y="616"/>
      <point x="145" y="454"/>
      <point x="145" y="269" type="curve"/>
      <point x="145" y="84"/>
      <point x="83" y="-78"/>
    </contour>
  </outline>
</glyph>
<glyph name="asterisk" format="1">
  <advance width="468"/>
  <unicode hex="002A"/>
  <outline>
    <contour>
      <point x="384" y="509" type="curve"/>
      <point x="357" y="524"/>
      <point x="326" y="529"/>
      <point x="269" y="553" type="curve"/>
      <point x="326" y="577"/>
      <point x="357" y="583"/>
      <point x="384" y="598" type="curve"/>
      <point x="407" y="612"/>
      <point x="414" y="631"/>
      <point x="403" y="651" type="curve"/>
      <point x="392" y="670"/>
      <point x="371" y="674"/>
      <point x="348" y="661" type="curve"/>
      <point x="321" y="645"/>
      <point x="301" y="620"/>
      <point x="252" y="584" type="curve"/>
      <point x="258" y="645"/>
      <point x="270" y="674"/>
      <point x="270" y="705" type="curve"/>
      <point x="270" y="731"/>
      <point x="256" y="748"/>
      <point x="234" y="748" type="curve"/>
      <point x="212" y="748"/>
      <point x="198" y="731"/>
      <point x="198" y="705" type="curve"/>
      <point x="198" y="674"/>
      <point x="210" y="645"/>
      <point x="216" y="584" type="curve"/>
      <point x="167" y="620"/>
      <point x="147" y="645"/>
      <point x="120" y="661" type="curve"/>
      <point x="97" y="674"/>
      <point x="76" y="670"/>
      <point x="65" y="651" type="curve"/>
      <point x="54" y="631"/>
      <point x="61" y="612"/>
      <point x="84" y="598" type="curve"/>
      <point x="111" y="583"/>
      <point x="142" y="577"/>
      <point x="199" y="553" type="curve"/>
      <point x="142" y="529"/>
      <point x="111" y="524"/>
      <point x="84" y="509" type="curve"/>
      <point x="61" y="495"/>
      <point x="54" y="475"/>
      <point x="65" y="456" type="curve"/>
      <point x="76" y="436"/>
      <point x="97" y="433"/>
      <point x="120" y="446" type="curve"/>
      <point x="147" y="461"/>
      <point x="167" y="486"/>
      <point x="216" y="523" type="curve"/>
      <point x="210" y="461"/>
      <point x="198" y="433"/>
      <point x="198" y="401" type="curve"/>
      <point x="198" y="375"/>
      <point x="212" y="358"/>
      <point x="234" y="358" type="curve"/>
      <point x="256" y="358"/>
      <point x="270" y="375"/>
      <point x="270" y="401" type="curve"/>
      <point x="270" y="433"/>
      <point x="258" y="461"/>
      <point x="252" y="523" type="curve"/>
      <point x="301" y="486"/>
      <point x="321" y="461"/>
      <point x="348" y="446" type="curve"/>
      <point x="371" y="433"/>
      <point x="392" y="436"/>
      <point x="403" y="456" type="curve"/>
      <point x="414" y="475"/>
      <point x="407" y="495"/>
    </contour>
  </outline>
</glyph>
<glyph name="plus" format="1">
  <advance width="600"/>
  <unicode hex="002B"/>
  <outline>
    <contour>
      <point x="545" y="213" type="line"/>
      <point x="545" y="285" type="line"/>
      <point x="55" y="285" type="line"/>
      <point x="55" y="213" type="line"/>
    </contour>
    <contour>
      <point x="337" y="498" type="line"/>
      <point x="263" y="498" type="line"/>
      <point x="263" y="0" type="line"/>
      <point x="337" y="0" type="line"/>
    </contour>
  </outline>
</glyph>
<glyph name="comma" format="1">
  <advance width="184"/>
  <unicode hex="002C"/>
  <note>
    period
  </note>
  <outline>
    <contour>
      <point x="38" y="-118" type="curve"/>
      <point x="79" y="-118" type="line"/>
      <point x="118" y="-72"/>
      <point x="147" y="-3"/>
      <point x="147" y="44" type="curve"/>
      <point x="147" y="83"/>
      <point x="128" y="106"/>
      <point x="93" y="106" type="curve"/>
      <point x="62" y="106"/>
      <point x="39" y="85"/>
      <point x="39" y="54" type="curve"/>
      <point x="39" y="22"/>
      <point x="57" y="2"/>
      <point x="57" y="-37" type="curve"/>
      <point x="57" y="-60"/>
      <point x="50" y="-88"/>
    </contour>
  </outline>
</glyph>
<glyph name="period" format="1">
  <advance width="184"/>
  <unicode hex="002E"/>
  <note>
    period
  </note>
  <outline>
    <contour>
      <point x="92" y="-8" type="curve"/>
      <point x="127" y="-8"/>
      <point x="149" y="17"/>
      <point x="149" y="49" type="curve"/>
      <point x="149" y="81"/>
      <point x="127" y="106"/>
      <point x="92" y="106" type="curve"/>
      <point x="58" y="106"/>
      <point x="35" y="81"/>
      <point x="35" y="49" type="curve"/>
      <point x="35" y="17"/>
      <point x="58" y="-8"/>
    </contour>
  </outline>
</glyph>
<glyph name="zero" format="1">
  <advance width="600"/>
  <unicode hex="0030"/>
  <outline>
    <contour>
      <point x="297" y="-8" type="curve"/>
      <point x="445" y="-8"/>
      <point x="547" y="134"/>
      <point x="547" y="369" type="curve"/>
      <point x="547" y="593"/>
      <point x="457" y="720"/>
      <point x="311" y="720" type="curve"/>
      <point x="156" y="720"/>
      <point x="53" y="569"/>
      <point x="53" y="342" type="curve"/>
      <point x="53" y="107"/>
      <point x="142" y="-8"/>
    </contour>
    <contour>
      <point x="297" y="65" type="curve"/>
      <point x="193" y="65"/>
      <point x="133" y="154"/>
      <point x="133" y="342" type="curve"/>
      <point x="133" y="536"/>
      <point x="204" y="648"/>
      <point x="311" y="648" type="curve"/>
      <point x="409" y="648"/>
      <point x="468" y="550"/>
      <point x="468" y="371" type="curve"/>
      <point x="468" y="167"/>
      <point x="400" y="65"/>
    </contour>
  </outline>
</glyph>
<glyph name="one" format="1">
  <advance width="600"/>
  <unicode hex="0031"/>
  <outline>
    <contour>
      <point x="283" y="635" type="line"/>
      <point x="283" y="37" type="line"/>
      <point x="363" y="37" type="line"/>
      <point x="363" y="710" type="line"/>
      <point x="318" y="710" type="line"/>
      <point x="102" y="563" type="line"/>
      <point x="140" y="507" type="line"/>
      <point x="331" y="635" type="line"/>
    </contour>
    <contour>
      <point x="124" y="66" type="line"/>
      <point x="124" y="0" type="line"/>
      <point x="517" y="0" type="line"/>
      <point x="517" y="66" type="line"/>
    </contour>
  </outline>
</glyph>
<glyph name="two" format="1">
  <advance width="600"/>
  <unicode hex="0032"/>
  <outline>
    <contour>
      <point x="96" y="54" type="curve"/>
      <point x="96" y="0" type="line"/>
      <point x="530" y="0" type="line"/>
      <point x="530" y="66" type="line"/>
      <point x="156" y="66" type="line"/>
      <point x="171" y="41" type="line"/>
      <point x="419" y="235"/>
      <point x="512" y="380"/>
      <point x="511" y="522" type="curve"/>
      <point x="510" y="649"/>
      <point x="422" y="720"/>
      <point x="304" y="720" type="curve"/>
      <point x="184" y="720"/>
      <point x="101" y="646"/>
      <point x="70" y="542" type="curve"/>
      <point x="132" y="512" type="line"/>
      <point x="161" y="602"/>
      <point x="215" y="647"/>
      <point x="300" y="647" type="curve"/>
      <point x="379" y="647"/>
      <point x="430" y="597"/>
      <point x="430" y="516" type="curve"/>
      <point x="430" y="405"/>
      <point x="360" y="270"/>
    </contour>
  </outline>
</glyph>
<glyph name="three" format="1">
  <advance width="600"/>
  <unicode hex="0033"/>
  <outline>
    <contour>
      <point x="270" y="-8" type="curve"/>
      <point x="429" y="-8"/>
      <point x="525" y="70"/>
      <point x="525" y="196" type="curve"/>
      <point x="525" y="291"/>
      <point x="469" y="351"/>
      <point x="373" y="371" type="curve"/>
      <point x="372" y="360" type="line"/>
      <point x="459" y="382"/>
      <point x="512" y="450"/>
      <point x="512" y="537" type="curve"/>
      <point x="512" y="639"/>
      <point x="435" y="720"/>
      <point x="304" y="720" type="curve"/>
      <point x="184" y="720"/>
      <point x="101" y="646"/>
      <point x="70" y="542" type="curve"/>
      <point x="132" y="512" type="line"/>
      <point x="161" y="602"/>
      <point x="215" y="647"/>
      <point x="301" y="647" type="curve"/>
      <point x="381" y="647"/>
      <point x="431" y="600"/>
      <point x="431" y="532" type="curve"/>
      <point x="431" y="444"/>
      <point x="372" y="395"/>
      <point x="269" y="395" type="curve"/>
      <point x="244" y="395" type="line"/>
      <point x="244" y="327" type="line"/>
      <point x="285" y="327" type="line" smooth="yes"/>
      <point x="379" y="327"/>
      <point x="444" y="286"/>
      <point x="444" y="199" type="curve"/>
      <point x="444" y="108"/>
      <point x="373" y="65"/>
      <point x="276" y="65" type="curve"/>
      <point x="201" y="65"/>
      <point x="140" y="84"/>
      <point x="97" y="112" type="curve"/>
      <point x="72" y="42" type="line"/>
      <point x="115" y="12"/>
      <point x="190" y="-8"/>
    </contour>
  </outline>
</glyph>
<glyph name="four" format="1">
  <advance width="600"/>
  <unicode hex="0034"/>
  <outline>
    <contour>
      <point x="381" y="613" type="line"/>
      <point x="381" y="0" type="line"/>
      <point x="459" y="0" type="line"/>
      <point x="459" y="712" type="line"/>
      <point x="404" y="712" type="line"/>
      <point x="50" y="261" type="line"/>
      <point x="50" y="206" type="line"/>
      <point x="559" y="206" type="line"/>
      <point x="559" y="272" type="line"/>
      <point x="105" y="272" type="line"/>
      <point x="116" y="247" type="line"/>
      <point x="404" y="613" type="line"/>
    </contour>
  </outline>
</glyph>
<glyph name="five" format="1">
  <advance width="600"/>
  <unicode hex="0035"/>
  <outline>
    <contour>
      <point x="270" y="-8" type="curve"/>
      <point x="426" y="-8"/>
      <point x="525" y="70"/>
      <point x="525" y="201" type="curve"/>
      <point x="525" y="318"/>
      <point x="437" y="396"/>
      <point x="228" y="403" type="curve"/>
      <point x="164" y="405" type="line"/>
      <point x="197" y="378" type="line"/>
      <point x="217" y="669" type="line"/>
      <point x="172" y="646" type="line"/>
      <point x="491" y="646" type="line"/>
      <point x="491" y="712" type="line"/>
      <point x="142" y="712" type="line"/>
      <point x="117" y="337" type="line"/>
      <point x="216" y="334" type="line" smooth="yes"/>
      <point x="376" y="328"/>
      <point x="444" y="284"/>
      <point x="444" y="200" type="curve"/>
      <point x="444" y="108"/>
      <point x="375" y="65"/>
      <point x="276" y="65" type="curve"/>
      <point x="201" y="65"/>
      <point x="140" y="84"/>
      <point x="97" y="112" type="curve"/>
      <point x="72" y="42" type="line"/>
      <point x="115" y="12"/>
      <point x="190" y="-8"/>
    </contour>
  </outline>
</glyph>
<glyph name="six" format="1">
  <advance width="600"/>
  <unicode hex="0036"/>
  <outline>
    <contour>
      <point x="323" y="-8" type="curve"/>
      <point x="458" y="-8"/>
      <point x="557" y="93"/>
      <point x="557" y="233" type="curve"/>
      <point x="557" y="360"/>
      <point x="469" y="446"/>
      <point x="347" y="446" type="curve"/>
      <point x="238" y="446"/>
      <point x="154" y="376"/>
      <point x="134" y="269" type="curve"/>
      <point x="154" y="251" type="line"/>
      <point x="154" y="338" type="line" smooth="yes"/>
      <point x="154" y="548"/>
      <point x="235" y="647"/>
      <point x="346" y="647" type="curve"/>
      <point x="416" y="647"/>
      <point x="463" y="614"/>
      <point x="492" y="531" type="curve"/>
      <point x="560" y="562" type="line"/>
      <point x="525" y="666"/>
      <point x="453" y="720"/>
      <point x="351" y="720" type="curve"/>
      <point x="175" y="720"/>
      <point x="74" y="562"/>
      <point x="74" y="327" type="curve"/>
      <point x="74" y="108"/>
      <point x="160" y="-8"/>
    </contour>
    <contour>
      <point x="321" y="60" type="curve"/>
      <point x="229" y="60"/>
      <point x="171" y="120"/>
      <point x="171" y="215" type="curve"/>
      <point x="171" y="313"/>
      <point x="241" y="378"/>
      <point x="332" y="378" type="curve"/>
      <point x="420" y="378"/>
      <point x="476" y="318"/>
      <point x="476" y="226" type="curve"/>
      <point x="476" y="126"/>
      <point x="413" y="60"/>
    </contour>
  </outline>
</glyph>
<glyph name="seven" format="1">
  <advance width="600"/>
  <unicode hex="0037"/>
  <outline>
    <contour>
      <point x="133" y="0" type="line"/>
      <point x="216" y="0" type="line"/>
      <point x="530" y="651" type="line"/>
      <point x="530" y="710" type="line"/>
      <point x="82" y="710" type="line"/>
      <point x="82" y="644" type="line"/>
      <point x="467" y="644" type="line"/>
      <point x="461" y="676" type="line"/>
    </contour>
  </outline>
</glyph>
<glyph name="eight" format="1">
  <advance width="600"/>
  <unicode hex="0038"/>
  <outline>
    <contour>
      <point x="300" y="-8" type="curve"/>
      <point x="451" y="-8"/>
      <point x="545" y="66"/>
      <point x="545" y="183" type="curve"/>
      <point x="545" y="275"/>
      <point x="476" y="352"/>
      <point x="379" y="369" type="curve"/>
      <point x="384" y="353" type="line"/>
      <point x="472" y="373"/>
      <point x="529" y="440"/>
      <point x="529" y="524" type="curve"/>
      <point x="529" y="636"/>
      <point x="436" y="720"/>
      <point x="300" y="720" type="curve"/>
      <point x="164" y="720"/>
      <point x="71" y="636"/>
      <point x="71" y="524" type="curve"/>
      <point x="71" y="440"/>
      <point x="128" y="373"/>
      <point x="216" y="353" type="curve"/>
      <point x="221" y="369" type="line"/>
      <point x="124" y="352"/>
      <point x="55" y="275"/>
      <point x="55" y="183" type="curve"/>
      <point x="55" y="66"/>
      <point x="149" y="-8"/>
    </contour>
    <contour>
      <point x="300" y="60" type="curve"/>
      <point x="198" y="60"/>
      <point x="136" y="109"/>
      <point x="136" y="189" type="curve"/>
      <point x="136" y="271"/>
      <point x="202" y="327"/>
      <point x="300" y="327" type="curve"/>
      <point x="397" y="327"/>
      <point x="464" y="270"/>
      <point x="464" y="189" type="curve"/>
      <point x="464" y="109"/>
      <point x="402" y="60"/>
    </contour>
    <contour>
      <point x="300" y="391" type="curve"/>
      <point x="211" y="391"/>
      <point x="152" y="441"/>
      <point x="152" y="518" type="curve"/>
      <point x="152" y="600"/>
      <point x="213" y="652"/>
      <point x="300" y="652" type="curve"/>
      <point x="387" y="652"/>
      <point x="448" y="600"/>
      <point x="448" y="518" type="curve"/>
      <point x="448" y="441"/>
      <point x="390" y="391"/>
    </contour>
  </outline>
</glyph>
<glyph name="less" format="1">
  <advance width="600"/>
  <unicode hex="003C"/>
  <outline>
    <contour>
      <point x="65" y="279" type="line"/>
      <point x="65" y="219" type="line"/>
      <point x="535" y="-2" type="line"/>
      <point x="535" y="74" type="line"/>
      <point x="118" y="268" type="line"/>
      <point x="118" y="230" type="line"/>
      <point x="535" y="424" type="line"/>
      <point x="535" y="500" type="line"/>
    </contour>
  </outline>
</glyph>
<glyph name="equal" format="1">
  <advance width="600"/>
  <unicode hex="003D"/>
  <outline>
    <contour>
      <point x="545" y="115" type="line"/>
      <point x="545" y="182" type="line"/>
      <point x="55" y="182" type="line"/>
      <point x="55" y="115" type="line"/>
    </contour>
    <contour>
      <point x="545" y="317" type="line"/>
      <point x="545" y="384" type="line"/>
      <point x="55" y="384" type="line"/>
      <point x="55" y="317" type="line"/>
    </contour>
  </outline>
</glyph>
<glyph name="greater" format="1">
  <advance width="600"/>
  <unicode hex="003E"/>
  <outline>
    <contour>
      <point x="65" y="-2" type="line"/>
      <point x="535" y="219" type="line"/>
      <point x="535" y="279" type="line"/>
      <point x="65" y="500" type="line"/>
      <point x="65" y="424" type="line"/>
      <point x="482" y="230" type="line"/>
      <point x="482" y="268" type="line"/>
      <point x="65" y="74" type="line"/>
    </contour>
  </outline>
</glyph>
<glyph name="question" format="1">
  <advance width="511"/>
  <unicode hex="003F"/>
  <outline>
    <contour>
      <point x="202" y="-8" type="curve"/>
      <point x="234" y="-8"/>
      <point x="257" y="15"/>
      <point x="257" y="45" type="curve"/>
      <point x="257" y="76"/>
      <point x="234" y="99"/>
      <point x="202" y="99" type="curve"/>
      <point x="171" y="99"/>
      <point x="148" y="76"/>
      <point x="148" y="45" type="curve"/>
      <point x="148" y="14"/>
      <point x="171" y="-8"/>
    </contour>
    <contour>
      <point x="175" y="176" type="curve"/>
      <point x="234" y="173" type="line"/>
      <point x="237" y="243"/>
      <point x="263" y="290"/>
      <point x="327" y="343" type="curve"/>
      <point x="415" y="416"/>
      <point x="449" y="468"/>
      <point x="449" y="546" type="curve"/>
      <point x="449" y="652"/>
      <point x="365" y="720"/>
      <point x="247" y="720" type="curve"/>
      <point x="134" y="720"/>
      <point x="46" y="653"/>
      <point x="13" y="542" type="curve"/>
      <point x="75" y="512" type="line"/>
      <point x="104" y="603"/>
      <point x="160" y="647"/>
      <point x="242" y="647" type="curve"/>
      <point x="318" y="647"/>
      <point x="368" y="610"/>
      <point x="368" y="542" type="curve"/>
      <point x="368" y="489"/>
      <point x="348" y="457"/>
      <point x="274" y="392" type="curve"/>
      <point x="198" y="328"/>
      <point x="172" y="269"/>
    </contour>
  </outline>
</glyph>
<glyph name="at" format="1">
  <advance width="971"/>
  <unicode hex="0040"/>
  <outline>
    <contour>
      <point x="502" y="-212" type="curve"/>
      <point x="619" y="-212"/>
      <point x="732" y="-173"/>
      <point x="799" y="-110" type="curve"/>
      <point x="757" y="-57" type="line"/>
      <point x="700" y="-112"/>
      <point x="602" y="-147"/>
      <point x="505" y="-147" type="curve"/>
      <point x="265" y="-147"/>
      <point x="128" y="-3"/>
      <point x="128" y="249" type="curve"/>
      <point x="128" y="495"/>
      <point x="279" y="660"/>
      <point x="503" y="660" type="curve"/>
      <point x="712" y="660"/>
      <point x="848" y="537"/>
      <point x="848" y="348" type="curve"/>
      <point x="848" y="203"/>
      <point x="792" y="95"/>
      <point x="719" y="95" type="curve"/>
      <point x="677" y="95"/>
      <point x="659" y="131"/>
      <point x="671" y="195" type="curve"/>
      <point x="726" y="493" type="line"/>
      <point x="676" y="498" type="line"/>
      <point x="649" y="432" type="line"/>
      <point x="667" y="456" type="line"/>
      <point x="645" y="485"/>
      <point x="587" y="507"/>
      <point x="530" y="507" type="curve"/>
      <point x="382" y="507"/>
      <point x="259" y="371"/>
      <point x="259" y="200" type="curve"/>
      <point x="259" y="94"/>
      <point x="317" y="32"/>
      <point x="415" y="32" type="curve"/>
      <point x="504" y="32"/>
      <point x="590" y="100"/>
      <point x="625" y="197" type="curve"/>
      <point x="603" y="186" type="line"/>
      <point x="584" y="93"/>
      <point x="625" y="32"/>
      <point x="710" y="32" type="curve"/>
      <point x="827" y="32"/>
      <point x="914" y="163"/>
      <point x="914" y="348" type="curve"/>
      <point x="914" y="578"/>
      <point x="754" y="725"/>
      <point x="503" y="725" type="curve"/>
      <point x="238" y="725"/>
      <point x="57" y="531"/>
      <point x="57" y="249" type="curve"/>
      <point x="57" y="-40"/>
      <point x="223" y="-212"/>
    </contour>
    <contour>
      <point x="427" y="99" type="curve"/>
      <point x="367" y="99"/>
      <point x="335" y="135"/>
      <point x="335" y="203" type="curve"/>
      <point x="335" y="335"/>
      <point x="423" y="441"/>
      <point x="528" y="441" type="curve"/>
      <point x="585" y="441"/>
      <point x="621" y="426"/>
      <point x="649" y="390" type="curve"/>
      <point x="642" y="422" type="line"/>
      <point x="615" y="285" type="line" smooth="yes"/>
      <point x="594" y="177"/>
      <point x="515" y="99"/>
    </contour>
  </outline>
</glyph>
<glyph name="A" format="1">
  <advance width="675"/>
  <unicode hex="0041"/>
  <outline>
    <contour>
      <point x="306" y="710" type="line"/>
      <point x="10" y="0" type="line"/>
      <point x="94" y="0" type="line"/>
      <point x="355" y="644" type="line"/>
      <point x="327" y="644" type="line"/>
      <point x="577" y="0" type="line"/>
      <point x="661" y="0" type="line"/>
      <point x="377" y="710" type="line"/>
    </contour>
    <contour>
      <point x="166" y="257" type="line"/>
      <point x="140" y="187" type="line"/>
      <point x="539" y="187" type="line"/>
      <point x="511" y="257" type="line"/>
    </contour>
    <contour>
      <point x="338" y="0" type="move" name="bottom"/>
    </contour>
    <contour>
      <point x="661" y="0" type="move" name="ogonek"/>
    </contour>
    <contour>
      <point x="338" y="710" type="move" name="top"/>
    </contour>
  </outline>
</glyph>
<glyph name="B" format="1">
  <advance width="613"/>
  <unicode hex="0042"/>
  <outline>
    <contour>
      <point x="81" y="710" type="line"/>
      <point x="81" y="0" type="line"/>
      <point x="327" y="0" type="line" smooth="yes"/>
      <point x="474" y="0"/>
      <point x="565" y="69"/>
      <point x="565" y="196" type="curve"/>
      <point x="565" y="281"/>
      <point x="506" y="349"/>
      <point x="412" y="367" type="curve"/>
      <point x="412" y="353" type="line"/>
      <point x="506" y="374"/>
      <point x="557" y="439"/>
      <point x="557" y="521" type="curve"/>
      <point x="557" y="643"/>
      <point x="468" y="710"/>
      <point x="271" y="710" type="curve"/>
    </contour>
    <contour>
      <point x="324" y="68" type="curve"/>
      <point x="162" y="68" type="line"/>
      <point x="162" y="642" type="line"/>
      <point x="272" y="642" type="line" smooth="yes"/>
      <point x="413" y="642"/>
      <point x="475" y="605"/>
      <point x="475" y="520" type="curve"/>
      <point x="475" y="432"/>
      <point x="412" y="392"/>
      <point x="289" y="392" type="curve"/>
      <point x="148" y="392" type="line"/>
      <point x="148" y="323" type="line"/>
      <point x="316" y="323" type="line" smooth="yes"/>
      <point x="426" y="323"/>
      <point x="483" y="280"/>
      <point x="483" y="194" type="curve"/>
      <point x="483" y="106"/>
      <point x="421" y="68"/>
    </contour>
    <contour>
      <point x="334" y="0" type="move" name="bottom"/>
    </contour>
    <contour>
      <point x="333" y="712" type="move" name="top"/>
    </contour>
  </outline>
</glyph>
<glyph name="C" format="1">
  <advance width="650"/>
  <unicode hex="0043"/>
  <outline>
    <contour>
      <point x="649" y="136" type="curve"/>
      <point x="586" y="184" type="line"/>
      <point x="545" y="108"/>
      <point x="475" y="68"/>
      <point x="383" y="68" type="curve"/>
      <point x="231" y="68"/>
      <point x="141" y="169"/>
      <point x="141" y="342" type="curve"/>
      <point x="141" y="521"/>
      <point x="247" y="644"/>
      <point x="398" y="644" type="curve"/>
      <point x="483" y="644"/>
      <point x="546" y="609"/>
      <point x="586" y="537" type="curve"/>
      <point x="650" y="585" type="line"/>
      <point x="598" y="674"/>
      <point x="512" y="720"/>
      <point x="400" y="720" type="curve"/>
      <point x="196" y="720"/>
      <point x="57" y="566"/>
      <point x="57" y="342" type="curve"/>
      <point x="57" y="124"/>
      <point x="180" y="-8"/>
      <point x="383" y="-8" type="curve"/>
      <point x="501" y="-8"/>
      <point x="597" y="43"/>
    </contour>
    <contour>
      <point x="386" y="0" type="move" name="bottom"/>
    </contour>
    <contour>
      <point x="386" y="710" type="move" name="top"/>
    </contour>
  </outline>
</glyph>
<glyph name="D" format="1">
  <advance width="734"/>
  <unicode hex="0044"/>
  <outline>
    <contour>
      <point x="81" y="710" type="line"/>
      <point x="81" y="0" type="line"/>
      <point x="293" y="0" type="line" smooth="yes"/>
      <point x="533" y="0"/>
      <point x="677" y="135"/>
      <point x="677" y="359" type="curve"/>
      <point x="677" y="592"/>
      <point x="538" y="710"/>
      <point x="264" y="710" type="curve"/>
    </contour>
    <contour>
      <point x="289" y="73" type="curve"/>
      <point x="164" y="73" type="line"/>
      <point x="164" y="637" type="line"/>
      <point x="277" y="637" type="line" smooth="yes"/>
      <point x="491" y="637"/>
      <point x="593" y="544"/>
      <point x="593" y="354" type="curve"/>
      <point x="593" y="170"/>
      <point x="490" y="73"/>
    </contour>
    <contour>
      <point x="364" y="0" type="move" name="bottom"/>
    </contour>
    <contour>
      <point x="364" y="359" type="move" name="center"/>
    </contour>
    <contour>
      <point x="123" y="360" type="move" name="stroke"/>
    </contour>
    <contour>
      <point x="364" y="710" type="move" name="top"/>
    </contour>
  </outline>
</glyph>
<glyph name="E" format="1">
  <advance width="544"/>
  <unicode hex="0045"/>
  <outline>
    <contour>
      <point x="162" y="639" type="line"/>
      <point x="497" y="639" type="line"/>
      <point x="497" y="710" type="line"/>
      <point x="81" y="710" type="line"/>
      <point x="81" y="0" type="line"/>
      <point x="504" y="0" type="line"/>
      <point x="511" y="71" type="line"/>
      <point x="162" y="71" type="line"/>
      <point x="162" y="325" type="line"/>
      <point x="487" y="325" type="line"/>
      <point x="487" y="396" type="line"/>
      <point x="162" y="396" type="line"/>
    </contour>
    <contour>
      <point x="289" y="0" type="move" name="bottom"/>
    </contour>
    <contour>
      <point x="504" y="0" type="move" name="ogonek"/>
    </contour>
    <contour>
      <point x="289" y="710" type="move" name="top"/>
    </contour>
    <contour>
      <point x="7" y="710" type="move" name="topleft"/>
    </contour>
  </outline>
</glyph>
<glyph name="F" format="1">
  <advance width="487"/>
  <unicode hex="0046"/>
  <outline>
    <contour>
      <point x="162" y="639" type="line"/>
      <point x="477" y="639" type="line"/>
      <point x="477" y="710" type="line"/>
      <point x="81" y="710" type="line"/>
      <point x="81" y="0" type="line"/>
      <point x="162" y="0" type="line"/>
      <point x="162" y="314" type="line"/>
      <point x="467" y="314" type="line"/>
      <point x="467" y="385" type="line"/>
      <point x="162" y="385" type="line"/>
    </contour>
    <contour>
      <point x="279" y="0" type="move" name="bottom"/>
    </contour>
    <contour>
      <point x="279" y="710" type="move" name="top"/>
    </contour>
  </outline>
</glyph>
<glyph name="G" format="1">
  <advance width="730"/>
  <unicode hex="0047"/>
  <outline>
    <contour>
      <point x="669" y="347" type="line"/>
      <point x="418" y="347" type="line"/>
      <point x="418" y="279" type="line"/>
      <point x="614" y="279" type="line"/>
      <point x="590" y="324" type="line"/>
      <point x="590" y="248" type="line" smooth="yes"/>
      <point x="590" y="136"/>
      <point x="507" y="68"/>
      <point x="380" y="68" type="curve"/>
      <point x="232" y="68"/>
      <point x="142" y="166"/>
      <point x="142" y="342" type="curve"/>
      <point x="142" y="521"/>
      <point x="248" y="643"/>
      <point x="407" y="643" type="curve"/>
      <point x="496" y="643"/>
      <point x="560" y="608"/>
      <point x="599" y="537" type="curve"/>
      <point x="663" y="585" type="line"/>
      <point x="611" y="674"/>
      <point x="525" y="720"/>
      <point x="411" y="720" type="curve"/>
      <point x="197" y="720"/>
      <point x="57" y="566"/>
      <point x="57" y="342" type="curve"/>
      <point x="57" y="123"/>
      <point x="181" y="-8"/>
      <point x="374" y="-8" type="curve"/>
      <point x="487" y="-8"/>
      <point x="564" y="32"/>
      <point x="610" y="117" type="curve"/>
      <point x="592" y="117" type="line"/>
      <point x="605" y="0" type="line"/>
      <point x="669" y="0" type="line"/>
    </contour>
    <contour>
      <point x="386" y="0" type="move" name="bottom"/>
    </contour>
    <contour>
      <point x="386" y="710" type="move" name="top"/>
    </contour>
  </outline>
</glyph>
<glyph name="H" format="1">
  <advance width="720"/>
  <unicode hex="0048"/>
  <outline>
    <contour>
      <point x="556" y="710" type="line"/>
      <point x="556" y="0" type="line"/>
      <point x="639" y="0" type="line"/>
      <point x="639" y="710" type="line"/>
    </contour>
    <contour>
      <point x="81" y="710" type="line"/>
      <point x="81" y="0" type="line"/>
      <point x="164" y="0" type="line"/>
      <point x="164" y="710" type="line"/>
    </contour>
    <contour>
      <point x="124" y="397" type="line"/>
      <point x="124" y="324" type="line"/>
      <point x="605" y="324" type="line"/>
      <point x="605" y="397" type="line"/>
    </contour>
    <contour>
      <point x="360" y="0" type="move" name="bottom"/>
    </contour>
    <contour>
      <point x="360" y="570" type="move" name="center"/>
    </contour>
    <contour>
      <point x="360" y="710" type="move" name="top"/>
    </contour>
    <contour>
      <point x="7" y="710" type="move" name="topleft"/>
    </contour>
  </outline>
</glyph>
<glyph name="J" format="1">
  <advance width="451"/>
  <unicode hex="004A"/>
  <outline>
    <contour>
      <point x="177" y="-8" type="curve"/>
      <point x="309" y="-8"/>
      <point x="372" y="68"/>
      <point x="372" y="209" type="curve"/>
      <point x="372" y="710" type="line"/>
      <point x="289" y="710" type="line"/>
      <point x="289" y="205" type="line" smooth="yes"/>
      <point x="289" y="109"/>
      <point x="255" y="65"/>
      <point x="180" y="65" type="curve"/>
      <point x="112" y="65"/>
      <point x="71" y="94"/>
      <point x="50" y="159" type="curve"/>
      <point x="-18" y="129" type="line"/>
      <point x="2" y="45"/>
      <point x="77" y="-8"/>
    </contour>
    <contour>
      <point x="224" y="0" type="move" name="bottom"/>
    </contour>
    <contour>
      <point x="331" y="710" type="move" name="top"/>
    </contour>
  </outline>
</glyph>
<glyph name="K" format="1">
  <advance width="569"/>
  <unicode hex="004B"/>
  <outline>
    <contour>
      <point x="81" y="710" type="line"/>
      <point x="81" y="0" type="line"/>
      <point x="164" y="0" type="line"/>
      <point x="164" y="710" type="line"/>
    </contour>
    <contour>
      <point x="588" y="18" type="curve"/>
      <point x="570" y="82" type="line"/>
      <point x="554" y="72"/>
      <point x="536" y="66"/>
      <point x="516" y="66" type="curve"/>
      <point x="471" y="66"/>
      <point x="452" y="79"/>
      <point x="415" y="134" type="curve"/>
      <point x="309" y="293" type="line" smooth="yes"/>
      <point x="275" y="344"/>
      <point x="230" y="370"/>
      <point x="185" y="370" type="curve"/>
      <point x="221" y="338" type="line"/>
      <point x="590" y="710" type="line"/>
      <point x="488" y="710" type="line"/>
      <point x="137" y="353" type="line"/>
      <point x="137" y="319" type="line"/>
      <point x="182" y="319"/>
      <point x="207" y="301"/>
      <point x="225" y="275" type="curve"/>
      <point x="355" y="83" type="line" smooth="yes"/>
      <point x="399" y="18"/>
      <point x="445" y="-6"/>
      <point x="503" y="-6" type="curve"/>
      <point x="538" y="-6"/>
      <point x="567" y="2"/>
    </contour>
    <contour>
      <point x="298" y="0" type="move" name="bottom"/>
    </contour>
    <contour>
      <point x="298" y="710" type="move" name="top"/>
    </contour>
  </outline>
</glyph>
<glyph name="L" format="1">
  <advance width="487"/>
  <unicode hex="004C"/>
  <outline>
    <contour>
      <point x="81" y="710" type="line"/>
      <point x="81" y="0" type="line"/>
      <point x="487" y="0" type="line"/>
      <point x="494" y="72" type="line"/>
      <point x="164" y="72" type="line"/>
      <point x="164" y="710" type="line"/>
    </contour>
    <contour>
      <point x="284" y="0" type="move" name="bottom"/>
    </contour>
    <contour>
      <point x="123" y="355" type="move" name="center"/>
    </contour>
    <contour>
      <point x="383" y="401" type="move" name="dotacc"/>
    </contour>
    <contour>
      <point x="123" y="710" type="move" name="top"/>
    </contour>
    <contour>
      <point x="264" y="710" type="move" name="topright"/>
    </contour>
  </outline>
</glyph>
<glyph name="M" format="1">
  <advance width="916"/>
  <unicode hex="004D"/>
  <outline>
    <contour>
      <point x="105" y="710" type="line"/>
      <point x="74" y="0" type="line"/>
      <point x="151" y="0" type="line"/>
      <point x="180" y="650" type="line"/>
      <point x="146" y="613" type="line"/>
      <point x="422" y="0" type="line"/>
      <point x="491" y="0" type="line"/>
      <point x="774" y="623" type="line"/>
      <point x="737" y="650" type="line"/>
      <point x="762" y="0" type="line"/>
      <point x="840" y="0" type="line"/>
      <point x="814" y="710" type="line"/>
      <point x="735" y="710" type="line"/>
      <point x="434" y="44" type="line"/>
      <point x="485" y="44" type="line"/>
      <point x="184" y="710" type="line"/>
    </contour>
    <contour>
      <point x="457" y="0" type="move" name="bottom"/>
    </contour>
    <contour>
      <point x="457" y="710" type="move" name="top"/>
    </contour>
  </outline>
</glyph>
<glyph name="N" format="1">
  <advance width="719"/>
  <unicode hex="004E"/>
  <outline>
    <contour>
      <point x="638" y="710" type="line"/>
      <point x="559" y="710" type="line"/>
      <point x="559" y="81" type="line"/>
      <point x="594" y="90" type="line"/>
      <point x="152" y="710" type="line"/>
      <point x="81" y="710" type="line"/>
      <point x="81" y="0" type="line"/>
      <point x="160" y="0" type="line"/>
      <point x="160" y="630" type="line"/>
      <point x="125" y="620" type="line"/>
      <point x="567" y="0" type="line"/>
      <point x="638" y="0" type="line"/>
    </contour>
    <contour>
      <point x="360" y="0" type="move" name="bottom"/>
    </contour>
    <contour>
      <point x="360" y="710" type="move" name="top"/>
    </contour>
  </outline>
</glyph>
<glyph name="O" format="1">
  <advance width="770"/>
  <unicode hex="004F"/>
  <outline>
    <contour>
      <point x="381" y="-8" type="curve"/>
      <point x="573" y="-8"/>
      <point x="713" y="139"/>
      <point x="713" y="369" type="curve"/>
      <point x="713" y="580"/>
      <point x="587" y="720"/>
      <point x="399" y="720" type="curve"/>
      <point x="197" y="720"/>
      <point x="57" y="564"/>
      <point x="57" y="342" type="curve"/>
      <point x="57" y="120"/>
      <point x="180" y="-8"/>
    </contour>
    <contour>
      <point x="381" y="68" type="curve"/>
      <point x="232" y="68"/>
      <point x="141" y="166"/>
      <point x="141" y="342" type="curve"/>
      <point x="141" y="524"/>
      <point x="249" y="644"/>
      <point x="400" y="644" type="curve"/>
      <point x="540" y="644"/>
      <point x="629" y="538"/>
      <point x="629" y="371" type="curve"/>
      <point x="629" y="179"/>
      <point x="527" y="68"/>
    </contour>
    <contour>
      <point x="385" y="0" type="move" name="bottom"/>
    </contour>
    <contour>
      <point x="385" y="355" type="move" name="center"/>
    </contour>
    <contour>
      <point x="462" y="0" type="move" name="ogonek"/>
    </contour>
    <contour>
      <point x="385" y="710" type="move" name="top"/>
    </contour>
    <contour>
      <point x="14" y="710" type="move" name="topleft"/>
    </contour>
    <contour>
      <point x="584" y="710" type="move" name="topright"/>
    </contour>
  </outline>
</glyph>
<glyph name="P" format="1">
  <advance width="601"/>
  <unicode hex="0050"/>
  <outline>
    <contour>
      <point x="81" y="0" type="line"/>
      <point x="162" y="0" type="line"/>
      <point x="162" y="643" type="line"/>
      <point x="305" y="643" type="line" smooth="yes"/>
      <point x="435" y="643"/>
      <point x="494" y="598"/>
      <point x="494" y="502" type="curve"/>
      <point x="494" y="405"/>
      <point x="437" y="354"/>
      <point x="291" y="354" type="curve"/>
      <point x="146" y="354" type="line"/>
      <point x="146" y="285" type="line"/>
      <point x="286" y="285" type="line" smooth="yes"/>
      <point x="484" y="285"/>
      <point x="576" y="367"/>
      <point x="576" y="502" type="curve"/>
      <point x="576" y="638"/>
      <point x="479" y="711"/>
      <point x="313" y="711" type="curve"/>
      <point x="81" y="711" type="line"/>
    </contour>
    <contour>
      <point x="302" y="0" type="move" name="bottom"/>
    </contour>
    <contour>
      <point x="303" y="710" type="move" name="top"/>
    </contour>
  </outline>
</glyph>
<glyph name="Q" format="1">
  <advance width="770"/>
  <unicode hex="0051"/>
  <outline>
    <contour>
      <point x="409" y="47" type="line"/>
      <point x="329" y="47" type="line"/>
      <point x="329" y="-10" type="line" smooth="yes"/>
      <point x="329" y="-141"/>
      <point x="396" y="-208"/>
      <point x="514" y="-208" type="curve"/>
      <point x="602" y="-208"/>
      <point x="660" y="-160"/>
      <point x="672" y="-76" type="curve"/>
      <point x="606" y="-68" type="line"/>
      <point x="600" y="-112"/>
      <point x="566" y="-141"/>
      <point x="515" y="-141" type="curve"/>
      <point x="442" y="-141"/>
      <point x="409" y="-104"/>
      <point x="409" y="-12" type="curve"/>
    </contour>
    <contour>
      <point x="381" y="-8" type="curve"/>
      <point x="573" y="-8"/>
      <point x="713" y="139"/>
      <point x="713" y="369" type="curve"/>
      <point x="713" y="580"/>
      <point x="587" y="720"/>
      <point x="399" y="720" type="curve"/>
      <point x="197" y="720"/>
      <point x="57" y="564"/>
      <point x="57" y="342" type="curve"/>
      <point x="57" y="120"/>
      <point x="180" y="-8"/>
    </contour>
    <contour>
      <point x="381" y="68" type="curve"/>
      <point x="232" y="68"/>
      <point x="141" y="166"/>
      <point x="141" y="342" type="curve"/>
      <point x="141" y="524"/>
      <point x="249" y="644"/>
      <point x="400" y="644" type="curve"/>
      <point x="540" y="644"/>
      <point x="629" y="538"/>
      <point x="629" y="371" type="curve"/>
      <point x="629" y="179"/>
      <point x="527" y="68"/>
    </contour>
    <contour>
      <point x="384" y="710" type="move" name="top"/>
    </contour>
  </outline>
</glyph>
<glyph name="R" format="1">
  <advance width="587"/>
  <unicode hex="0052"/>
  <outline>
    <contour>
      <point x="616" y="18" type="curve"/>
      <point x="598" y="82" type="line"/>
      <point x="582" y="72"/>
      <point x="564" y="66"/>
      <point x="544" y="66" type="curve"/>
      <point x="499" y="66"/>
      <point x="481" y="79"/>
      <point x="443" y="134" type="curve"/>
      <point x="354" y="265" type="line" smooth="yes"/>
      <point x="322" y="312"/>
      <point x="294" y="331"/>
      <point x="255" y="331" type="curve"/>
      <point x="249" y="321" type="line"/>
      <point x="298" y="321" type="line" smooth="yes"/>
      <point x="425" y="321"/>
      <point x="532" y="386"/>
      <point x="532" y="516" type="curve"/>
      <point x="532" y="636"/>
      <point x="444" y="710"/>
      <point x="283" y="710" type="curve"/>
      <point x="81" y="710" type="line"/>
      <point x="81" y="0" type="line"/>
      <point x="162" y="0" type="line"/>
      <point x="162" y="642" type="line"/>
      <point x="277" y="642" type="line" smooth="yes"/>
      <point x="396" y="642"/>
      <point x="450" y="594"/>
      <point x="450" y="514" type="curve"/>
      <point x="450" y="424"/>
      <point x="384" y="385"/>
      <point x="267" y="385" type="curve"/>
      <point x="146" y="385" type="line"/>
      <point x="146" y="319" type="line"/>
      <point x="186" y="319" type="line" smooth="yes"/>
      <point x="210" y="319"/>
      <point x="235" y="301"/>
      <point x="253" y="275" type="curve"/>
      <point x="383" y="83" type="line" smooth="yes"/>
      <point x="427" y="18"/>
      <point x="473" y="-6"/>
      <point x="531" y="-6" type="curve"/>
      <point x="566" y="-6"/>
      <point x="595" y="2"/>
    </contour>
    <contour>
      <point x="313" y="0" type="move" name="bottom"/>
    </contour>
    <contour>
      <point x="313" y="710" type="move" name="top"/>
    </contour>
  </outline>
</glyph>
<glyph name="S" format="1">
  <advance width="568"/>
  <unicode hex="0053"/>
  <note>
    s
  </note>
  <outline>
    <contour>
      <point x="290" y="-8" type="curve"/>
      <point x="433" y="-8"/>
      <point x="532" y="72"/>
      <point x="532" y="188" type="curve"/>
      <point x="532" y="455"/>
      <point x="155" y="309"/>
      <point x="155" y="517" type="curve"/>
      <point x="155" y="596"/>
      <point x="213" y="648"/>
      <point x="301" y="648" type="curve"/>
      <point x="388" y="648"/>
      <point x="435" y="608"/>
      <point x="453" y="518" type="curve"/>
      <point x="525" y="530" type="line"/>
      <point x="510" y="649"/>
      <point x="428" y="720"/>
      <point x="303" y="720" type="curve"/>
      <point x="170" y="720"/>
      <point x="73" y="633"/>
      <point x="73" y="514" type="curve"/>
      <point x="73" y="234"/>
      <point x="450" y="377"/>
      <point x="450" y="187" type="curve"/>
      <point x="450" y="111"/>
      <point x="392" y="64"/>
      <point x="296" y="64" type="curve"/>
      <point x="181" y="64"/>
      <point x="125" y="111"/>
      <point x="106" y="221" type="curve"/>
      <point x="29" y="210" type="line"/>
      <point x="45" y="66"/>
      <point x="134" y="-8"/>
    </contour>
    <contour>
      <point x="290" y="0" type="move" name="bottom"/>
    </contour>
    <contour>
      <point x="290" y="710" type="move" name="top"/>
    </contour>
  </outline>
</glyph>
<glyph name="T" format="1">
  <advance width="549"/>
  <unicode hex="0054"/>
  <outline>
    <contour>
      <point x="543" y="638" type="line"/>
      <point x="550" y="710" type="line"/>
      <point x="1" y="710" type="line"/>
      <point x="1" y="638" type="line"/>
      <point x="233" y="638" type="line"/>
      <point x="233" y="0" type="line"/>
      <point x="316" y="0" type="line"/>
      <point x="316" y="638" type="line"/>
    </contour>
    <contour>
      <point x="275" y="0" type="move" name="bottom"/>
    </contour>
    <contour>
      <point x="275" y="360" type="move" name="stroke"/>
    </contour>
    <contour>
      <point x="275" y="710" type="move" name="top"/>
    </contour>
  </outline>
</glyph>
<glyph name="U" format="1">
  <advance width="724"/>
  <unicode hex="0055"/>
  <outline>
    <contour>
      <point x="645" y="710" type="line"/>
      <point x="563" y="710" type="line"/>
      <point x="564" y="342" type="line" smooth="yes"/>
      <point x="565" y="155"/>
      <point x="503" y="68"/>
      <point x="358" y="68" type="curve"/>
      <point x="221" y="68"/>
      <point x="162" y="140"/>
      <point x="162" y="307" type="curve"/>
      <point x="162" y="710" type="line"/>
      <point x="78" y="710" type="line"/>
      <point x="78" y="303" type="line" smooth="yes"/>
      <point x="78" y="88"/>
      <point x="170" y="-8"/>
      <point x="358" y="-8" type="curve"/>
      <point x="549" y="-8"/>
      <point x="647" y="115"/>
      <point x="646" y="340" type="curve"/>
    </contour>
    <contour>
      <point x="363" y="0" type="move" name="bottom"/>
    </contour>
    <contour>
      <point x="451" y="0" type="move" name="ogonek"/>
    </contour>
    <contour>
      <point x="363" y="710" type="move" name="top"/>
    </contour>
    <contour>
      <point x="665" y="710" type="move" name="topright"/>
    </contour>
  </outline>
</glyph>
<glyph name="V" format="1">
  <advance width="590"/>
  <unicode hex="0056"/>
  <outline>
    <contour>
      <point x="606" y="710" type="line"/>
      <point x="523" y="710" type="line"/>
      <point x="273" y="24" type="line"/>
      <point x="302" y="23" type="line"/>
      <point x="95" y="710" type="line"/>
      <point x="9" y="710" type="line"/>
      <point x="229" y="0" type="line"/>
      <point x="340" y="0" type="line"/>
    </contour>
    <contour>
      <point x="288" y="0" type="move" name="bottom"/>
    </contour>
    <contour>
      <point x="288" y="710" type="move" name="top"/>
    </contour>
  </outline>
</glyph>
<glyph name="W" format="1">
  <advance width="940"/>
  <unicode hex="0057"/>
  <outline>
    <contour>
      <point x="925" y="710" type="line"/>
      <point x="845" y="710" type="line"/>
      <point x="663" y="59" type="line"/>
      <point x="685" y="59" type="line"/>
      <point x="527" y="710" type="line"/>
      <point x="437" y="710" type="line"/>
      <point x="249" y="59" type="line"/>
      <point x="270" y="59" type="line"/>
      <point x="115" y="710" type="line"/>
      <point x="32" y="710" type="line"/>
      <point x="208" y="0" type="line"/>
      <point x="304" y="0" type="line"/>
      <point x="490" y="640" type="line"/>
      <point x="466" y="640" type="line"/>
      <point x="623" y="0" type="line"/>
      <point x="719" y="0" type="line"/>
    </contour>
    <contour>
      <point x="464" y="0" type="move" name="bottom"/>
    </contour>
    <contour>
      <point x="482" y="710" type="move" name="top"/>
    </contour>
  </outline>
</glyph>
<glyph name="X" format="1">
  <advance width="582"/>
  <unicode hex="0058"/>
  <outline>
    <contour>
      <point x="290" y="296" type="line"/>
      <point x="486" y="0" type="line"/>
      <point x="581" y="0" type="line"/>
      <point x="337" y="364" type="line"/>
      <point x="294" y="430" type="line"/>
      <point x="108" y="710" type="line"/>
      <point x="15" y="710" type="line"/>
      <point x="246" y="363" type="line"/>
    </contour>
    <contour>
      <point x="-2" y="0" type="line"/>
      <point x="91" y="0" type="line"/>
      <point x="290" y="296" type="line"/>
      <point x="337" y="364" type="line"/>
      <point x="571" y="710" type="line"/>
      <point x="482" y="710" type="line"/>
      <point x="294" y="430" type="line"/>
      <point x="246" y="363" type="line"/>
    </contour>
    <contour>
      <point x="295" y="0" type="move" name="bottom"/>
    </contour>
    <contour>
      <point x="295" y="710" type="move" name="top"/>
    </contour>
  </outline>
</glyph>
<glyph name="Y" format="1">
  <advance width="552"/>
  <unicode hex="0059"/>
  <outline>
    <contour>
      <point x="295" y="286" type="line"/>
      <point x="573" y="710" type="line"/>
      <point x="486" y="710" type="line"/>
      <point x="264" y="368" type="line"/>
      <point x="294" y="371" type="line"/>
      <point x="70" y="710" type="line"/>
      <point x="-23" y="710" type="line"/>
      <point x="260" y="282" type="line"/>
      <point x="235" y="365" type="line"/>
      <point x="235" y="0" type="line"/>
      <point x="318" y="0" type="line"/>
      <point x="318" y="369" type="line"/>
    </contour>
    <contour>
      <point x="277" y="0" type="move" name="bottom"/>
    </contour>
    <contour>
      <point x="278" y="710" type="move" name="top"/>
    </contour>
    <contour>
      <point x="2" y="710" type="move" name="topleft"/>
    </contour>
  </outline>
</glyph>
<glyph name="Z" format="1">
  <advance width="600"/>
  <unicode hex="005A"/>
  <outline>
    <contour>
      <point x="40" y="60" type="line"/>
      <point x="40" y="0" type="line"/>
      <point x="571" y="0" type="line"/>
      <point x="578" y="72" type="line"/>
      <point x="109" y="72" type="line"/>
      <point x="130" y="50" type="line"/>
      <point x="566" y="650" type="line"/>
      <point x="566" y="710" type="line"/>
      <point x="55" y="710" type="line"/>
      <point x="55" y="638" type="line"/>
      <point x="500" y="638" type="line"/>
      <point x="476" y="660" type="line"/>
    </contour>
    <contour>
      <point x="306" y="0" type="move" name="bottom"/>
    </contour>
    <contour>
      <point x="300" y="355" type="move" name="center"/>
    </contour>
    <contour>
      <point x="306" y="710" type="move" name="top"/>
    </contour>
  </outline>
</glyph>
<glyph name="bracketleft" format="1">
  <advance width="267"/>
  <unicode hex="005B"/>
  <outline>
    <contour>
      <point x="81" y="-200" type="line"/>
      <point x="252" y="-200" type="line"/>
      <point x="252" y="-140" type="line"/>
      <point x="157" y="-140" type="line"/>
      <point x="157" y="680" type="line"/>
      <point x="252" y="680" type="line"/>
      <point x="252" y="740" type="line"/>
      <point x="81" y="740" type="line"/>
    </contour>
  </outline>
</glyph>
<glyph name="backslash" format="1">
  <advance width="319"/>
  <unicode hex="005C"/>
  <outline>
    <contour>
      <point x="243" y="-200" type="line"/>
      <point x="319" y="-200" type="line"/>
      <point x="69" y="740" type="line"/>
      <point x="-7" y="740" type="line"/>
    </contour>
  </outline>
</glyph>
<glyph name="bracketright" format="1">
  <advance width="267"/>
  <unicode hex="005D"/>
  <outline>
    <contour>
      <point x="15" y="-140" type="line"/>
      <point x="15" y="-200" type="line"/>
      <point x="186" y="-200" type="line"/>
      <point x="186" y="740" type="line"/>
      <point x="15" y="740" type="line"/>
      <point x="15" y="680" type="line"/>
      <point x="110" y="680" type="line"/>
      <point x="110" y="-140" type="line"/>
    </contour>
  </outline>
</glyph>
<glyph name="asciicircum" format="1">
  <advance width="600"/>
  <unicode hex="005E"/>
  <outline>
    <contour>
      <point x="551" y="118" type="line"/>
      <point x="329" y="588" type="line"/>
      <point x="269" y="588" type="line"/>
      <point x="49" y="118" type="line"/>
      <point x="124" y="118" type="line"/>
      <point x="320" y="539" type="line"/>
      <point x="281" y="539" type="line"/>
      <point x="476" y="118" type="line"/>
    </contour>
  </outline>
</glyph>
<glyph name="underscore" format="1">
  <advance width="470"/>
  <unicode hex="005F"/>
  <outline>
    <contour>
      <point x="30" y="0" type="line"/>
      <point x="30" y="-66" type="line"/>
      <point x="440" y="-66" type="line"/>
      <point x="440" y="0" type="line"/>
    </contour>
  </outline>
</glyph>
<glyph name="b" format="1">
  <advance width="579"/>
  <unicode hex="0062"/>
  <note>
    b
  </note>
  <outline>
    <contour>
      <point x="74" y="740" type="line"/>
      <point x="74" y="0" type="line"/>
      <point x="133" y="0" type="line"/>
      <point x="145" y="82" type="line"/>
      <point x="141" y="81" type="line"/>
      <point x="161" y="29"/>
      <point x="217" y="-8"/>
      <point x="286" y="-8" type="curve"/>
      <point x="429" y="-8"/>
      <point x="527" y="108"/>
      <point x="527" y="274" type="curve"/>
      <point x="527" y="411"/>
      <point x="457" y="507"/>
      <point x="331" y="507" type="curve"/>
      <point x="233" y="507"/>
      <point x="161" y="439"/>
      <point x="131" y="335" type="curve"/>
      <point x="147" y="321" type="line"/>
      <point x="152" y="499" type="line"/>
      <point x="152" y="740" type="line"/>
    </contour>
    <contour>
      <point x="284" y="63" type="curve"/>
      <point x="202" y="63"/>
      <point x="151" y="121"/>
      <point x="151" y="216" type="curve"/>
      <point x="151" y="345"/>
      <point x="223" y="436"/>
      <point x="320" y="436" type="curve"/>
      <point x="398" y="436"/>
      <point x="446" y="374"/>
      <point x="446" y="269" type="curve"/>
      <point x="446" y="145"/>
      <point x="382" y="63"/>
    </contour>
    <contour>
      <point x="289" y="0" type="move" name="bottom"/>
    </contour>
    <contour>
      <point x="289" y="740" type="move" name="top"/>
    </contour>
  </outline>
</glyph>
<glyph name="c" format="1">
  <advance width="488"/>
  <unicode hex="0063"/>
  <outline>
    <contour>
      <point x="287" y="-8" type="curve"/>
      <point x="371" y="-8"/>
      <point x="435" y="24"/>
      <point x="476" y="89" type="curve"/>
      <point x="419" y="134" type="line"/>
      <point x="389" y="86"/>
      <point x="343" y="64"/>
      <point x="290" y="64" type="curve"/>
      <point x="189" y="64"/>
      <point x="134" y="126"/>
      <point x="134" y="240" type="curve"/>
      <point x="134" y="358"/>
      <point x="199" y="435"/>
      <point x="297" y="435" type="curve"/>
      <point x="351" y="435"/>
      <point x="390" y="413"/>
      <point x="417" y="365" type="curve"/>
      <point x="476" y="410" type="line"/>
      <point x="438" y="475"/>
      <point x="380" y="507"/>
      <point x="299" y="507" type="curve"/>
      <point x="152" y="507"/>
      <point x="52" y="399"/>
      <point x="52" y="240" type="curve"/>
      <point x="52" y="84"/>
      <point x="140" y="-8"/>
    </contour>
    <contour>
      <point x="279" y="0" type="move" name="bottom"/>
    </contour>
    <contour>
      <point x="285" y="498" type="move" name="top"/>
    </contour>
  </outline>
</glyph>
<glyph name="d" format="1">
  <advance width="579"/>
  <unicode hex="0064"/>
  <note>
    d
  </note>
  <outline>
    <contour>
      <point x="505" y="0" type="line"/>
      <point x="505" y="740" type="line"/>
      <point x="427" y="740" type="line"/>
      <point x="427" y="498" type="line"/>
      <point x="429" y="407" type="line"/>
      <point x="439" y="418" type="line"/>
      <point x="418" y="470"/>
      <point x="362" y="507"/>
      <point x="293" y="507" type="curve"/>
      <point x="150" y="507"/>
      <point x="52" y="391"/>
      <point x="52" y="225" type="curve"/>
      <point x="52" y="88"/>
      <point x="122" y="-8"/>
      <point x="248" y="-8" type="curve"/>
      <point x="344" y="-8"/>
      <point x="418" y="60"/>
      <point x="448" y="164" type="curve"/>
      <point x="430" y="178" type="line"/>
      <point x="425" y="0" type="line"/>
    </contour>
    <contour>
      <point x="295" y="436" type="curve"/>
      <point x="377" y="436"/>
      <point x="428" y="379"/>
      <point x="428" y="284" type="curve"/>
      <point x="428" y="155"/>
      <point x="356" y="63"/>
      <point x="259" y="63" type="curve"/>
      <point x="181" y="63"/>
      <point x="133" y="126"/>
      <point x="133" y="231" type="curve"/>
      <point x="133" y="355"/>
      <point x="197" y="436"/>
    </contour>
    <contour>
      <point x="310" y="0" type="move" name="bottom"/>
    </contour>
    <contour>
      <point x="290" y="249" type="move" name="center"/>
    </contour>
    <contour>
      <point x="414" y="624" type="move" name="stroke"/>
    </contour>
    <contour>
      <point x="290" y="740" type="move" name="top"/>
    </contour>
    <contour>
      <point x="555" y="740" type="move" name="topright"/>
    </contour>
  </outline>
</glyph>
<glyph name="e" format="1">
  <advance width="536"/>
  <unicode hex="0065"/>
  <note>
    e
  </note>
  <outline>
    <contour>
      <point x="300" y="-8" type="curve"/>
      <point x="383" y="-8"/>
      <point x="446" y="24"/>
      <point x="492" y="89" type="curve"/>
      <point x="443" y="134" type="line"/>
      <point x="408" y="86"/>
      <point x="358" y="63"/>
      <point x="305" y="63" type="curve"/>
      <point x="194" y="63"/>
      <point x="132" y="123"/>
      <point x="132" y="231" type="curve"/>
      <point x="132" y="258" type="line" smooth="yes"/>
      <point x="132" y="359"/>
      <point x="193" y="444"/>
      <point x="291" y="444" type="curve"/>
      <point x="372" y="444"/>
      <point x="429" y="394"/>
      <point x="419" y="272" type="curve"/>
      <point x="441" y="284" type="line"/>
      <point x="107" y="284" type="line"/>
      <point x="107" y="222" type="line"/>
      <point x="489" y="222" type="line"/>
      <point x="510" y="410"/>
      <point x="428" y="507"/>
      <point x="290" y="507" type="curve"/>
      <point x="154" y="507"/>
      <point x="52" y="397"/>
      <point x="52" y="242" type="curve"/>
      <point x="52" y="85"/>
      <point x="146" y="-8"/>
    </contour>
    <contour>
      <point x="289" y="0" type="move" name="bottom"/>
    </contour>
    <contour>
      <point x="407" y="0" type="move" name="ogonek"/>
    </contour>
    <contour>
      <point x="289" y="498" type="move" name="top"/>
    </contour>
  </outline>
</glyph>
<glyph name="f" format="1">
  <advance width="339"/>
  <unicode hex="0066"/>
  <outline>
    <contour>
      <point x="95" y="542" type="curve"/>
      <point x="95" y="0" type="line"/>
      <point x="173" y="0" type="line"/>
      <point x="173" y="454" type="line"/>
      <point x="172" y="489" type="line"/>
      <point x="172" y="550" type="line" smooth="yes"/>
      <point x="172" y="636"/>
      <point x="213" y="683"/>
      <point x="281" y="683" type="curve"/>
      <point x="334" y="683"/>
      <point x="366" y="658"/>
      <point x="372" y="610" type="curve"/>
      <point x="438" y="618" type="line"/>
      <point x="430" y="702"/>
      <point x="375" y="750"/>
      <point x="282" y="750" type="curve"/>
      <point x="170" y="750"/>
      <point x="95" y="670"/>
    </contour>
    <contour>
      <point x="340" y="498" type="line"/>
      <point x="-4" y="498" type="line"/>
      <point x="-4" y="432" type="line"/>
      <point x="340" y="432" type="line"/>
    </contour>
  </outline>
</glyph>
<glyph name="g" format="1">
  <advance width="583"/>
  <unicode hex="0067"/>
  <note>
    g
  </note>
  <outline>
    <contour>
      <point x="252" y="-210" type="curve"/>
      <point x="421" y="-210"/>
      <point x="509" y="-115"/>
      <point x="509" y="70" type="curve"/>
      <point x="509" y="498" type="line"/>
      <point x="450" y="498" type="line"/>
      <point x="438" y="416" type="line"/>
      <point x="443" y="418" type="line"/>
      <point x="422" y="470"/>
      <point x="366" y="507"/>
      <point x="295" y="507" type="curve"/>
      <point x="151" y="507"/>
      <point x="52" y="391"/>
      <point x="52" y="231" type="curve"/>
      <point x="52" y="96"/>
      <point x="121" y="2"/>
      <point x="249" y="2" type="curve"/>
      <point x="347" y="2"/>
      <point x="420" y="69"/>
      <point x="452" y="174" type="curve"/>
      <point x="435" y="188" type="line"/>
      <point x="432" y="58" type="line" smooth="yes"/>
      <point x="429" y="-79"/>
      <point x="381" y="-139"/>
      <point x="254" y="-139" type="curve"/>
      <point x="205" y="-139"/>
      <point x="152" y="-127"/>
      <point x="108" y="-105" type="curve"/>
      <point x="87" y="-175" type="line"/>
      <point x="130" y="-199"/>
      <point x="195" y="-210"/>
    </contour>
    <contour>
      <point x="297" y="436" type="curve"/>
      <point x="380" y="436"/>
      <point x="432" y="381"/>
      <point x="432" y="289" type="curve"/>
      <point x="432" y="166"/>
      <point x="358" y="73"/>
      <point x="261" y="73" type="curve"/>
      <point x="182" y="73"/>
      <point x="133" y="133"/>
      <point x="133" y="237" type="curve"/>
      <point x="133" y="354"/>
      <point x="198" y="436"/>
    </contour>
    <contour>
      <point x="292" y="-200" type="move" name="bottom"/>
    </contour>
    <contour>
      <point x="310" y="498" type="move" name="top"/>
    </contour>
  </outline>
</glyph>
<glyph name="k" format="1">
  <advance width="468"/>
  <unicode hex="006B"/>
  <note>
    k
  </note>
  <outline>
    <contour>
      <point x="492" y="15" type="curve"/>
      <point x="473" y="74" type="line"/>
      <point x="459" y="66"/>
      <point x="442" y="61"/>
      <point x="425" y="61" type="curve"/>
      <point x="388" y="61"/>
      <point x="363" y="73"/>
      <point x="335" y="113" type="curve"/>
      <point x="263" y="217" type="line" smooth="yes"/>
      <point x="234" y="258"/>
      <point x="203" y="275"/>
      <point x="170" y="275" type="curve"/>
      <point x="200" y="238" type="line"/>
      <point x="463" y="497" type="line"/>
      <point x="365" y="497" type="line"/>
      <point x="139" y="273" type="line"/>
      <point x="111" y="239" type="line"/>
      <point x="142" y="239"/>
      <point x="166" y="225"/>
      <point x="202" y="173" type="curve"/>
      <point x="274" y="70" type="line" smooth="yes"/>
      <point x="311" y="17"/>
      <point x="353" y="-6"/>
      <point x="412" y="-6" type="curve"/>
      <point x="442" y="-6"/>
      <point x="468" y="0"/>
    </contour>
    <contour>
      <point x="74" y="740" type="line"/>
      <point x="74" y="0" type="line"/>
      <point x="152" y="0" type="line"/>
      <point x="152" y="740" type="line"/>
    </contour>
    <contour>
      <point x="268" y="0" type="move" name="bottom"/>
    </contour>
    <contour>
      <point x="241" y="740" type="move" name="top"/>
    </contour>
  </outline>
</glyph>
<glyph name="l" format="1">
  <advance width="268"/>
  <unicode hex="006C"/>
  <note>
    l
  </note>
  <outline>
    <contour>
      <point x="199" y="-8" type="curve"/>
      <point x="230" y="-8"/>
      <point x="263" y="2"/>
      <point x="282" y="17" type="curve"/>
      <point x="261" y="76" type="line"/>
      <point x="250" y="69"/>
      <point x="231" y="62"/>
      <point x="211" y="62" type="curve"/>
      <point x="169" y="62"/>
      <point x="152" y="85"/>
      <point x="152" y="128" type="curve"/>
      <point x="152" y="740" type="line"/>
      <point x="74" y="740" type="line"/>
      <point x="74" y="118" type="line" smooth="yes"/>
      <point x="74" y="42"/>
      <point x="115" y="-8"/>
    </contour>
    <contour>
      <point x="123" y="0" type="move" name="bottom"/>
    </contour>
    <contour>
      <point x="113" y="380" type="move" name="center"/>
    </contour>
    <contour>
      <point x="263" y="410" type="move" name="dotacc"/>
    </contour>
    <contour>
      <point x="113" y="710" type="move" name="top"/>
    </contour>
    <contour>
      <point x="202" y="740" type="move" name="topright"/>
    </contour>
  </outline>
</glyph>
<glyph name="m" format="1">
  <advance width="913"/>
  <unicode hex="006D"/>
  <note>
    m
  </note>
  <outline>
    <contour>
      <point x="74" y="498" type="line"/>
      <point x="74" y="0" type="line"/>
      <point x="151" y="0" type="line"/>
      <point x="152" y="338"/>
      <point x="234" y="434"/>
      <point x="323" y="434" type="curve"/>
      <point x="391" y="434"/>
      <point x="420" y="385"/>
      <point x="420" y="290" type="curve"/>
      <point x="420" y="0" type="line"/>
      <point x="497" y="0" type="line"/>
      <point x="498" y="338"/>
      <point x="579" y="434"/>
      <point x="668" y="434" type="curve"/>
      <point x="736" y="434"/>
      <point x="768" y="385"/>
      <point x="767" y="290" type="curve"/>
      <point x="765" y="0" type="line"/>
      <point x="843" y="0" type="line"/>
      <point x="845" y="299" type="line" smooth="yes"/>
      <point x="846" y="433"/>
      <point x="790" y="507"/>
      <point x="687" y="507" type="curve"/>
      <point x="592" y="507"/>
      <point x="504" y="435"/>
      <point x="477" y="294" type="curve"/>
      <point x="497" y="318" type="line"/>
      <point x="492" y="443"/>
      <point x="434" y="507"/>
      <point x="339" y="507" type="curve"/>
      <point x="245" y="507"/>
      <point x="164" y="435"/>
      <point x="134" y="282" type="curve"/>
      <point x="145" y="290" type="line"/>
      <point x="153" y="498" type="line"/>
    </contour>
    <contour>
      <point x="459" y="0" type="move" name="bottom"/>
    </contour>
    <contour>
      <point x="459" y="498" type="move" name="top"/>
    </contour>
  </outline>
</glyph>
<glyph name="n" format="1">
  <advance width="574"/>
  <unicode hex="006E"/>
  <note>
    n
  </note>
  <outline>
    <contour>
      <point x="74" y="498" type="line"/>
      <point x="74" y="0" type="line"/>
      <point x="151" y="0" type="line"/>
      <point x="152" y="328"/>
      <point x="226" y="434"/>
      <point x="328" y="434" type="curve"/>
      <point x="398" y="434"/>
      <point x="429" y="385"/>
      <point x="428" y="290" type="curve"/>
      <point x="426" y="0" type="line"/>
      <point x="504" y="0" type="line"/>
      <point x="506" y="299" type="line" smooth="yes"/>
      <point x="507" y="433"/>
      <point x="450" y="507"/>
      <point x="347" y="507" type="curve"/>
      <point x="239" y="507"/>
      <point x="161" y="426"/>
      <point x="134" y="282" type="curve"/>
      <point x="145" y="290" type="line"/>
      <point x="153" y="498" type="line"/>
    </contour>
    <contour>
      <point x="289" y="0" type="move" name="bottom"/>
    </contour>
    <contour>
      <point x="288" y="498" type="move" name="top"/>
    </contour>
  </outline>
</glyph>
<glyph name="o" format="1">
  <advance width="569"/>
  <unicode hex="006F"/>
  <note>
    o
  </note>
  <outline>
    <contour>
      <point x="293" y="507" type="curve"/>
      <point x="147" y="507"/>
      <point x="52" y="392"/>
      <point x="52" y="240" type="curve"/>
      <point x="52" y="87"/>
      <point x="137" y="-8"/>
      <point x="279" y="-8" type="curve"/>
      <point x="421" y="-8"/>
      <point x="517" y="107"/>
      <point x="517" y="259" type="curve"/>
      <point x="517" y="412"/>
      <point x="432" y="507"/>
    </contour>
    <contour>
      <point x="279" y="63" type="curve"/>
      <point x="187" y="63"/>
      <point x="133" y="126"/>
      <point x="133" y="240" type="curve"/>
      <point x="133" y="356"/>
      <point x="196" y="436"/>
      <point x="294" y="436" type="curve"/>
      <point x="382" y="436"/>
      <point x="436" y="373"/>
      <point x="436" y="259" type="curve"/>
      <point x="436" y="142"/>
      <point x="373" y="63"/>
    </contour>
    <contour>
      <point x="285" y="0" type="move" name="bottom"/>
    </contour>
    <contour>
      <point x="285" y="249" type="move" name="center"/>
    </contour>
    <contour>
      <point x="362" y="0" type="move" name="ogonek"/>
    </contour>
    <contour>
      <point x="285" y="498" type="move" name="top"/>
    </contour>
    <contour>
      <point x="419" y="498" type="move" name="topright"/>
    </contour>
  </outline>
</glyph>
<glyph name="q" format="1">
  <advance width="579"/>
  <unicode hex="0071"/>
  <note>
    q
  </note>
  <outline>
    <contour>
      <point x="505" y="-200" type="line"/>
      <point x="505" y="498" type="line"/>
      <point x="446" y="498" type="line"/>
      <point x="434" y="416" type="line"/>
      <point x="439" y="418" type="line"/>
      <point x="418" y="470"/>
      <point x="362" y="507"/>
      <point x="293" y="507" type="curve"/>
      <point x="150" y="507"/>
      <point x="52" y="391"/>
      <point x="52" y="225" type="curve"/>
      <point x="52" y="88"/>
      <point x="122" y="-8"/>
      <point x="248" y="-8" type="curve"/>
      <point x="344" y="-8"/>
      <point x="418" y="60"/>
      <point x="448" y="164" type="curve"/>
      <point x="432" y="178" type="line"/>
      <point x="427" y="0" type="line"/>
      <point x="427" y="-200" type="line"/>
    </contour>
    <contour>
      <point x="295" y="436" type="curve"/>
      <point x="377" y="436"/>
      <point x="428" y="379"/>
      <point x="428" y="284" type="curve"/>
      <point x="428" y="155"/>
      <point x="356" y="63"/>
      <point x="259" y="63" type="curve"/>
      <point x="181" y="63"/>
      <point x="133" y="126"/>
      <point x="133" y="231" type="curve"/>
      <point x="133" y="355"/>
      <point x="197" y="436"/>
    </contour>
    <contour>
      <point x="250" y="0" type="move" name="bottom"/>
    </contour>
    <contour>
      <point x="310" y="498" type="move" name="top"/>
    </contour>
  </outline>
</glyph>
<glyph name="r" format="1">
  <advance width="364"/>
  <unicode hex="0072"/>
  <note>
    r
  </note>
  <outline>
    <contour>
      <point x="361" y="424" type="curve"/>
      <point x="372" y="500" type="line"/>
      <point x="361" y="505"/>
      <point x="343" y="507"/>
      <point x="322" y="507" type="curve"/>
      <point x="240" y="507"/>
      <point x="163" y="444"/>
      <point x="137" y="274" type="curve"/>
      <point x="146" y="290" type="line"/>
      <point x="152" y="498" type="line"/>
      <point x="74" y="498" type="line"/>
      <point x="75" y="320" type="line"/>
      <point x="75" y="0" type="line"/>
      <point x="152" y="0" type="line"/>
      <point x="152" y="302"/>
      <point x="202" y="429"/>
      <point x="318" y="429" type="curve"/>
      <point x="335" y="429"/>
      <point x="347" y="428"/>
    </contour>
    <contour>
      <point x="114" y="0" type="move" name="bottom"/>
    </contour>
    <contour>
      <point x="223" y="498" type="move" name="top"/>
    </contour>
  </outline>
</glyph>
<glyph name="s" format="1">
  <advance width="454"/>
  <unicode hex="0073"/>
  <note>
    s
  </note>
  <outline>
    <contour>
      <point x="236" y="-8" type="curve"/>
      <point x="347" y="-8"/>
      <point x="423" y="55"/>
      <point x="422" y="140" type="curve"/>
      <point x="420" y="322"/>
      <point x="136" y="233"/>
      <point x="136" y="358" type="curve"/>
      <point x="136" y="406"/>
      <point x="176" y="439"/>
      <point x="239" y="439" type="curve"/>
      <point x="299" y="439"/>
      <point x="334" y="411"/>
      <point x="344" y="362" type="curve"/>
      <point x="411" y="379" type="line"/>
      <point x="398" y="458"/>
      <point x="334" y="506"/>
      <point x="240" y="506" type="curve"/>
      <point x="136" y="506"/>
      <point x="59" y="441"/>
      <point x="59" y="355" type="curve"/>
      <point x="59" y="161"/>
      <point x="345" y="250"/>
      <point x="345" y="134" type="curve"/>
      <point x="345" y="90"/>
      <point x="307" y="59"/>
      <point x="236" y="59" type="curve"/>
      <point x="150" y="59"/>
      <point x="108" y="91"/>
      <point x="99" y="156" type="curve"/>
      <point x="31" y="140" type="line"/>
      <point x="41" y="45"/>
      <point x="110" y="-8"/>
    </contour>
    <contour>
      <point x="235" y="0" type="move" name="bottom"/>
    </contour>
    <contour>
      <point x="235" y="498" type="move" name="top"/>
    </contour>
  </outline>
</glyph>
<glyph name="t" format="1">
  <advance width="372"/>
  <unicode hex="0074"/>
  <outline>
    <contour>
      <point x="268" y="-8" type="curve"/>
      <point x="310" y="-8"/>
      <point x="353" y="3"/>
      <point x="382" y="28" type="curve"/>
      <point x="357" y="90" type="line"/>
      <point x="327" y="68"/>
      <point x="303" y="62"/>
      <point x="272" y="62" type="curve"/>
      <point x="204" y="62"/>
      <point x="172" y="103"/>
      <point x="173" y="166" type="curve"/>
      <point x="178" y="602" type="line"/>
      <point x="100" y="602" type="line"/>
      <point x="94" y="160" type="line" smooth="yes"/>
      <point x="93" y="58"/>
      <point x="152" y="-8"/>
    </contour>
    <contour>
      <point x="10" y="498" type="line"/>
      <point x="10" y="432" type="line"/>
      <point x="349" y="432" type="line"/>
      <point x="349" y="498" type="line"/>
    </contour>
    <contour>
      <point x="238" y="0" type="move" name="bottom"/>
    </contour>
    <contour>
      <point x="184" y="275" type="move" name="stroke"/>
    </contour>
    <contour>
      <point x="139" y="602" type="move" name="top"/>
    </contour>
    <contour>
      <point x="228" y="740" type="move" name="topright"/>
    </contour>
  </outline>
</glyph>
<glyph name="u" format="1">
  <advance width="564"/>
  <unicode hex="0075"/>
  <note>
    u
  </note>
  <outline>
    <contour>
      <point x="224" y="-8" type="curve"/>
      <point x="329" y="-8"/>
      <point x="412" y="73"/>
      <point x="438" y="247" type="curve"/>
      <point x="422" y="238" type="line"/>
      <point x="413" y="0" type="line"/>
      <point x="490" y="0" type="line"/>
      <point x="490" y="498" type="line"/>
      <point x="415" y="498" type="line"/>
      <point x="414" y="171"/>
      <point x="342" y="65"/>
      <point x="243" y="65" type="curve"/>
      <point x="175" y="65"/>
      <point x="145" y="114"/>
      <point x="146" y="199" type="curve"/>
      <point x="149" y="498" type="line"/>
      <point x="71" y="498" type="line"/>
      <point x="68" y="190" type="line" smooth="yes"/>
      <point x="67" y="66"/>
      <point x="123" y="-8"/>
    </contour>
    <contour>
      <point x="282" y="0" type="move" name="bottom"/>
    </contour>
    <contour>
      <point x="490" y="0" type="move" name="ogonek"/>
    </contour>
    <contour>
      <point x="282" y="498" type="move" name="top"/>
    </contour>
    <contour>
      <point x="456" y="498" type="move" name="topright"/>
    </contour>
  </outline>
</glyph>
<glyph name="v" format="1">
  <advance width="494"/>
  <unicode hex="0076"/>
  <outline>
    <contour>
      <point x="495" y="498" type="line"/>
      <point x="417" y="498" type="line"/>
      <point x="236" y="24" type="line"/>
      <point x="263" y="23" type="line"/>
      <point x="115" y="498" type="line"/>
      <point x="31" y="498" type="line"/>
      <point x="192" y="0" type="line"/>
      <point x="301" y="0" type="line"/>
    </contour>
    <contour>
      <point x="247" y="0" type="move" name="bottom"/>
    </contour>
    <contour>
      <point x="266" y="498" type="move" name="top"/>
    </contour>
  </outline>
</glyph>
<glyph name="w" format="1">
  <advance width="839"/>
  <unicode hex="0077"/>
  <outline>
    <contour>
      <point x="834" y="497" type="line"/>
      <point x="755" y="497" type="line"/>
      <point x="584" y="24" type="line"/>
      <point x="621" y="23" type="line"/>
      <point x="477" y="497" type="line"/>
      <point x="395" y="497" type="line"/>
      <point x="220" y="24" type="line"/>
      <point x="259" y="23" type="line"/>
      <point x="117" y="497" type="line"/>
      <point x="35" y="497" type="line"/>
      <point x="192" y="0" type="line"/>
      <point x="284" y="0" type="line"/>
      <point x="445" y="427" type="line"/>
      <point x="424" y="427" type="line"/>
      <point x="557" y="0" type="line"/>
      <point x="649" y="0" type="line"/>
    </contour>
    <contour>
      <point x="421" y="0" type="move" name="bottom"/>
    </contour>
    <contour>
      <point x="436" y="498" type="move" name="top"/>
    </contour>
  </outline>
</glyph>
<glyph name="x" format="1">
  <advance width="479"/>
  <unicode hex="0078"/>
  <outline>
    <contour>
      <point x="237" y="190" type="line"/>
      <point x="372" y="0" type="line"/>
      <point x="467" y="0" type="line"/>
      <point x="285" y="255" type="line"/>
      <point x="241" y="317" type="line"/>
      <point x="112" y="498" type="line"/>
      <point x="17" y="498" type="line"/>
      <point x="193" y="251" type="line"/>
    </contour>
    <contour>
      <point x="9" y="0" type="line"/>
      <point x="99" y="0" type="line"/>
      <point x="237" y="190" type="line"/>
      <point x="285" y="255" type="line"/>
      <point x="462" y="498" type="line"/>
      <point x="372" y="498" type="line"/>
      <point x="241" y="317" type="line"/>
      <point x="193" y="251" type="line"/>
    </contour>
    <contour>
      <point x="239" y="0" type="move" name="bottom"/>
    </contour>
    <contour>
      <point x="239" y="498" type="move" name="top"/>
    </contour>
  </outline>
</glyph>
<glyph name="y" format="1">
  <advance width="569"/>
  <unicode hex="0079"/>
  <outline>
    <contour>
      <point x="241" y="-210" type="curve"/>
      <point x="410" y="-210"/>
      <point x="495" y="-117"/>
      <point x="495" y="69" type="curve"/>
      <point x="495" y="498" type="line"/>
      <point x="420" y="498" type="line"/>
      <point x="419" y="181"/>
      <point x="347" y="75"/>
      <point x="244" y="75" type="curve"/>
      <point x="175" y="75"/>
      <point x="145" y="124"/>
      <point x="146" y="209" type="curve"/>
      <point x="149" y="498" type="line"/>
      <point x="71" y="498" type="line"/>
      <point x="68" y="200" type="line" smooth="yes"/>
      <point x="67" y="76"/>
      <point x="123" y="2"/>
      <point x="225" y="2" type="curve"/>
      <point x="334" y="2"/>
      <point x="417" y="83"/>
      <point x="443" y="257" type="curve"/>
      <point x="425" y="218" type="line"/>
      <point x="421" y="58" type="line" smooth="yes"/>
      <point x="418" y="-80"/>
      <point x="370" y="-139"/>
      <point x="243" y="-139" type="curve"/>
      <point x="194" y="-139"/>
      <point x="141" y="-127"/>
      <point x="97" y="-105" type="curve"/>
      <point x="76" y="-175" type="line"/>
      <point x="119" y="-199"/>
      <point x="184" y="-210"/>
    </contour>
    <contour>
      <point x="531" y="0" type="move" name="bottom"/>
    </contour>
    <contour>
      <point x="285" y="498" type="move" name="top"/>
    </contour>
  </outline>
</glyph>
<glyph name="z" format="1">
  <advance width="454"/>
  <unicode hex="007A"/>
  <outline>
    <contour>
      <point x="38" y="55" type="line"/>
      <point x="38" y="0" type="line"/>
      <point x="413" y="0" type="line"/>
      <point x="413" y="66" type="line"/>
      <point x="106" y="66" type="line"/>
      <point x="107" y="27" type="line"/>
      <point x="415" y="443" type="line"/>
      <point x="415" y="498" type="line"/>
      <point x="50" y="498" type="line"/>
      <point x="50" y="432" type="line"/>
      <point x="350" y="432" type="line"/>
      <point x="346" y="471" type="line"/>
    </contour>
    <contour>
      <point x="233" y="0" type="move" name="bottom"/>
    </contour>
    <contour>
      <point x="224" y="249" type="move" name="center"/>
    </contour>
    <contour>
      <point x="233" y="498" type="move" name="top"/>
    </contour>
  </outline>
</glyph>
<glyph name="braceleft" format="1">
  <advance width="342"/>
  <unicode hex="007B"/>
  <outline>
    <contour>
      <point x="193" y="-62" type="curve"/>
      <point x="193" y="13"/>
      <point x="246" y="76"/>
      <point x="246" y="146" type="curve"/>
      <point x="246" y="221"/>
      <point x="187" y="266"/>
      <point x="108" y="275" type="curve"/>
      <point x="108" y="267" type="line"/>
      <point x="187" y="276"/>
      <point x="246" y="321"/>
      <point x="246" y="396" type="curve"/>
      <point x="246" y="466"/>
      <point x="193" y="529"/>
      <point x="193" y="604" type="curve"/>
      <point x="193" y="661"/>
      <point x="234" y="695"/>
      <point x="295" y="698" type="curve"/>
      <point x="285" y="748" type="line"/>
      <point x="186" y="741"/>
      <point x="112" y="690"/>
      <point x="112" y="595" type="curve"/>
      <point x="112" y="526"/>
      <point x="165" y="441"/>
      <point x="165" y="387" type="curve"/>
      <point x="165" y="337"/>
      <point x="130" y="301"/>
      <point x="52" y="301" type="curve"/>
      <point x="52" y="241" type="line"/>
      <point x="130" y="241"/>
      <point x="165" y="205"/>
      <point x="165" y="155" type="curve"/>
      <point x="165" y="101"/>
      <point x="112" y="16"/>
      <point x="112" y="-53" type="curve"/>
      <point x="112" y="-148"/>
      <point x="186" y="-199"/>
      <point x="285" y="-206" type="curve"/>
      <point x="295" y="-156" type="line"/>
      <point x="234" y="-153"/>
      <point x="193" y="-119"/>
    </contour>
  </outline>
</glyph>
<glyph name="braceright" format="1">
  <advance width="342"/>
  <unicode hex="007D"/>
  <outline>
    <contour>
      <point x="149" y="-62" type="curve"/>
      <point x="149" y="-119"/>
      <point x="108" y="-153"/>
      <point x="47" y="-156" type="curve"/>
      <point x="57" y="-206" type="line"/>
      <point x="156" y="-199"/>
      <point x="230" y="-148"/>
      <point x="230" y="-53" type="curve"/>
      <point x="230" y="16"/>
      <point x="177" y="101"/>
      <point x="177" y="155" type="curve"/>
      <point x="177" y="205"/>
      <point x="212" y="241"/>
      <point x="290" y="241" type="curve"/>
      <point x="290" y="301" type="line"/>
      <point x="212" y="301"/>
      <point x="177" y="337"/>
      <point x="177" y="387" type="curve"/>
      <point x="177" y="441"/>
      <point x="230" y="526"/>
      <point x="230" y="595" type="curve"/>
      <point x="230" y="690"/>
      <point x="156" y="741"/>
      <point x="57" y="748" type="curve"/>
      <point x="47" y="698" type="line"/>
      <point x="108" y="695"/>
      <point x="149" y="661"/>
      <point x="149" y="604" type="curve"/>
      <point x="149" y="529"/>
      <point x="96" y="466"/>
      <point x="96" y="396" type="curve"/>
      <point x="96" y="321"/>
      <point x="155" y="276"/>
      <point x="234" y="267" type="curve"/>
      <point x="234" y="275" type="line"/>
      <point x="155" y="266"/>
      <point x="96" y="221"/>
      <point x="96" y="146" type="curve"/>
      <point x="96" y="76"/>
      <point x="149" y="13"/>
    </contour>
  </outline>
</glyph>
<glyph name="asciitilde" format="1">
  <advance width="600"/>
  <unicode hex="007E"/>
  <outline>
    <contour>
      <point x="407" y="187" type="curve"/>
      <point x="466" y="187"/>
      <point x="510" y="221"/>
      <point x="537" y="275" type="curve"/>
      <point x="494" y="313" type="line"/>
      <point x="475" y="278"/>
      <point x="449" y="259"/>
      <point x="411" y="259" type="curve"/>
      <point x="358" y="259"/>
      <point x="244" y="312"/>
      <point x="193" y="312" type="curve"/>
      <point x="134" y="312"/>
      <point x="90" y="278"/>
      <point x="63" y="224" type="curve"/>
      <point x="106" y="186" type="line"/>
      <point x="125" y="221"/>
      <point x="151" y="240"/>
      <point x="189" y="240" type="curve"/>
      <point x="242" y="240"/>
      <point x="356" y="187"/>
    </contour>
  </outline>
</glyph>
<glyph name="exclamdown" format="1">
  <advance width="195"/>
  <unicode hex="00A1"/>
  <outline>
    <contour>
      <point x="72" y="322" type="line"/>
      <point x="46" y="-200" type="line"/>
      <point x="134" y="-200" type="line"/>
      <point x="124" y="322" type="line"/>
    </contour>
    <contour>
      <point x="97" y="399" type="curve"/>
      <point x="129" y="399"/>
      <point x="152" y="422"/>
      <point x="152" y="452" type="curve"/>
      <point x="152" y="483"/>
      <point x="129" y="506"/>
      <point x="97" y="506" type="curve"/>
      <point x="66" y="506"/>
      <point x="43" y="483"/>
      <point x="43" y="452" type="curve"/>
      <point x="43" y="421"/>
      <point x="66" y="399"/>
    </contour>
  </outline>
</glyph>
<glyph name="cent" format="1">
  <advance width="600"/>
  <unicode hex="00A2"/>
  <outline>
    <contour>
      <point x="325" y="-8" type="curve"/>
      <point x="409" y="-8"/>
      <point x="473" y="24"/>
      <point x="514" y="89" type="curve"/>
      <point x="457" y="134" type="line"/>
      <point x="427" y="86"/>
      <point x="381" y="64"/>
      <point x="328" y="64" type="curve"/>
      <point x="227" y="64"/>
      <point x="172" y="126"/>
      <point x="172" y="240" type="curve"/>
      <point x="172" y="358"/>
      <point x="237" y="435"/>
      <point x="335" y="435" type="curve"/>
      <point x="389" y="435"/>
      <point x="428" y="413"/>
      <point x="455" y="365" type="curve"/>
      <point x="514" y="410" type="line"/>
      <point x="476" y="475"/>
      <point x="418" y="507"/>
      <point x="337" y="507" type="curve"/>
      <point x="190" y="507"/>
      <point x="90" y="399"/>
      <point x="90" y="240" type="curve"/>
      <point x="90" y="84"/>
      <point x="178" y="-8"/>
    </contour>
    <contour>
      <point x="349" y="-120" type="line"/>
      <point x="349" y="30" type="line"/>
      <point x="291" y="30" type="line"/>
      <point x="291" y="-120" type="line"/>
    </contour>
    <contour>
      <point x="291" y="618" type="line"/>
      <point x="291" y="468" type="line"/>
      <point x="349" y="468" type="line"/>
      <point x="349" y="618" type="line"/>
    </contour>
  </outline>
</glyph>
<glyph name="currency" format="1">
  <advance width="600"/>
  <unicode hex="00A4"/>
  <outline>
    <contour>
      <point x="300" y="99" type="curve"/>
      <point x="434" y="99"/>
      <point x="543" y="211"/>
      <point x="543" y="349" type="curve"/>
      <point x="543" y="488"/>
      <point x="434" y="600"/>
      <point x="300" y="600" type="curve"/>
      <point x="166" y="600"/>
      <point x="57" y="488"/>
      <point x="57" y="349" type="curve"/>
      <point x="57" y="211"/>
      <point x="166" y="99"/>
    </contour>
    <contour>
      <point x="55" y="139" type="line"/>
      <point x="96" y="97" type="line"/>
      <point x="175" y="179" type="line"/>
      <point x="137" y="224" type="line"/>
    </contour>
    <contour>
      <point x="422" y="181" type="line"/>
      <point x="503" y="98" type="line"/>
      <point x="545" y="139" type="line"/>
      <point x="464" y="222" type="line"/>
    </contour>
    <contour>
      <point x="301" y="162" type="curve"/>
      <point x="201" y="162"/>
      <point x="122" y="245"/>
      <point x="122" y="349" type="curve"/>
      <point x="122" y="454"/>
      <point x="202" y="537"/>
      <point x="301" y="537" type="curve"/>
      <point x="398" y="537"/>
      <point x="478" y="454"/>
      <point x="478" y="349" type="curve"/>
      <point x="478" y="245"/>
      <point x="398" y="162"/>
    </contour>
    <contour>
      <point x="55" y="560" type="line"/>
      <point x="132" y="480" type="line"/>
      <point x="172" y="522" type="line"/>
      <point x="96" y="602" type="line"/>
    </contour>
    <contour>
      <point x="428" y="525" type="line"/>
      <point x="470" y="482" type="line"/>
      <point x="545" y="560" type="line"/>
      <point x="503" y="602" type="line"/>
    </contour>
  </outline>
</glyph>
<glyph name="yen" format="1">
  <advance width="600"/>
  <unicode hex="00A5"/>
  <outline>
    <contour>
      <point x="310" y="286" type="line"/>
      <point x="588" y="710" type="line"/>
      <point x="501" y="710" type="line"/>
      <point x="279" y="368" type="line"/>
      <point x="329" y="371" type="line"/>
      <point x="105" y="710" type="line"/>
      <point x="12" y="710" type="line"/>
      <point x="295" y="282" type="line"/>
      <point x="260" y="365" type="line"/>
      <point x="260" y="0" type="line"/>
      <point x="343" y="0" type="line"/>
      <point x="343" y="369" type="line"/>
    </contour>
    <contour>
      <point x="88" y="218" type="line"/>
      <point x="88" y="162" type="line"/>
      <point x="512" y="162" type="line"/>
      <point x="512" y="218" type="line"/>
    </contour>
    <contour>
      <point x="88" y="368" type="line"/>
      <point x="88" y="312" type="line"/>
      <point x="512" y="312" type="line"/>
      <point x="512" y="368" type="line"/>
    </contour>
  </outline>
</glyph>
<glyph name="section" format="1">
  <advance width="501"/>
  <unicode hex="00A7"/>
  <outline>
    <contour>
      <point x="278" y="273" type="curve"/>
      <point x="278" y="226" type="line"/>
      <point x="369" y="226"/>
      <point x="444" y="276"/>
      <point x="444" y="355" type="curve"/>
      <point x="444" y="525"/>
      <point x="154" y="450"/>
      <point x="154" y="572" type="curve"/>
      <point x="154" y="620"/>
      <point x="194" y="653"/>
      <point x="259" y="653" type="curve"/>
      <point x="321" y="653"/>
      <point x="356" y="625"/>
      <point x="366" y="576" type="curve"/>
      <point x="433" y="593" type="line"/>
      <point x="420" y="672"/>
      <point x="356" y="720"/>
      <point x="260" y="720" type="curve"/>
      <point x="154" y="720"/>
      <point x="77" y="655"/>
      <point x="77" y="569" type="curve"/>
      <point x="77" y="375"/>
      <point x="367" y="461"/>
      <point x="367" y="342" type="curve"/>
      <point x="367" y="301"/>
      <point x="329" y="273"/>
    </contour>
    <contour>
      <point x="223" y="437" type="curve"/>
      <point x="223" y="484" type="line"/>
      <point x="132" y="484"/>
      <point x="57" y="435"/>
      <point x="57" y="356" type="curve"/>
      <point x="57" y="186"/>
      <point x="347" y="260"/>
      <point x="347" y="138" type="curve"/>
      <point x="347" y="90"/>
      <point x="307" y="57"/>
      <point x="242" y="57" type="curve"/>
      <point x="180" y="57"/>
      <point x="145" y="85"/>
      <point x="135" y="134" type="curve"/>
      <point x="68" y="117" type="line"/>
      <point x="81" y="38"/>
      <point x="145" y="-10"/>
      <point x="241" y="-10" type="curve"/>
      <point x="347" y="-10"/>
      <point x="424" y="55"/>
      <point x="424" y="141" type="curve"/>
      <point x="424" y="335"/>
      <point x="134" y="250"/>
      <point x="134" y="369" type="curve"/>
      <point x="134" y="410"/>
      <point x="172" y="437"/>
    </contour>
  </outline>
</glyph>
<glyph name="logicalnot" format="1">
  <advance width="600"/>
  <unicode hex="00AC"/>
  <outline>
    <contour>
      <point x="535" y="285" type="line"/>
      <point x="65" y="285" type="line"/>
      <point x="65" y="213" type="line"/>
      <point x="461" y="213" type="line"/>
      <point x="461" y="0" type="line"/>
      <point x="535" y="0" type="line"/>
    </contour>
  </outline>
</glyph>
<glyph name="degree" format="1">
  <advance width="367"/>
  <unicode hex="00B0"/>
  <outline>
    <contour>
      <point x="184" y="428" type="curve"/>
      <point x="265" y="428"/>
      <point x="327" y="490"/>
      <point x="327" y="573" type="curve"/>
      <point x="327" y="655"/>
      <point x="265" y="717"/>
      <point x="184" y="717" type="curve"/>
      <point x="103" y="717"/>
      <point x="40" y="655"/>
      <point x="40" y="573" type="curve"/>
      <point x="40" y="490"/>
      <point x="103" y="428"/>
    </contour>
    <contour>
      <point x="184" y="478" type="curve"/>
      <point x="130" y="478"/>
      <point x="93" y="517"/>
      <point x="93" y="573" type="curve"/>
      <point x="93" y="628"/>
      <point x="130" y="668"/>
      <point x="184" y="668" type="curve"/>
      <point x="237" y="668"/>
      <point x="275" y="628"/>
      <point x="275" y="573" type="curve"/>
      <point x="275" y="517"/>
      <point x="237" y="478"/>
    </contour>
  </outline>
</glyph>
<glyph name="plusminus" format="1">
  <advance width="600"/>
  <unicode hex="00B1"/>
  <outline>
    <contour>
      <point x="65" y="67" type="line"/>
      <point x="65" y="0" type="line"/>
      <point x="535" y="0" type="line"/>
      <point x="535" y="67" type="line"/>
    </contour>
    <contour>
      <point x="495" y="281" type="line"/>
      <point x="495" y="348" type="line"/>
      <point x="105" y="348" type="line"/>
      <point x="105" y="281" type="line"/>
    </contour>
    <contour>
      <point x="335" y="498" type="line"/>
      <point x="265" y="498" type="line"/>
      <point x="265" y="130" type="line"/>
      <point x="335" y="130" type="line"/>
    </contour>
  </outline>
</glyph>
<glyph name="uni00B5" format="1">
  <advance width="564"/>
  <unicode hex="00B5"/>
  <outline>
    <contour>
      <point x="488" y="498" type="line"/>
      <point x="413" y="498" type="line"/>
      <point x="412" y="171"/>
      <point x="340" y="65"/>
      <point x="241" y="65" type="curve"/>
      <point x="173" y="65"/>
      <point x="143" y="110"/>
      <point x="144" y="199" type="curve"/>
      <point x="147" y="498" type="line"/>
      <point x="68" y="498" type="line"/>
      <point x="68" y="-200" type="line"/>
      <point x="144" y="-200" type="line"/>
      <point x="141" y="59" type="line"/>
      <point x="124" y="62" type="line"/>
      <point x="147" y="7"/>
      <point x="183" y="-8"/>
      <point x="237" y="-8" type="curve"/>
      <point x="327" y="-8"/>
      <point x="404" y="73"/>
      <point x="430" y="225" type="curve"/>
      <point x="420" y="208" type="line"/>
      <point x="412" y="0" type="line"/>
      <point x="488" y="0" type="line"/>
    </contour>
  </outline>
</glyph>
<glyph name="paragraph" format="1">
  <advance width="632"/>
  <unicode hex="00B6"/>
  <outline>
    <contour>
      <point x="25" y="499" type="curve"/>
      <point x="25" y="367"/>
      <point x="119" y="285"/>
      <point x="291" y="285" type="curve"/>
      <point x="352" y="285" type="line"/>
      <point x="317" y="330" type="line"/>
      <point x="317" y="0" type="line"/>
      <point x="398" y="0" type="line"/>
      <point x="398" y="711" type="line"/>
      <point x="301" y="711" type="line" smooth="yes"/>
      <point x="119" y="711"/>
      <point x="25" y="631"/>
    </contour>
    <contour>
      <point x="551" y="710" type="line"/>
      <point x="470" y="710" type="line"/>
      <point x="470" y="0" type="line"/>
      <point x="551" y="0" type="line"/>
    </contour>
  </outline>
</glyph>
<glyph name="questiondown" format="1">
  <advance width="511"/>
  <unicode hex="00BF"/>
  <outline>
    <contour>
      <point x="309" y="506" type="curve"/>
      <point x="277" y="506"/>
      <point x="254" y="483"/>
      <point x="254" y="453" type="curve"/>
      <point x="254" y="422"/>
      <point x="277" y="399"/>
      <point x="309" y="399" type="curve"/>
      <point x="340" y="399"/>
      <point x="363" y="422"/>
      <point x="363" y="453" type="curve"/>
      <point x="363" y="484"/>
      <point x="340" y="506"/>
    </contour>
    <contour>
      <point x="336" y="322" type="curve"/>
      <point x="277" y="325" type="line"/>
      <point x="274" y="256"/>
      <point x="248" y="210"/>
      <point x="184" y="158" type="curve"/>
      <point x="96" y="86"/>
      <point x="62" y="35"/>
      <point x="62" y="-41" type="curve"/>
      <point x="62" y="-145"/>
      <point x="146" y="-212"/>
      <point x="264" y="-212" type="curve"/>
      <point x="377" y="-212"/>
      <point x="465" y="-146"/>
      <point x="498" y="-37" type="curve"/>
      <point x="436" y="-7" type="line"/>
      <point x="407" y="-96"/>
      <point x="351" y="-139"/>
      <point x="269" y="-139" type="curve"/>
      <point x="193" y="-139"/>
      <point x="143" y="-103"/>
      <point x="143" y="-36" type="curve"/>
      <point x="143" y="16"/>
      <point x="163" y="47"/>
      <point x="237" y="111" type="curve"/>
      <point x="312" y="175"/>
      <point x="339" y="231"/>
    </contour>
  </outline>
</glyph>
<glyph name="AE" format="1">
  <advance width="899"/>
  <unicode hex="00C6"/>
  <outline>
    <contour>
      <point x="306" y="710" type="line"/>
      <point x="10" y="0" type="line"/>
      <point x="94" y="0" type="line"/>
      <point x="365" y="669" type="line"/>
      <point x="334" y="639" type="line"/>
      <point x="476" y="639" type="line"/>
      <point x="476" y="710" type="line"/>
    </contour>
    <contour>
      <point x="166" y="257" type="line"/>
      <point x="140" y="187" type="line"/>
      <point x="476" y="187" type="line"/>
      <point x="476" y="257" type="line"/>
    </contour>
    <contour>
      <point x="527" y="639" type="line"/>
      <point x="852" y="639" type="line"/>
      <point x="852" y="710" type="line"/>
      <point x="446" y="710" type="line"/>
      <point x="446" y="0" type="line"/>
      <point x="859" y="0" type="line"/>
      <point x="866" y="71" type="line"/>
      <point x="527" y="71" type="line"/>
      <point x="527" y="325" type="line"/>
      <point x="842" y="325" type="line"/>
      <point x="842" y="396" type="line"/>
      <point x="527" y="396" type="line"/>
    </contour>
    <contour>
      <point x="487" y="0" type="move" name="bottom"/>
    </contour>
    <contour>
      <point x="487" y="710" type="move" name="top"/>
    </contour>
  </outline>
</glyph>
<glyph name="multiply" format="1">
  <advance width="600"/>
  <unicode hex="00D7"/>
  <outline>
    <contour>
      <point x="441" y="57" type="line"/>
      <point x="492" y="108" type="line"/>
      <point x="159" y="441" type="line"/>
      <point x="108" y="390" type="line"/>
    </contour>
    <contour>
      <point x="492" y="390" type="line"/>
      <point x="441" y="441" type="line"/>
      <point x="108" y="108" type="line"/>
      <point x="159" y="57" type="line"/>
    </contour>
  </outline>
</glyph>
<glyph name="Thorn" format="1">
  <advance width="607"/>
  <unicode hex="00DE"/>
  <outline>
    <contour>
      <point x="313" y="593" type="curve"/>
      <point x="145" y="593" type="line"/>
      <point x="145" y="525" type="line"/>
      <point x="305" y="525" type="line" smooth="yes"/>
      <point x="435" y="525"/>
      <point x="494" y="480"/>
      <point x="494" y="384" type="curve"/>
      <point x="494" y="287"/>
      <point x="437" y="236"/>
      <point x="291" y="236" type="curve"/>
      <point x="145" y="236" type="line"/>
      <point x="145" y="167" type="line"/>
      <point x="286" y="167" type="line" smooth="yes"/>
      <point x="484" y="167"/>
      <point x="576" y="249"/>
      <point x="576" y="384" type="curve"/>
      <point x="576" y="520"/>
      <point x="479" y="593"/>
    </contour>
    <contour>
      <point x="162" y="0" type="line"/>
      <point x="162" y="710" type="line"/>
      <point x="81" y="711" type="line"/>
      <point x="81" y="0" type="line"/>
    </contour>
  </outline>
</glyph>
<glyph name="germandbls" format="1">
  <advance width="645"/>
  <unicode hex="00DF"/>
  <outline>
    <contour>
      <point x="446" y="-8" type="curve"/>
      <point x="550" y="-8"/>
      <point x="629" y="48"/>
      <point x="629" y="138" type="curve"/>
      <point x="629" y="311"/>
      <point x="356" y="257"/>
      <point x="356" y="373" type="curve"/>
      <point x="356" y="461"/>
      <point x="514" y="486"/>
      <point x="514" y="614" type="curve"/>
      <point x="514" y="694"/>
      <point x="445" y="750"/>
      <point x="340" y="750" type="curve"/>
      <point x="190" y="750"/>
      <point x="95" y="647"/>
      <point x="95" y="486" type="curve"/>
      <point x="95" y="0" type="line"/>
      <point x="173" y="0" type="line"/>
      <point x="173" y="490" type="line" smooth="yes"/>
      <point x="173" y="615"/>
      <point x="232" y="686"/>
      <point x="340" y="686" type="curve"/>
      <point x="406" y="686"/>
      <point x="445" y="657"/>
      <point x="445" y="615" type="curve"/>
      <point x="445" y="510"/>
      <point x="282" y="493"/>
      <point x="282" y="360" type="curve"/>
      <point x="282" y="189"/>
      <point x="552" y="246"/>
      <point x="552" y="130" type="curve"/>
      <point x="552" y="88"/>
      <point x="518" y="58"/>
      <point x="446" y="58" type="curve"/>
      <point x="377" y="58"/>
      <point x="331" y="91"/>
      <point x="322" y="156" type="curve"/>
      <point x="252" y="140" type="line"/>
      <point x="262" y="45"/>
      <point x="337" y="-8"/>
    </contour>
    <contour>
      <point x="-4" y="498" type="line"/>
      <point x="-4" y="432" type="line"/>
      <point x="140" y="432" type="line"/>
      <point x="140" y="498" type="line"/>
    </contour>
  </outline>
</glyph>
<glyph name="ae" format="1">
  <advance width="863"/>
  <unicode hex="00E6"/>
  <note>
    A
  </note>
  <outline>
    <contour>
      <point x="225" y="-8" type="curve"/>
      <point x="326" y="-8"/>
      <point x="407" y="52"/>
      <point x="430" y="143" type="curve"/>
      <point x="408" y="140" type="line"/>
      <point x="439" y="44"/>
      <point x="516" y="-8"/>
      <point x="627" y="-8" type="curve"/>
      <point x="710" y="-8"/>
      <point x="773" y="24"/>
      <point x="819" y="89" type="curve"/>
      <point x="770" y="134" type="line"/>
      <point x="735" y="86"/>
      <point x="685" y="63"/>
      <point x="632" y="63" type="curve"/>
      <point x="524" y="63"/>
      <point x="462" y="123"/>
      <point x="462" y="229" type="curve"/>
      <point x="462" y="263" type="line" smooth="yes"/>
      <point x="462" y="359"/>
      <point x="520" y="444"/>
      <point x="618" y="444" type="curve"/>
      <point x="699" y="444"/>
      <point x="756" y="394"/>
      <point x="746" y="272" type="curve"/>
      <point x="767" y="284" type="line"/>
      <point x="439" y="284" type="line"/>
      <point x="439" y="222" type="line"/>
      <point x="816" y="222" type="line"/>
      <point x="837" y="410"/>
      <point x="755" y="507"/>
      <point x="616" y="507" type="curve"/>
      <point x="537" y="507"/>
      <point x="458" y="458"/>
      <point x="426" y="377" type="curve"/>
      <point x="444" y="375" type="line"/>
      <point x="423" y="462"/>
      <point x="361" y="507"/>
      <point x="262" y="507" type="curve"/>
      <point x="143" y="507"/>
      <point x="71" y="433"/>
      <point x="56" y="347" type="curve"/>
      <point x="126" y="334" type="line"/>
      <point x="141" y="402"/>
      <point x="187" y="439"/>
      <point x="261" y="439" type="curve"/>
      <point x="342" y="439"/>
      <point x="381" y="394"/>
      <point x="381" y="306" type="curve"/>
      <point x="381" y="218" type="line" smooth="yes"/>
      <point x="381" y="121"/>
      <point x="323" y="57"/>
      <point x="233" y="57" type="curve"/>
      <point x="167" y="57"/>
      <point x="124" y="90"/>
      <point x="124" y="139" type="curve"/>
      <point x="124" y="190"/>
      <point x="163" y="221"/>
      <point x="241" y="221" type="curve"/>
      <point x="408" y="221" type="line"/>
      <point x="408" y="284" type="line"/>
      <point x="241" y="284" type="line" smooth="yes"/>
      <point x="114" y="284"/>
      <point x="44" y="227"/>
      <point x="44" y="136" type="curve"/>
      <point x="44" y="52"/>
      <point x="119" y="-8"/>
    </contour>
    <contour>
      <point x="422" y="0" type="move" name="bottom"/>
    </contour>
    <contour>
      <point x="422" y="498" type="move" name="top"/>
    </contour>
  </outline>
</glyph>
<glyph name="eth" format="1">
  <advance width="557"/>
  <unicode hex="00F0"/>
  <outline>
    <contour>
      <point x="270" y="-8" type="curve"/>
      <point x="418" y="-8"/>
      <point x="509" y="117"/>
      <point x="509" y="283" type="curve"/>
      <point x="509" y="523"/>
      <point x="403" y="675"/>
      <point x="183" y="752" type="curve"/>
      <point x="157" y="691" type="line"/>
      <point x="329" y="632"/>
      <point x="421" y="508"/>
      <point x="429" y="334" type="curve"/>
      <point x="453" y="324" type="line"/>
      <point x="439" y="416"/>
      <point x="369" y="470"/>
      <point x="278" y="470" type="curve"/>
      <point x="152" y="470"/>
      <point x="51" y="364"/>
      <point x="51" y="218" type="curve"/>
      <point x="51" y="79"/>
      <point x="136" y="-8"/>
    </contour>
    <contour>
      <point x="275" y="63" type="curve"/>
      <point x="179" y="63"/>
      <point x="131" y="124"/>
      <point x="131" y="218" type="curve"/>
      <point x="131" y="329"/>
      <point x="200" y="401"/>
      <point x="288" y="401" type="curve"/>
      <point x="374" y="401"/>
      <point x="426" y="342"/>
      <point x="426" y="241" type="curve"/>
      <point x="426" y="138"/>
      <point x="360" y="63"/>
    </contour>
    <contour>
      <point x="138" y="574" type="line"/>
      <point x="155" y="526" type="line"/>
      <point x="489" y="654" type="line"/>
      <point x="472" y="702" type="line"/>
    </contour>
  </outline>
</glyph>
<glyph name="divide" format="1">
  <advance width="600"/>
  <unicode hex="00F7"/>
  <outline>
    <contour>
      <point x="545" y="216" type="line"/>
      <point x="545" y="283" type="line"/>
      <point x="55" y="283" type="line"/>
      <point x="55" y="216" type="line"/>
    </contour>
    <contour>
      <point x="300" y="-8" type="curve"/>
      <point x="328" y="-8"/>
      <point x="345" y="11"/>
      <point x="345" y="35" type="curve"/>
      <point x="345" y="59"/>
      <point x="328" y="78"/>
      <point x="300" y="78" type="curve"/>
      <point x="273" y="78"/>
      <point x="255" y="59"/>
      <point x="255" y="35" type="curve"/>
      <point x="255" y="11"/>
      <point x="273" y="-8"/>
    </contour>
    <contour>
      <point x="300" y="422" type="curve"/>
      <point x="328" y="422"/>
      <point x="345" y="441"/>
      <point x="345" y="465" type="curve"/>
      <point x="345" y="489"/>
      <point x="328" y="508"/>
      <point x="300" y="508" type="curve"/>
      <point x="273" y="508"/>
      <point x="255" y="489"/>
      <point x="255" y="465" type="curve"/>
      <point x="255" y="441"/>
      <point x="273" y="422"/>
    </contour>
  </outline>
</glyph>
<glyph name="thorn" format="1">
  <advance width="579"/>
  <unicode hex="00FE"/>
  <outline>
    <contour>
      <point x="74" y="740" type="line"/>
      <point x="74" y="-200" type="line"/>
      <point x="152" y="-200" type="line"/>
      <point x="152" y="0" type="line"/>
      <point x="150" y="90" type="line"/>
      <point x="141" y="81" type="line"/>
      <point x="161" y="29"/>
      <point x="217" y="-8"/>
      <point x="286" y="-8" type="curve"/>
      <point x="429" y="-8"/>
      <point x="527" y="108"/>
      <point x="527" y="274" type="curve"/>
      <point x="527" y="411"/>
      <point x="457" y="507"/>
      <point x="331" y="507" type="curve"/>
      <point x="233" y="507"/>
      <point x="161" y="439"/>
      <point x="131" y="335" type="curve"/>
      <point x="148" y="320" type="line"/>
      <point x="152" y="499" type="line"/>
      <point x="152" y="740" type="line"/>
    </contour>
    <contour>
      <point x="284" y="63" type="curve"/>
      <point x="202" y="63"/>
      <point x="151" y="121"/>
      <point x="151" y="216" type="curve"/>
      <point x="151" y="345"/>
      <point x="223" y="436"/>
      <point x="320" y="436" type="curve"/>
      <point x="398" y="436"/>
      <point x="446" y="374"/>
      <point x="446" y="269" type="curve"/>
      <point x="446" y="145"/>
      <point x="382" y="63"/>
    </contour>
  </outline>
</glyph>
<glyph name="eogonek" format="1">
  <advance width="536"/>
  <unicode hex="0119"/>
  <outline>
    <contour>
      <point x="350" y="-223" type="curve"/>
      <point x="389" y="-223"/>
      <point x="428" y="-203"/>
      <point x="448" y="-173" type="curve"/>
      <point x="418" y="-132" type="line"/>
      <point x="397" y="-158"/>
      <point x="377" y="-170"/>
      <point x="355" y="-170" type="curve"/>
      <point x="321" y="-170"/>
      <point x="302" y="-150"/>
      <point x="302" y="-118" type="curve"/>
      <point x="302" y="-75"/>
      <point x="336" y="-34"/>
      <point x="421" y="22" type="curve"/>
      <point x="447" y="39"/>
      <point x="473" y="60"/>
      <point x="492" y="89" type="curve"/>
      <point x="443" y="134" type="line"/>
      <point x="408" y="86"/>
      <point x="358" y="63"/>
      <point x="305" y="63" type="curve"/>
      <point x="194" y="63"/>
      <point x="132" y="123"/>
      <point x="132" y="231" type="curve"/>
      <point x="132" y="258" type="line" smooth="yes"/>
      <point x="132" y="359"/>
      <point x="193" y="444"/>
      <point x="291" y="444" type="curve"/>
      <point x="372" y="444"/>
      <point x="429" y="394"/>
      <point x="419" y="272" type="curve"/>
      <point x="441" y="284" type="line"/>
      <point x="107" y="284" type="line"/>
      <point x="107" y="222" type="line"/>
      <point x="489" y="222" type="line"/>
      <point x="510" y="410"/>
      <point x="428" y="507"/>
      <point x="290" y="507" type="curve"/>
      <point x="154" y="507"/>
      <point x="52" y="397"/>
      <point x="52" y="242" type="curve"/>
      <point x="52" y="85"/>
      <point x="145" y="-8"/>
      <point x="300" y="-8" type="curve"/>
      <point x="339" y="-8" type="line"/>
      <point x="339" y="10" type="line"/>
      <point x="274" y="-21"/>
      <point x="235" y="-73"/>
      <point x="235" y="-126" type="curve"/>
      <point x="235" y="-184"/>
      <point x="278" y="-223"/>
    </contour>
    <contour>
      <point x="289" y="498" type="move" name="top"/>
    </contour>
  </outline>
</glyph>
<glyph name="kgreenlandic" format="1">
  <advance width="468"/>
  <unicode hex="0138"/>
  <outline>
    <contour>
      <point x="74" y="498" type="line"/>
      <point x="74" y="0" type="line"/>
      <point x="152" y="0" type="line"/>
      <point x="152" y="498" type="line"/>
    </contour>
    <contour>
      <point x="492" y="15" type="curve"/>
      <point x="473" y="74" type="line"/>
      <point x="459" y="66"/>
      <point x="442" y="61"/>
      <point x="425" y="61" type="curve"/>
      <point x="388" y="61"/>
      <point x="363" y="73"/>
      <point x="335" y="113" type="curve"/>
      <point x="263" y="217" type="line" smooth="yes"/>
      <point x="234" y="258"/>
      <point x="203" y="275"/>
      <point x="170" y="275" type="curve"/>
      <point x="200" y="238" type="line"/>
      <point x="463" y="497" type="line"/>
      <point x="365" y="497" type="line"/>
      <point x="139" y="273" type="line"/>
      <point x="111" y="239" type="line"/>
      <point x="142" y="239"/>
      <point x="166" y="225"/>
      <point x="202" y="173" type="curve"/>
      <point x="274" y="70" type="line" smooth="yes"/>
      <point x="311" y="17"/>
      <point x="353" y="-6"/>
      <point x="412" y="-6" type="curve"/>
      <point x="442" y="-6"/>
      <point x="468" y="0"/>
    </contour>
  </outline>
</glyph>
<glyph name="Eng" format="1">
  <advance width="719"/>
  <unicode hex="014A"/>
  <outline>
    <contour>
      <point x="456" y="-208" type="curve"/>
      <point x="576" y="-208"/>
      <point x="638" y="-132"/>
      <point x="638" y="-1" type="curve"/>
      <point x="638" y="710" type="line"/>
      <point x="559" y="710" type="line"/>
      <point x="559" y="81" type="line"/>
      <point x="594" y="90" type="line"/>
      <point x="152" y="710" type="line"/>
      <point x="81" y="710" type="line"/>
      <point x="81" y="0" type="line"/>
      <point x="160" y="0" type="line"/>
      <point x="160" y="630" type="line"/>
      <point x="125" y="620" type="line"/>
      <point x="567" y="0" type="line"/>
      <point x="561" y="37" type="line"/>
      <point x="561" y="-25" type="line" smooth="yes"/>
      <point x="561" y="-91"/>
      <point x="527" y="-136"/>
      <point x="462" y="-136" type="curve"/>
      <point x="404" y="-136"/>
      <point x="363" y="-106"/>
      <point x="352" y="-41" type="curve"/>
      <point x="284" y="-71" type="line"/>
      <point x="296" y="-155"/>
      <point x="370" y="-208"/>
    </contour>
  </outline>
</glyph>
<glyph name="eng" format="1">
  <advance width="574"/>
  <unicode hex="014B"/>
  <outline>
    <contour>
      <point x="505" y="-14" type="curve"/>
      <point x="506" y="299" type="line" smooth="yes"/>
      <point x="507" y="433"/>
      <point x="450" y="507"/>
      <point x="347" y="507" type="curve"/>
      <point x="239" y="507"/>
      <point x="161" y="426"/>
      <point x="134" y="282" type="curve"/>
      <point x="145" y="290" type="line"/>
      <point x="153" y="498" type="line"/>
      <point x="74" y="498" type="line"/>
      <point x="74" y="0" type="line"/>
      <point x="151" y="0" type="line"/>
      <point x="152" y="328"/>
      <point x="226" y="434"/>
      <point x="328" y="434" type="curve"/>
      <point x="398" y="434"/>
      <point x="429" y="385"/>
      <point x="428" y="290" type="curve"/>
      <point x="426" y="-10" type="line" smooth="yes"/>
      <point x="425" y="-89"/>
      <point x="398" y="-142"/>
      <point x="318" y="-142" type="curve"/>
      <point x="291" y="-142"/>
      <point x="261" y="-137"/>
      <point x="236" y="-127" type="curve"/>
      <point x="218" y="-191" type="line"/>
      <point x="243" y="-204"/>
      <point x="284" y="-210"/>
      <point x="320" y="-210" type="curve"/>
      <point x="434" y="-210"/>
      <point x="504" y="-134"/>
    </contour>
  </outline>
</glyph>
<glyph name="OE" format="1">
  <advance width="993"/>
  <unicode hex="0152"/>
  <outline>
    <contour>
      <point x="960" y="71" type="line"/>
      <point x="621" y="71" type="line"/>
      <point x="621" y="325" type="line"/>
      <point x="936" y="325" type="line"/>
      <point x="936" y="396" type="line"/>
      <point x="621" y="396" type="line"/>
      <point x="621" y="639" type="line"/>
      <point x="946" y="639" type="line"/>
      <point x="946" y="710" type="line"/>
      <point x="600" y="710" type="line" smooth="yes"/>
      <point x="564" y="710"/>
      <point x="497" y="715"/>
      <point x="451" y="715" type="curve"/>
      <point x="194" y="715"/>
      <point x="57" y="566"/>
      <point x="57" y="340" type="curve"/>
      <point x="57" y="117"/>
      <point x="186" y="-4"/>
      <point x="430" y="-4" type="curve"/>
      <point x="479" y="-4"/>
      <point x="529" y="0"/>
      <point x="588" y="0" type="curve"/>
      <point x="953" y="0" type="line"/>
    </contour>
    <contour>
      <point x="540" y="639" type="curve"/>
      <point x="540" y="71" type="line"/>
      <point x="506" y="68"/>
      <point x="471" y="67"/>
      <point x="437" y="67" type="curve"/>
      <point x="238" y="67"/>
      <point x="141" y="160"/>
      <point x="141" y="344" type="curve"/>
      <point x="141" y="541"/>
      <point x="259" y="644"/>
      <point x="451" y="644" type="curve"/>
      <point x="490" y="644"/>
      <point x="515" y="641"/>
    </contour>
    <contour>
      <point x="581" y="0" type="move" name="bottom"/>
    </contour>
    <contour>
      <point x="581" y="710" type="move" name="top"/>
    </contour>
  </outline>
</glyph>
<glyph name="oe" format="1">
  <advance width="917"/>
  <unicode hex="0153"/>
  <outline>
    <contour>
      <point x="290" y="507" type="curve"/>
      <point x="147" y="507"/>
      <point x="52" y="392"/>
      <point x="52" y="240" type="curve"/>
      <point x="52" y="87"/>
      <point x="137" y="-8"/>
      <point x="279" y="-8" type="curve"/>
      <point x="416" y="-8"/>
      <point x="506" y="107"/>
      <point x="506" y="259" type="curve"/>
      <point x="506" y="412"/>
      <point x="427" y="507"/>
    </contour>
    <contour>
      <point x="279" y="63" type="curve"/>
      <point x="187" y="63"/>
      <point x="133" y="126"/>
      <point x="133" y="240" type="curve"/>
      <point x="133" y="356"/>
      <point x="196" y="436"/>
      <point x="294" y="436" type="curve"/>
      <point x="382" y="436"/>
      <point x="436" y="373"/>
      <point x="436" y="259" type="curve"/>
      <point x="436" y="142"/>
      <point x="373" y="63"/>
    </contour>
    <contour>
      <point x="681" y="-8" type="curve"/>
      <point x="764" y="-8"/>
      <point x="827" y="24"/>
      <point x="873" y="89" type="curve"/>
      <point x="824" y="134" type="line"/>
      <point x="789" y="86"/>
      <point x="739" y="63"/>
      <point x="686" y="63" type="curve"/>
      <point x="578" y="63"/>
      <point x="516" y="123"/>
      <point x="516" y="231" type="curve"/>
      <point x="516" y="263" type="line" smooth="yes"/>
      <point x="516" y="359"/>
      <point x="574" y="444"/>
      <point x="672" y="444" type="curve"/>
      <point x="753" y="444"/>
      <point x="810" y="394"/>
      <point x="800" y="272" type="curve"/>
      <point x="821" y="284" type="line"/>
      <point x="493" y="284" type="line"/>
      <point x="493" y="222" type="line"/>
      <point x="870" y="222" type="line"/>
      <point x="891" y="410"/>
      <point x="809" y="507"/>
      <point x="670" y="507" type="curve"/>
      <point x="548" y="507"/>
      <point x="448" y="400"/>
      <point x="448" y="242" type="curve"/>
      <point x="448" y="85"/>
      <point x="532" y="-8"/>
    </contour>
    <contour>
      <point x="476" y="0" type="move" name="bottom"/>
    </contour>
    <contour>
      <point x="476" y="498" type="move" name="top"/>
    </contour>
  </outline>
</glyph>
<glyph name="Uogonek" format="1">
  <advance width="724"/>
  <unicode hex="0172"/>
  <outline>
    <contour>
      <point x="394" y="-223" type="curve"/>
      <point x="433" y="-223"/>
      <point x="472" y="-203"/>
      <point x="492" y="-173" type="curve"/>
      <point x="462" y="-132" type="line"/>
      <point x="441" y="-158"/>
      <point x="421" y="-170"/>
      <point x="399" y="-170" type="curve"/>
      <point x="365" y="-170"/>
      <point x="346" y="-150"/>
      <point x="346" y="-118" type="curve"/>
      <point x="346" y="-74"/>
      <point x="382" y="-26"/>
      <point x="480" y="13" type="curve"/>
      <point x="589" y="57"/>
      <point x="647" y="168"/>
      <point x="646" y="340" type="curve"/>
      <point x="645" y="710" type="line"/>
      <point x="563" y="710" type="line"/>
      <point x="564" y="342" type="line" smooth="yes"/>
      <point x="565" y="155"/>
      <point x="503" y="68"/>
      <point x="358" y="68" type="curve"/>
      <point x="221" y="68"/>
      <point x="162" y="140"/>
      <point x="162" y="307" type="curve"/>
      <point x="162" y="710" type="line"/>
      <point x="78" y="710" type="line"/>
      <point x="78" y="303" type="line" smooth="yes"/>
      <point x="78" y="88"/>
      <point x="170" y="-8"/>
      <point x="358" y="-8" type="curve"/>
      <point x="383" y="-8" type="line"/>
      <point x="381" y="10" type="line"/>
      <point x="319" y="-20"/>
      <point x="279" y="-73"/>
      <point x="279" y="-126" type="curve"/>
      <point x="279" y="-184"/>
      <point x="322" y="-223"/>
    </contour>
    <contour>
      <point x="362" y="710" type="move" name="top"/>
    </contour>
  </outline>
</glyph>
<glyph name="uni018F" format="1">
  <advance width="754"/>
  <unicode hex="018F"/>
  <outline>
    <contour>
      <point x="374" y="720" type="curve"/>
      <point x="252" y="720"/>
      <point x="152" y="671"/>
      <point x="91" y="576" type="curve"/>
      <point x="154" y="528" type="line"/>
      <point x="205" y="607"/>
      <point x="278" y="644"/>
      <point x="374" y="644" type="curve"/>
      <point x="520" y="644"/>
      <point x="614" y="551"/>
      <point x="614" y="368" type="curve"/>
      <point x="614" y="347" type="line" smooth="yes"/>
      <point x="614" y="154"/>
      <point x="509" y="65"/>
      <point x="371" y="65" type="curve"/>
      <point x="215" y="65"/>
      <point x="132" y="169"/>
      <point x="146" y="330" type="curve"/>
      <point x="127" y="313" type="line"/>
      <point x="656" y="313" type="line"/>
      <point x="656" y="382" type="line"/>
      <point x="61" y="382" type="line"/>
      <point x="33" y="146"/>
      <point x="152" y="-8"/>
      <point x="369" y="-8" type="curve"/>
      <point x="560" y="-8"/>
      <point x="697" y="126"/>
      <point x="697" y="366" type="curve"/>
      <point x="697" y="587"/>
      <point x="572" y="720"/>
    </contour>
  </outline>
</glyph>
<glyph name="florin" format="1">
  <advance width="600"/>
  <unicode hex="0192"/>
  <outline>
    <contour>
      <point x="479" y="498" type="line"/>
      <point x="135" y="498" type="line"/>
      <point x="135" y="432" type="line"/>
      <point x="479" y="432" type="line"/>
    </contour>
    <contour>
      <point x="421" y="750" type="curve"/>
      <point x="309" y="750"/>
      <point x="229" y="670"/>
      <point x="234" y="532" type="curve"/>
      <point x="253" y="20" type="line" smooth="yes"/>
      <point x="257" y="-87"/>
      <point x="221" y="-140"/>
      <point x="139" y="-140" type="curve"/>
      <point x="112" y="-140"/>
      <point x="85" y="-135"/>
      <point x="60" y="-124" type="curve"/>
      <point x="42" y="-190" type="line"/>
      <point x="67" y="-204"/>
      <point x="105" y="-210"/>
      <point x="141" y="-210" type="curve"/>
      <point x="257" y="-210"/>
      <point x="338" y="-134"/>
      <point x="331" y="16" type="curve"/>
      <point x="312" y="454" type="line"/>
      <point x="311" y="489" type="line"/>
      <point x="310" y="540" type="line" smooth="yes"/>
      <point x="308" y="636"/>
      <point x="352" y="683"/>
      <point x="420" y="683" type="curve"/>
      <point x="473" y="683"/>
      <point x="505" y="658"/>
      <point x="511" y="610" type="curve"/>
      <point x="577" y="618" type="line"/>
      <point x="569" y="702"/>
      <point x="514" y="750"/>
    </contour>
  </outline>
</glyph>
<glyph name="Uhorn" format="1">
  <advance width="724"/>
  <unicode hex="01AF"/>
  <outline>
    <contour>
      <point x="780" y="811" type="curve"/>
      <point x="714" y="817" type="line"/>
      <point x="712" y="732"/>
      <point x="690" y="710"/>
      <point x="617" y="710" type="curve"/>
      <point x="563" y="710" type="line"/>
      <point x="564" y="342" type="line" smooth="yes"/>
      <point x="565" y="155"/>
      <point x="503" y="68"/>
      <point x="358" y="68" type="curve"/>
      <point x="221" y="68"/>
      <point x="162" y="140"/>
      <point x="162" y="307" type="curve"/>
      <point x="162" y="710" type="line"/>
      <point x="78" y="710" type="line"/>
      <point x="78" y="303" type="line" smooth="yes"/>
      <point x="78" y="88"/>
      <point x="170" y="-8"/>
      <point x="358" y="-8" type="curve"/>
      <point x="549" y="-8"/>
      <point x="647" y="115"/>
      <point x="646" y="340" type="curve"/>
      <point x="645" y="671" type="line"/>
      <point x="600" y="647" type="line"/>
      <point x="642" y="647" type="line" smooth="yes"/>
      <point x="732" y="647"/>
      <point x="785" y="714"/>
    </contour>
    <contour>
      <point x="363" y="0" type="move" name="bottom"/>
    </contour>
    <contour>
      <point x="363" y="710" type="move" name="top"/>
    </contour>
  </outline>
</glyph>
<glyph name="uhorn" format="1">
  <advance width="564"/>
  <unicode hex="01B0"/>
  <outline>
    <contour>
      <point x="599" y="599" type="curve"/>
      <point x="532" y="605" type="line"/>
      <point x="532" y="526"/>
      <point x="509" y="498"/>
      <point x="445" y="498" type="curve"/>
      <point x="415" y="498" type="line"/>
      <point x="414" y="171"/>
      <point x="342" y="65"/>
      <point x="243" y="65" type="curve"/>
      <point x="175" y="65"/>
      <point x="145" y="114"/>
      <point x="146" y="199" type="curve"/>
      <point x="149" y="498" type="line"/>
      <point x="71" y="498" type="line"/>
      <point x="68" y="190" type="line" smooth="yes"/>
      <point x="67" y="66"/>
      <point x="123" y="-8"/>
      <point x="224" y="-8" type="curve"/>
      <point x="329" y="-8"/>
      <point x="412" y="73"/>
      <point x="438" y="247" type="curve"/>
      <point x="422" y="238" type="line"/>
      <point x="413" y="0" type="line"/>
      <point x="490" y="0" type="line"/>
      <point x="490" y="465" type="line"/>
      <point x="451" y="438" type="line"/>
      <point x="546" y="438"/>
      <point x="604" y="503"/>
    </contour>
    <contour>
      <point x="282" y="0" type="move" name="bottom"/>
    </contour>
    <contour>
      <point x="282" y="498" type="move" name="top"/>
    </contour>
  </outline>
</glyph>
<glyph name="uni01EA" format="1">
  <advance width="770"/>
  <unicode hex="01EA"/>
  <outline>
    <contour>
      <point x="405" y="-223" type="curve"/>
      <point x="444" y="-223"/>
      <point x="483" y="-203"/>
      <point x="503" y="-173" type="curve"/>
      <point x="473" y="-132" type="line"/>
      <point x="452" y="-158"/>
      <point x="432" y="-170"/>
      <point x="410" y="-170" type="curve"/>
      <point x="376" y="-170"/>
      <point x="357" y="-150"/>
      <point x="357" y="-118" type="curve"/>
      <point x="357" y="-75"/>
      <point x="397" y="-24"/>
      <point x="494" y="11" type="curve"/>
      <point x="623" y="57"/>
      <point x="713" y="184"/>
      <point x="713" y="369" type="curve"/>
      <point x="713" y="580"/>
      <point x="587" y="720"/>
      <point x="399" y="720" type="curve"/>
      <point x="197" y="720"/>
      <point x="57" y="564"/>
      <point x="57" y="342" type="curve"/>
      <point x="57" y="120"/>
      <point x="180" y="-8"/>
      <point x="381" y="-8" type="curve"/>
      <point x="405" y="-8" type="line"/>
      <point x="397" y="10" type="line"/>
      <point x="329" y="-21"/>
      <point x="290" y="-73"/>
      <point x="290" y="-126" type="curve"/>
      <point x="290" y="-184"/>
      <point x="333" y="-223"/>
    </contour>
    <contour>
      <point x="381" y="68" type="curve"/>
      <point x="232" y="68"/>
      <point x="141" y="166"/>
      <point x="141" y="342" type="curve"/>
      <point x="141" y="524"/>
      <point x="249" y="644"/>
      <point x="400" y="644" type="curve"/>
      <point x="540" y="644"/>
      <point x="629" y="538"/>
      <point x="629" y="371" type="curve"/>
      <point x="629" y="179"/>
      <point x="527" y="68"/>
    </contour>
    <contour>
      <point x="385" y="710" type="move" name="top"/>
    </contour>
  </outline>
</glyph>
<glyph name="uni01EB" format="1">
  <advance width="569"/>
  <unicode hex="01EB"/>
  <outline>
    <contour>
      <point x="391" y="20" type="curve"/>
      <point x="465" y="61"/>
      <point x="517" y="148"/>
      <point x="517" y="259" type="curve"/>
      <point x="517" y="412"/>
      <point x="432" y="507"/>
      <point x="293" y="507" type="curve"/>
      <point x="147" y="507"/>
      <point x="52" y="392"/>
      <point x="52" y="240" type="curve"/>
      <point x="52" y="87"/>
      <point x="137" y="-8"/>
      <point x="279" y="-8" type="curve"/>
      <point x="300" y="-8" type="line"/>
      <point x="294" y="10" type="line"/>
      <point x="229" y="-21"/>
      <point x="190" y="-73"/>
      <point x="190" y="-126" type="curve"/>
      <point x="190" y="-184"/>
      <point x="233" y="-223"/>
      <point x="305" y="-223" type="curve"/>
      <point x="344" y="-223"/>
      <point x="383" y="-203"/>
      <point x="403" y="-173" type="curve"/>
      <point x="373" y="-132" type="line"/>
      <point x="352" y="-158"/>
      <point x="332" y="-170"/>
      <point x="310" y="-170" type="curve"/>
      <point x="276" y="-170"/>
      <point x="257" y="-150"/>
      <point x="257" y="-118" type="curve"/>
      <point x="257" y="-74"/>
      <point x="294" y="-33"/>
    </contour>
    <contour>
      <point x="133" y="240" type="curve"/>
      <point x="133" y="356"/>
      <point x="196" y="436"/>
      <point x="294" y="436" type="curve"/>
      <point x="382" y="436"/>
      <point x="436" y="373"/>
      <point x="436" y="259" type="curve"/>
      <point x="436" y="142"/>
      <point x="373" y="63"/>
      <point x="279" y="63" type="curve"/>
      <point x="187" y="63"/>
      <point x="133" y="126"/>
    </contour>
    <contour>
      <point x="285" y="498" type="move" name="top"/>
    </contour>
  </outline>
</glyph>
<glyph name="uni0237" format="1">
  <advance width="240"/>
  <unicode hex="0237"/>
  <outline>
    <contour>
      <point x="-25" y="-210" type="curve"/>
      <point x="91" y="-210"/>
      <point x="166" y="-134"/>
      <point x="166" y="-4" type="curve"/>
      <point x="166" y="498" type="line"/>
      <point x="88" y="498" type="line"/>
      <point x="88" y="0" type="line" smooth="yes"/>
      <point x="88" y="-87"/>
      <point x="55" y="-140"/>
      <point x="-27" y="-140" type="curve"/>
      <point x="-54" y="-140"/>
      <point x="-81" y="-135"/>
      <point x="-106" y="-124" type="curve"/>
      <point x="-124" y="-190" type="line"/>
      <point x="-99" y="-204"/>
      <point x="-61" y="-210"/>
    </contour>
    <contour>
      <point x="127" y="-200" type="move" name="bottom"/>
    </contour>
    <contour>
      <point x="127" y="498" type="move" name="top"/>
    </contour>
  </outline>
</glyph>
<glyph name="uni0259" format="1">
  <advance width="536"/>
  <unicode hex="0259"/>
  <outline>
    <contour>
      <point x="251" y="507" type="curve"/>
      <point x="170" y="507"/>
      <point x="92" y="475"/>
      <point x="44" y="410" type="curve"/>
      <point x="95" y="365" type="line"/>
      <point x="130" y="413"/>
      <point x="190" y="435"/>
      <point x="248" y="435" type="curve"/>
      <point x="351" y="435"/>
      <point x="404" y="376"/>
      <point x="404" y="268" type="curve"/>
      <point x="404" y="241" type="line" smooth="yes"/>
      <point x="404" y="140"/>
      <point x="349" y="56"/>
      <point x="256" y="56" type="curve"/>
      <point x="170" y="56"/>
      <point x="108" y="105"/>
      <point x="118" y="227" type="curve"/>
      <point x="95" y="215" type="line"/>
      <point x="429" y="215" type="line"/>
      <point x="429" y="277" type="line"/>
      <point x="47" y="277" type="line"/>
      <point x="26" y="89"/>
      <point x="114" y="-8"/>
      <point x="255" y="-8" type="curve"/>
      <point x="388" y="-8"/>
      <point x="484" y="102"/>
      <point x="484" y="257" type="curve"/>
      <point x="484" y="414"/>
      <point x="404" y="507"/>
    </contour>
  </outline>
</glyph>
<glyph name="uni02B9" format="1">
  <advance width="642"/>
  <unicode hex="02B9"/>
  <note>
    acutecomb
  </note>
  <outline>
    <contour>
      <point x="290" y="573" type="line"/>
      <point x="362" y="573" type="line"/>
      <point x="488" y="727" type="line"/>
      <point x="404" y="750" type="line"/>
    </contour>
    <contour>
      <point x="331" y="498" type="move" name="_top"/>
    </contour>
    <contour>
      <point x="331" y="749" type="move" name="top"/>
    </contour>
  </outline>
</glyph>
<glyph name="uni02BA" format="1">
  <advance width="620"/>
  <unicode hex="02BA"/>
  <note>
    uni030B
  </note>
  <outline>
    <contour>
      <point x="351" y="573" type="line"/>
      <point x="411" y="573" type="line"/>
      <point x="492" y="727" type="line"/>
      <point x="416" y="750" type="line"/>
    </contour>
    <contour>
      <point x="215" y="573" type="line"/>
      <point x="275" y="573" type="line"/>
      <point x="356" y="727" type="line"/>
      <point x="280" y="750" type="line"/>
    </contour>
    <contour>
      <point x="313" y="498" type="move" name="_top"/>
    </contour>
    <contour>
      <point x="313" y="749" type="move" name="top"/>
    </contour>
  </outline>
</glyph>
<glyph name="uni02BB" format="1">
  <advance width="639"/>
  <unicode hex="02BB"/>
  <note>
    uni02BB
  </note>
  <outline>
    <contour>
      <point x="377" y="750" type="curve"/>
      <point x="335" y="750" type="line"/>
      <point x="296" y="712"/>
      <point x="277" y="657"/>
      <point x="277" y="622" type="curve"/>
      <point x="277" y="588"/>
      <point x="295" y="568"/>
      <point x="324" y="568" type="curve"/>
      <point x="353" y="568"/>
      <point x="371" y="588"/>
      <point x="371" y="614" type="curve"/>
      <point x="371" y="638"/>
      <point x="356" y="653"/>
      <point x="356" y="684" type="curve"/>
      <point x="356" y="703"/>
      <point x="363" y="726"/>
    </contour>
    <contour>
      <point x="324" y="498" type="move" name="_top"/>
    </contour>
    <contour>
      <point x="324" y="727" type="move" name="top"/>
    </contour>
  </outline>
</glyph>
<glyph name="uni02BC" format="1">
  <advance width="194"/>
  <unicode hex="02BC"/>
  <outline>
    <contour>
      <point x="43" y="493" type="curve"/>
      <point x="81" y="493" type="line"/>
      <point x="117" y="539"/>
      <point x="144" y="608"/>
      <point x="144" y="655" type="curve"/>
      <point x="144" y="694"/>
      <point x="126" y="717"/>
      <point x="94" y="717" type="curve"/>
      <point x="65" y="717"/>
      <point x="44" y="696"/>
      <point x="44" y="665" type="curve"/>
      <point x="44" y="633"/>
      <point x="61" y="613"/>
      <point x="61" y="574" type="curve"/>
      <point x="61" y="551"/>
      <point x="54" y="523"/>
    </contour>
  </outline>
</glyph>
<glyph name="uni02BE" format="1">
  <advance width="613"/>
  <unicode hex="02BE"/>
  <outline>
    <contour>
      <point x="300" y="614" type="curve"/>
      <point x="300" y="568" type="line"/>
      <point x="362" y="568"/>
      <point x="409" y="609"/>
      <point x="409" y="670" type="curve"/>
      <point x="409" y="731"/>
      <point x="362" y="771"/>
      <point x="300" y="771" type="curve"/>
      <point x="300" y="727" type="line"/>
      <point x="333" y="727"/>
      <point x="360" y="705"/>
      <point x="360" y="671" type="curve"/>
      <point x="360" y="637"/>
      <point x="333" y="614"/>
    </contour>
    <contour>
      <point x="300" y="498" type="move" name="_top"/>
    </contour>
    <contour>
      <point x="300" y="735" type="move" name="top"/>
    </contour>
  </outline>
</glyph>
<glyph name="uni02BF" format="1">
  <advance width="613"/>
  <unicode hex="02BF"/>
  <outline>
    <contour>
      <point x="313" y="568" type="curve"/>
      <point x="313" y="614" type="line"/>
      <point x="280" y="614"/>
      <point x="253" y="637"/>
      <point x="253" y="671" type="curve"/>
      <point x="253" y="705"/>
      <point x="280" y="727"/>
      <point x="313" y="727" type="curve"/>
      <point x="313" y="771" type="line"/>
      <point x="251" y="771"/>
      <point x="204" y="731"/>
      <point x="204" y="670" type="curve"/>
      <point x="204" y="609"/>
      <point x="251" y="568"/>
    </contour>
    <contour>
      <point x="313" y="498" type="move" name="_top"/>
    </contour>
    <contour>
      <point x="313" y="735" type="move" name="top"/>
    </contour>
  </outline>
</glyph>
<glyph name="uni02C9" format="1">
  <advance width="626"/>
  <unicode hex="02C9"/>
  <note>
    uni0304
  </note>
  <outline>
    <contour>
      <point x="468" y="660" type="line"/>
      <point x="158" y="660" type="line"/>
      <point x="158" y="596" type="line"/>
      <point x="468" y="596" type="line"/>
    </contour>
    <contour>
      <point x="313" y="498" type="move" name="_top"/>
    </contour>
    <contour>
      <point x="313" y="749" type="move" name="top"/>
    </contour>
  </outline>
</glyph>
<glyph name="uni02CB" format="1">
  <advance width="642"/>
  <unicode hex="02CB"/>
  <note>
    gravecomb
  </note>
  <outline>
    <contour>
      <point x="169" y="727" type="line"/>
      <point x="295" y="573" type="line"/>
      <point x="367" y="573" type="line"/>
      <point x="253" y="750" type="line"/>
    </contour>
    <contour>
      <point x="331" y="498" type="move" name="_top"/>
    </contour>
    <contour>
      <point x="331" y="749" type="move" name="top"/>
    </contour>
  </outline>
</glyph>
<glyph name="uni02CC" format="1">
  <advance width="618"/>
  <unicode hex="02CC"/>
  <outline>
    <contour>
      <point x="277" y="-86" type="line"/>
      <point x="277" y="-234" type="line"/>
      <point x="342" y="-234" type="line"/>
      <point x="342" y="-86" type="line"/>
    </contour>
    <contour>
      <point x="309" y="0" type="move" name="_bottom"/>
    </contour>
    <contour>
      <point x="309" y="-220" type="move" name="bottom"/>
    </contour>
  </outline>
</glyph>
<glyph name="gravecomb" format="1">
  <advance width="642"/>
  <unicode hex="0300"/>
  <note>
    gravecomb
  </note>
  <outline>
    <contour>
      <point x="173" y="727" type="line"/>
      <point x="299" y="573" type="line"/>
      <point x="371" y="573" type="line"/>
      <point x="257" y="750" type="line"/>
    </contour>
    <contour>
      <point x="335" y="498" type="move" name="_top"/>
    </contour>
    <contour>
      <point x="335" y="749" type="move" name="top"/>
    </contour>
  </outline>
</glyph>
<glyph name="uni0302" format="1">
  <advance width="644"/>
  <unicode hex="0302"/>
  <note>
    uni0302
  </note>
  <outline>
    <contour>
      <point x="407" y="573" type="line"/>
      <point x="484" y="573" type="line"/>
      <point x="357" y="740" type="line"/>
      <point x="287" y="740" type="line"/>
      <point x="160" y="573" type="line"/>
      <point x="237" y="573" type="line"/>
      <point x="332" y="701" type="line"/>
      <point x="312" y="701" type="line"/>
    </contour>
    <contour>
      <point x="322" y="498" type="move" name="_top"/>
    </contour>
    <contour>
      <point x="322" y="749" type="move" name="top"/>
    </contour>
  </outline>
</glyph>
<glyph name="tildecomb" format="1">
  <advance width="634"/>
  <unicode hex="0303"/>
  <note>
    tildecomb
  </note>
  <outline>
    <contour>
      <point x="514" y="663" type="curve"/>
      <point x="478" y="688" type="line"/>
      <point x="468" y="651"/>
      <point x="446" y="629"/>
      <point x="419" y="629" type="curve"/>
      <point x="378" y="629"/>
      <point x="305" y="691"/>
      <point x="255" y="691" type="curve"/>
      <point x="204" y="691"/>
      <point x="168" y="656"/>
      <point x="156" y="596" type="curve"/>
      <point x="192" y="571" type="line"/>
      <point x="202" y="608"/>
      <point x="224" y="630"/>
      <point x="251" y="630" type="curve"/>
      <point x="292" y="630"/>
      <point x="365" y="568"/>
      <point x="415" y="568" type="curve"/>
      <point x="466" y="568"/>
      <point x="502" y="603"/>
    </contour>
    <contour>
      <point x="335" y="498" type="move" name="_top"/>
    </contour>
    <contour>
      <point x="335" y="749" type="move" name="top"/>
    </contour>
  </outline>
</glyph>
<glyph name="uni0304" format="1">
  <advance width="626"/>
  <unicode hex="0304"/>
  <note>
    uni0304
  </note>
  <outline>
    <contour>
      <point x="468" y="656" type="line"/>
      <point x="162" y="656" type="line"/>
      <point x="162" y="600" type="line"/>
      <point x="468" y="600" type="line"/>
    </contour>
    <contour>
      <point x="315" y="498" type="move" name="_top"/>
    </contour>
    <contour>
      <point x="315" y="749" type="move" name="top"/>
    </contour>
  </outline>
</glyph>
<glyph name="uni0306" format="1">
  <advance width="644"/>
  <unicode hex="0306"/>
  <note>
    uni0306
  </note>
  <outline>
    <contour>
      <point x="496" y="740" type="curve"/>
      <point x="440" y="750" type="line"/>
      <point x="431" y="667"/>
      <point x="396" y="626"/>
      <point x="335" y="626" type="curve"/>
      <point x="274" y="626"/>
      <point x="239" y="667"/>
      <point x="230" y="750" type="curve"/>
      <point x="174" y="740" type="line"/>
      <point x="182" y="634"/>
      <point x="244" y="568"/>
      <point x="335" y="568" type="curve"/>
      <point x="426" y="568"/>
      <point x="488" y="634"/>
    </contour>
    <contour>
      <point x="335" y="498" type="move" name="_top"/>
    </contour>
    <contour>
      <point x="335" y="749" type="move" name="top"/>
    </contour>
  </outline>
</glyph>
<glyph name="uni0307" format="1">
  <advance width="648"/>
  <unicode hex="0307"/>
  <note>
    uni0307
  </note>
  <outline>
    <contour>
      <point x="336" y="584" type="curve"/>
      <point x="371" y="584"/>
      <point x="391" y="608"/>
      <point x="391" y="637" type="curve"/>
      <point x="391" y="666"/>
      <point x="371" y="690"/>
      <point x="336" y="690" type="curve"/>
      <point x="302" y="690"/>
      <point x="279" y="666"/>
      <point x="279" y="637" type="curve"/>
      <point x="279" y="608"/>
      <point x="301" y="584"/>
    </contour>
    <contour>
      <point x="335" y="498" type="move" name="_top"/>
    </contour>
    <contour>
      <point x="335" y="727" type="move" name="top"/>
    </contour>
  </outline>
</glyph>
<glyph name="uni0308" format="1">
  <advance width="670"/>
  <unicode hex="0308"/>
  <note>
    uni0308
  </note>
  <outline>
    <contour>
      <point x="247" y="568" type="curve"/>
      <point x="277" y="568"/>
      <point x="296" y="590"/>
      <point x="296" y="616" type="curve"/>
      <point x="296" y="642"/>
      <point x="277" y="664"/>
      <point x="247" y="664" type="curve"/>
      <point x="215" y="664"/>
      <point x="196" y="642"/>
      <point x="196" y="616" type="curve"/>
      <point x="196" y="590"/>
      <point x="215" y="568"/>
    </contour>
    <contour>
      <point x="421" y="568" type="curve"/>
      <point x="451" y="568"/>
      <point x="470" y="590"/>
      <point x="470" y="616" type="curve"/>
      <point x="470" y="642"/>
      <point x="451" y="664"/>
      <point x="421" y="664" type="curve"/>
      <point x="389" y="664"/>
      <point x="370" y="642"/>
      <point x="370" y="616" type="curve"/>
      <point x="370" y="590"/>
      <point x="389" y="568"/>
    </contour>
    <contour>
      <point x="335" y="498" type="move" name="_top"/>
    </contour>
    <contour>
      <point x="335" y="727" type="move" name="top"/>
    </contour>
  </outline>
</glyph>
<glyph name="hookabovecomb" format="1">
  <advance width="630"/>
  <unicode hex="0309"/>
  <note>
    hookabovecomb
  </note>
  <outline>
    <contour>
      <point x="344" y="751" type="curve"/>
      <point x="300" y="751"/>
      <point x="263" y="731"/>
      <point x="239" y="694" type="curve"/>
      <point x="273" y="666" type="line"/>
      <point x="291" y="694"/>
      <point x="312" y="706"/>
      <point x="338" y="706" type="curve"/>
      <point x="360" y="706"/>
      <point x="370" y="697"/>
      <point x="370" y="683" type="curve"/>
      <point x="370" y="651"/>
      <point x="312" y="649"/>
      <point x="312" y="585" type="curve"/>
      <point x="312" y="573" type="line"/>
      <point x="358" y="573" type="line"/>
      <point x="358" y="630"/>
      <point x="432" y="621"/>
      <point x="432" y="688" type="curve"/>
      <point x="432" y="726"/>
      <point x="396" y="751"/>
    </contour>
    <contour>
      <point x="335" y="498" type="move" name="_top"/>
    </contour>
    <contour>
      <point x="335" y="749" type="move" name="top"/>
    </contour>
  </outline>
</glyph>
<glyph name="uni030C" format="1">
  <advance width="644"/>
  <unicode hex="030C"/>
  <note>
    uni030C
  </note>
  <outline>
    <contour>
      <point x="173" y="740" type="line"/>
      <point x="300" y="573" type="line"/>
      <point x="370" y="573" type="line"/>
      <point x="497" y="740" type="line"/>
      <point x="428" y="750" type="line"/>
      <point x="325" y="612" type="line"/>
      <point x="345" y="612" type="line"/>
      <point x="242" y="750" type="line"/>
    </contour>
    <contour>
      <point x="335" y="498" type="move" name="_top"/>
    </contour>
    <contour>
      <point x="335" y="749" type="move" name="top"/>
    </contour>
  </outline>
</glyph>
<glyph name="uni030F" format="1">
  <advance width="620"/>
  <unicode hex="030F"/>
  <outline>
    <contour>
      <point x="292" y="727" type="line"/>
      <point x="373" y="573" type="line"/>
      <point x="433" y="573" type="line"/>
      <point x="368" y="750" type="line"/>
    </contour>
    <contour>
      <point x="156" y="727" type="line"/>
      <point x="237" y="573" type="line"/>
      <point x="297" y="573" type="line"/>
      <point x="232" y="750" type="line"/>
    </contour>
    <contour>
      <point x="335" y="498" type="move" name="_top"/>
    </contour>
    <contour>
      <point x="335" y="749" type="move" name="top"/>
    </contour>
  </outline>
</glyph>
<glyph name="uni0311" format="1">
  <advance width="644"/>
  <unicode hex="0311"/>
  <outline>
    <contour>
      <point x="439" y="573" type="curve"/>
      <point x="496" y="573" type="line"/>
      <point x="490" y="683"/>
      <point x="426" y="750"/>
      <point x="335" y="750" type="curve"/>
      <point x="244" y="750"/>
      <point x="180" y="683"/>
      <point x="174" y="573" type="curve"/>
      <point x="231" y="573" type="line"/>
      <point x="240" y="651"/>
      <point x="274" y="692"/>
      <point x="335" y="692" type="curve"/>
      <point x="396" y="692"/>
      <point x="430" y="651"/>
    </contour>
    <contour>
      <point x="335" y="498" type="move" name="_top"/>
    </contour>
    <contour>
      <point x="335" y="749" type="move" name="top"/>
    </contour>
  </outline>
</glyph>
<glyph name="uni0312" format="1">
  <advance width="639"/>
  <unicode hex="0312"/>
  <note>
    uni02BB
  </note>
  <outline>
    <contour>
      <point x="388" y="750" type="curve"/>
      <point x="346" y="750" type="line"/>
      <point x="307" y="712"/>
      <point x="288" y="657"/>
      <point x="288" y="622" type="curve"/>
      <point x="288" y="588"/>
      <point x="306" y="568"/>
      <point x="335" y="568" type="curve"/>
      <point x="364" y="568"/>
      <point x="382" y="588"/>
      <point x="382" y="614" type="curve"/>
      <point x="382" y="638"/>
      <point x="367" y="653"/>
      <point x="367" y="684" type="curve"/>
      <point x="367" y="703"/>
      <point x="374" y="726"/>
    </contour>
    <contour>
      <point x="335" y="498" type="move" name="_top"/>
    </contour>
    <contour>
      <point x="335" y="727" type="move" name="top"/>
    </contour>
  </outline>
</glyph>
<glyph name="uni031B" format="1">
  <advance width="637"/>
  <unicode hex="031B"/>
  <outline>
    <contour>
      <point x="275" y="497" type="curve"/>
      <point x="254" y="497"/>
      <point x="234" y="501"/>
      <point x="213" y="503" type="curve"/>
      <point x="233" y="436" type="line"/>
      <point x="282" y="436" type="line" smooth="yes"/>
      <point x="377" y="436"/>
      <point x="435" y="503"/>
      <point x="430" y="599" type="curve"/>
      <point x="362" y="605" type="line"/>
      <point x="362" y="526"/>
      <point x="339" y="497"/>
    </contour>
    <contour>
      <point x="295" y="498" type="move" name="_topright"/>
    </contour>
  </outline>
</glyph>
<glyph name="dotbelowcomb" format="1">
  <advance width="648"/>
  <unicode hex="0323"/>
  <note>
    uni0323
  </note>
  <outline>
    <contour>
      <point x="324" y="-192" type="curve"/>
      <point x="359" y="-192"/>
      <point x="380" y="-168"/>
      <point x="380" y="-139" type="curve"/>
      <point x="380" y="-110"/>
      <point x="359" y="-86"/>
      <point x="324" y="-86" type="curve"/>
      <point x="290" y="-86"/>
      <point x="267" y="-110"/>
      <point x="267" y="-139" type="curve"/>
      <point x="267" y="-168"/>
      <point x="289" y="-192"/>
    </contour>
    <contour>
      <point x="324" y="0" type="move" name="_bottom"/>
    </contour>
    <contour>
      <point x="324" y="-220" type="move" name="bottom"/>
    </contour>
  </outline>
</glyph>
<glyph name="uni0324" format="1">
  <advance width="670"/>
  <unicode hex="0324"/>
  <outline>
    <contour>
      <point x="258" y="-184" type="curve"/>
      <point x="289" y="-184"/>
      <point x="309" y="-162"/>
      <point x="309" y="-135" type="curve"/>
      <point x="309" y="-108"/>
      <point x="289" y="-86"/>
      <point x="258" y="-86" type="curve"/>
      <point x="225" y="-86"/>
      <point x="205" y="-108"/>
      <point x="205" y="-135" type="curve"/>
      <point x="205" y="-162"/>
      <point x="225" y="-184"/>
    </contour>
    <contour>
      <point x="414" y="-184" type="curve"/>
      <point x="445" y="-184"/>
      <point x="465" y="-162"/>
      <point x="465" y="-135" type="curve"/>
      <point x="465" y="-108"/>
      <point x="445" y="-86"/>
      <point x="414" y="-86" type="curve"/>
      <point x="381" y="-86"/>
      <point x="361" y="-108"/>
      <point x="361" y="-135" type="curve"/>
      <point x="361" y="-162"/>
      <point x="381" y="-184"/>
    </contour>
    <contour>
      <point x="335" y="0" type="move" name="_bottom"/>
    </contour>
    <contour>
      <point x="335" y="-220" type="move" name="bottom"/>
    </contour>
  </outline>
</glyph>
<glyph name="uni0327" format="1">
  <advance width="618"/>
  <unicode hex="0327"/>
  <note>
    uni0327
  </note>
  <outline>
    <contour>
      <point x="275" y="-223" type="curve"/>
      <point x="345" y="-223"/>
      <point x="394" y="-187"/>
      <point x="394" y="-133" type="curve"/>
      <point x="394" y="-82"/>
      <point x="350" y="-51"/>
      <point x="280" y="-51" type="curve"/>
      <point x="295" y="-87" type="line"/>
      <point x="346" y="18" type="line"/>
      <point x="288" y="18" type="line"/>
      <point x="230" y="-97" type="line"/>
      <point x="273" y="-97" type="line" smooth="yes"/>
      <point x="311" y="-97"/>
      <point x="329" y="-111"/>
      <point x="329" y="-133" type="curve"/>
      <point x="329" y="-160"/>
      <point x="306" y="-175"/>
      <point x="274" y="-175" type="curve"/>
      <point x="246" y="-175"/>
      <point x="220" y="-168"/>
      <point x="195" y="-156" type="curve"/>
      <point x="175" y="-200" type="line"/>
      <point x="202" y="-214"/>
      <point x="233" y="-223"/>
    </contour>
    <contour>
      <point x="298" y="0" type="move" name="_bottom"/>
    </contour>
  </outline>
</glyph>
<glyph name="uni0328" format="1">
  <advance width="628"/>
  <unicode hex="0328"/>
  <note>
    uni0328
  </note>
  <outline>
    <contour>
      <point x="269" y="-223" type="curve"/>
      <point x="308" y="-223"/>
      <point x="347" y="-203"/>
      <point x="367" y="-173" type="curve"/>
      <point x="337" y="-132" type="line"/>
      <point x="316" y="-158"/>
      <point x="296" y="-170"/>
      <point x="274" y="-170" type="curve"/>
      <point x="240" y="-170"/>
      <point x="221" y="-150"/>
      <point x="221" y="-118" type="curve"/>
      <point x="221" y="-74"/>
      <point x="259" y="-31"/>
      <point x="326" y="0" type="curve"/>
      <point x="286" y="22" type="line"/>
      <point x="205" y="-7"/>
      <point x="154" y="-66"/>
      <point x="154" y="-126" type="curve"/>
      <point x="154" y="-184"/>
      <point x="197" y="-223"/>
    </contour>
    <contour>
      <point x="326" y="0" type="move" name="_ogonek"/>
    </contour>
  </outline>
</glyph>
<glyph name="uni032E" format="1">
  <advance width="644"/>
  <unicode hex="032E"/>
  <outline>
    <contour>
      <point x="478" y="-86" type="curve"/>
      <point x="421" y="-86" type="line"/>
      <point x="411" y="-139"/>
      <point x="380" y="-176"/>
      <point x="322" y="-176" type="curve"/>
      <point x="264" y="-176"/>
      <point x="233" y="-139"/>
      <point x="223" y="-86" type="curve"/>
      <point x="166" y="-86" type="line"/>
      <point x="176" y="-177"/>
      <point x="231" y="-234"/>
      <point x="322" y="-234" type="curve"/>
      <point x="413" y="-234"/>
      <point x="469" y="-168"/>
    </contour>
    <contour>
      <point x="322" y="0" type="move" name="_bottom"/>
    </contour>
    <contour>
      <point x="322" y="-220" type="move" name="bottom"/>
    </contour>
  </outline>
</glyph>
<glyph name="uni0331" format="1">
  <advance width="626"/>
  <unicode hex="0331"/>
  <outline>
    <contour>
      <point x="466" y="-113" type="line"/>
      <point x="160" y="-113" type="line"/>
      <point x="160" y="-169" type="line"/>
      <point x="466" y="-169" type="line"/>
    </contour>
    <contour>
      <point x="313" y="0" type="move" name="_bottom"/>
    </contour>
    <contour>
      <point x="313" y="-220" type="move" name="bottom"/>
    </contour>
  </outline>
</glyph>
<glyph name="uni0335" format="1">
  <advance width="652"/>
  <unicode hex="0335"/>
  <outline>
    <contour>
      <point x="110" y="434" type="line"/>
      <point x="110" y="378" type="line"/>
      <point x="458" y="378" type="line"/>
      <point x="458" y="434" type="line"/>
    </contour>
    <contour>
      <point x="284" y="406" type="move" name="_stroke"/>
    </contour>
  </outline>
</glyph>
<glyph name="uni0336" format="1">
  <advance width="652"/>
  <unicode hex="0336"/>
  <outline>
    <contour>
      <point x="-40" y="436" type="line"/>
      <point x="-40" y="376" type="line"/>
      <point x="708" y="376" type="line"/>
      <point x="708" y="436" type="line"/>
    </contour>
    <contour>
      <point x="334" y="406" type="move" name="_center"/>
    </contour>
  </outline>
</glyph>
<glyph name="uni0337" format="1">
  <advance width="679"/>
  <unicode hex="0337"/>
  <outline>
    <contour>
      <point x="276" y="252" type="line"/>
      <point x="309" y="211" type="line"/>
      <point x="550" y="409" type="line"/>
      <point x="516" y="450" type="line"/>
    </contour>
    <contour>
      <point x="413" y="330" type="move" name="_center"/>
    </contour>
  </outline>
</glyph>
<glyph name="uni0338" format="1">
  <advance width="626"/>
  <unicode hex="0338"/>
  <outline>
    <contour>
      <point x="87" y="-4" type="line"/>
      <point x="136" y="-35" type="line"/>
      <point x="182" y="33" type="line"/>
      <point x="203" y="71" type="line"/>
      <point x="421" y="394" type="line"/>
      <point x="451" y="434" type="line"/>
      <point x="497" y="502" type="line"/>
      <point x="448" y="533" type="line"/>
      <point x="402" y="465" type="line"/>
      <point x="381" y="427" type="line"/>
      <point x="163" y="104" type="line"/>
      <point x="133" y="64" type="line"/>
    </contour>
    <contour>
      <point x="292" y="249" type="move" name="center"/>
    </contour>
  </outline>
</glyph>
<glyph name="uni0394" format="1">
  <advance width="600"/>
  <unicode hex="0394"/>
  <outline>
    <contour>
      <point x="271" y="710" type="line"/>
      <point x="15" y="0" type="line"/>
      <point x="97" y="0" type="line"/>
      <point x="318" y="644" type="line"/>
      <point x="294" y="644" type="line"/>
      <point x="503" y="0" type="line"/>
      <point x="585" y="0" type="line"/>
      <point x="342" y="710" type="line"/>
    </contour>
    <contour>
      <point x="91" y="69" type="line"/>
      <point x="75" y="0" type="line"/>
      <point x="523" y="0" type="line"/>
      <point x="505" y="69" type="line"/>
    </contour>
  </outline>
</glyph>
<glyph name="uni03A9" format="1">
  <advance width="818"/>
  <unicode hex="03A9"/>
  <outline>
    <contour>
      <point x="423" y="720" type="curve"/>
      <point x="230" y="720"/>
      <point x="85" y="568"/>
      <point x="85" y="362" type="curve"/>
      <point x="85" y="229"/>
      <point x="139" y="123"/>
      <point x="246" y="52" type="curve"/>
      <point x="242" y="65" type="line"/>
      <point x="60" y="65" type="line"/>
      <point x="60" y="0" type="line"/>
      <point x="341" y="0" type="line"/>
      <point x="341" y="45" type="line"/>
      <point x="227" y="115"/>
      <point x="168" y="223"/>
      <point x="168" y="364" type="curve"/>
      <point x="168" y="527"/>
      <point x="274" y="645"/>
      <point x="421" y="645" type="curve"/>
      <point x="557" y="645"/>
      <point x="650" y="542"/>
      <point x="650" y="391" type="curve"/>
      <point x="650" y="239"/>
      <point x="593" y="125"/>
      <point x="477" y="45" type="curve"/>
      <point x="477" y="0" type="line"/>
      <point x="758" y="0" type="line"/>
      <point x="758" y="65" type="line"/>
      <point x="565" y="65" type="line"/>
      <point x="565" y="52" type="line"/>
      <point x="673" y="125"/>
      <point x="733" y="249"/>
      <point x="733" y="389" type="curve"/>
      <point x="733" y="583"/>
      <point x="607" y="720"/>
    </contour>
  </outline>
</glyph>
<glyph name="pi" format="1">
  <advance width="628"/>
  <unicode hex="03C0"/>
  <outline>
    <contour>
      <point x="83" y="0" type="curve"/>
      <point x="167" y="0" type="line"/>
      <point x="200" y="122"/>
      <point x="221" y="271"/>
      <point x="222" y="469" type="curve"/>
      <point x="144" y="469" type="line"/>
      <point x="144" y="283"/>
      <point x="118" y="124"/>
    </contour>
    <contour>
      <point x="32" y="498" type="line"/>
      <point x="32" y="432" type="line"/>
      <point x="569" y="432" type="line"/>
      <point x="569" y="498" type="line"/>
    </contour>
    <contour>
      <point x="536" y="-8" type="curve"/>
      <point x="577" y="-8"/>
      <point x="614" y="4"/>
      <point x="638" y="25" type="curve"/>
      <point x="613" y="86" type="line"/>
      <point x="589" y="68"/>
      <point x="569" y="61"/>
      <point x="542" y="61" type="curve"/>
      <point x="488" y="61"/>
      <point x="457" y="94"/>
      <point x="457" y="151" type="curve"/>
      <point x="457" y="469" type="line"/>
      <point x="380" y="469" type="line"/>
      <point x="380" y="145" type="line" smooth="yes"/>
      <point x="380" y="48"/>
      <point x="437" y="-8"/>
    </contour>
  </outline>
</glyph>
<glyph name="uni1E9E" format="1">
  <advance width="701"/>
  <unicode hex="1E9E"/>
  <outline>
    <contour>
      <point x="382" y="720" type="curve"/>
      <point x="188" y="720"/>
      <point x="81" y="617"/>
      <point x="81" y="432" type="curve"/>
      <point x="81" y="0" type="line"/>
      <point x="164" y="0" type="line"/>
      <point x="164" y="434" type="line" smooth="yes"/>
      <point x="164" y="576"/>
      <point x="237" y="649"/>
      <point x="382" y="649" type="curve"/>
      <point x="485" y="649"/>
      <point x="547" y="599"/>
      <point x="547" y="517" type="curve"/>
      <point x="547" y="440"/>
      <point x="492" y="392"/>
      <point x="408" y="392" type="curve"/>
      <point x="354" y="392" type="line"/>
      <point x="354" y="323" type="line"/>
      <point x="409" y="323" type="line" smooth="yes"/>
      <point x="512" y="323"/>
      <point x="571" y="273"/>
      <point x="571" y="183" type="curve"/>
      <point x="571" y="110"/>
      <point x="521" y="63"/>
      <point x="444" y="63" type="curve"/>
      <point x="358" y="63"/>
      <point x="307" y="107"/>
      <point x="291" y="194" type="curve"/>
      <point x="220" y="174" type="line"/>
      <point x="239" y="58"/>
      <point x="319" y="-8"/>
      <point x="444" y="-8" type="curve"/>
      <point x="569" y="-8"/>
      <point x="653" y="66"/>
      <point x="653" y="178" type="curve"/>
      <point x="653" y="280"/>
      <point x="589" y="351"/>
      <point x="483" y="370" type="curve"/>
      <point x="483" y="351" type="line"/>
      <point x="571" y="372"/>
      <point x="629" y="430"/>
      <point x="629" y="520" type="curve"/>
      <point x="629" y="641"/>
      <point x="532" y="720"/>
    </contour>
  </outline>
</glyph>
<glyph name="endash" format="1">
  <advance width="500"/>
  <unicode hex="2013"/>
  <outline>
    <contour>
      <point x="20" y="290" type="line"/>
      <point x="20" y="224" type="line"/>
      <point x="480" y="224" type="line"/>
      <point x="480" y="290" type="line"/>
    </contour>
  </outline>
</glyph>
<glyph name="emdash" format="1">
  <advance width="1000"/>
  <unicode hex="2014"/>
  <outline>
    <contour>
      <point x="20" y="290" type="line"/>
      <point x="20" y="224" type="line"/>
      <point x="980" y="224" type="line"/>
      <point x="980" y="290" type="line"/>
    </contour>
  </outline>
</glyph>
<glyph name="quoteleft" format="1">
  <advance width="194"/>
  <unicode hex="2018"/>
  <outline>
    <contour>
      <point x="149" y="750" type="curve"/>
      <point x="109" y="750" type="line"/>
      <point x="71" y="704"/>
      <point x="42" y="635"/>
      <point x="42" y="588" type="curve"/>
      <point x="42" y="549"/>
      <point x="61" y="526"/>
      <point x="95" y="526" type="curve"/>
      <point x="126" y="526"/>
      <point x="148" y="547"/>
      <point x="148" y="578" type="curve"/>
      <point x="148" y="610"/>
      <point x="130" y="630"/>
      <point x="130" y="669" type="curve"/>
      <point x="130" y="692"/>
      <point x="137" y="720"/>
    </contour>
  </outline>
</glyph>
<glyph name="quoteright" format="1">
  <advance width="194"/>
  <unicode hex="2019"/>
  <outline>
    <contour>
      <point x="43" y="526" type="curve"/>
      <point x="83" y="526" type="line"/>
      <point x="121" y="572"/>
      <point x="150" y="641"/>
      <point x="150" y="688" type="curve"/>
      <point x="150" y="727"/>
      <point x="131" y="750"/>
      <point x="97" y="750" type="curve"/>
      <point x="66" y="750"/>
      <point x="44" y="729"/>
      <point x="44" y="698" type="curve"/>
      <point x="44" y="666"/>
      <point x="62" y="646"/>
      <point x="62" y="607" type="curve"/>
      <point x="62" y="584"/>
      <point x="55" y="556"/>
    </contour>
  </outline>
</glyph>
<glyph name="daggerdbl" format="1">
  <advance width="409"/>
  <unicode hex="2021"/>
  <outline>
    <contour>
      <point x="239" y="528" type="line"/>
      <point x="379" y="528" type="line"/>
      <point x="379" y="590" type="line"/>
      <point x="239" y="590" type="line"/>
      <point x="239" y="740" type="line"/>
      <point x="170" y="740" type="line"/>
      <point x="170" y="590" type="line"/>
      <point x="30" y="590" type="line"/>
      <point x="30" y="528" type="line"/>
      <point x="170" y="528" type="line"/>
      <point x="170" y="328" type="line"/>
      <point x="30" y="328" type="line"/>
      <point x="30" y="266" type="line"/>
      <point x="170" y="266" type="line"/>
      <point x="170" y="116" type="line"/>
      <point x="239" y="116" type="line"/>
      <point x="239" y="266" type="line"/>
      <point x="379" y="266" type="line"/>
      <point x="379" y="328" type="line"/>
      <point x="239" y="328" type="line"/>
    </contour>
  </outline>
</glyph>
<glyph name="bullet" format="1">
  <advance width="451"/>
  <unicode hex="2022"/>
  <outline>
    <contour>
      <point x="225" y="86" type="curve"/>
      <point x="321" y="86"/>
      <point x="396" y="159"/>
      <point x="396" y="257" type="curve"/>
      <point x="396" y="355"/>
      <point x="321" y="428"/>
      <point x="225" y="428" type="curve"/>
      <point x="129" y="428"/>
      <point x="55" y="355"/>
      <point x="55" y="257" type="curve"/>
      <point x="55" y="159"/>
      <point x="129" y="86"/>
    </contour>
  </outline>
</glyph>
<glyph name="perthousand" format="1">
  <advance width="1098"/>
  <unicode hex="2030"/>
  <outline>
    <contour>
      <point x="885" y="-7" type="curve"/>
      <point x="978" y="-7"/>
      <point x="1048" y="62"/>
      <point x="1048" y="153" type="curve"/>
      <point x="1048" y="238"/>
      <point x="988" y="294"/>
      <point x="897" y="294" type="curve"/>
      <point x="800" y="294"/>
      <point x="732" y="228"/>
      <point x="732" y="135" type="curve"/>
      <point x="732" y="50"/>
      <point x="793" y="-7"/>
    </contour>
    <contour>
      <point x="887" y="46" type="curve"/>
      <point x="829" y="46"/>
      <point x="792" y="81"/>
      <point x="792" y="135" type="curve"/>
      <point x="792" y="197"/>
      <point x="835" y="242"/>
      <point x="896" y="242" type="curve"/>
      <point x="952" y="242"/>
      <point x="988" y="206"/>
      <point x="988" y="151" type="curve"/>
      <point x="988" y="90"/>
      <point x="946" y="46"/>
    </contour>
    <component base="percent"/>
  </outline>
</glyph>
<glyph name="guilsinglleft" format="1">
  <advance width="257"/>
  <unicode hex="2039"/>
  <outline>
    <contour>
      <point x="33" y="237" type="line"/>
      <point x="157" y="70" type="line"/>
      <point x="243" y="70" type="line"/>
      <point x="94" y="271" type="line"/>
      <point x="94" y="235" type="line"/>
      <point x="243" y="436" type="line"/>
      <point x="157" y="436" type="line"/>
      <point x="33" y="269" type="line"/>
    </contour>
  </outline>
</glyph>
<glyph name="guilsinglright" format="1">
  <advance width="257"/>
  <unicode hex="203A"/>
  <outline>
    <contour>
      <point x="14" y="70" type="line"/>
      <point x="100" y="70" type="line"/>
      <point x="224" y="237" type="line"/>
      <point x="224" y="269" type="line"/>
      <point x="100" y="436" type="line"/>
      <point x="14" y="436" type="line"/>
      <point x="163" y="235" type="line"/>
      <point x="163" y="271" type="line"/>
    </contour>
  </outline>
</glyph>
<glyph name="colonmonetary" format="1">
  <advance width="600"/>
  <unicode hex="20A1"/>
  <outline>
    <contour>
      <point x="343" y="-8" type="curve"/>
      <point x="440" y="-8"/>
      <point x="525" y="43"/>
      <point x="569" y="136" type="curve"/>
      <point x="508" y="175" type="line"/>
      <point x="475" y="108"/>
      <point x="419" y="65"/>
      <point x="344" y="65" type="curve"/>
      <point x="221" y="65"/>
      <point x="145" y="149"/>
      <point x="145" y="342" type="curve"/>
      <point x="145" y="541"/>
      <point x="234" y="647"/>
      <point x="355" y="647" type="curve"/>
      <point x="425" y="647"/>
      <point x="476" y="609"/>
      <point x="508" y="546" type="curve"/>
      <point x="570" y="585" type="line"/>
      <point x="526" y="674"/>
      <point x="449" y="720"/>
      <point x="357" y="720" type="curve"/>
      <point x="194" y="720"/>
      <point x="65" y="586"/>
      <point x="65" y="342" type="curve"/>
      <point x="65" y="104"/>
      <point x="180" y="-8"/>
    </contour>
    <contour>
      <point x="213" y="43" type="line"/>
      <point x="196" y="-120" type="line"/>
      <point x="254" y="-120" type="line"/>
      <point x="271" y="43" type="line"/>
    </contour>
    <contour>
      <point x="341" y="23" type="line"/>
      <point x="326" y="-120" type="line"/>
      <point x="384" y="-120" type="line"/>
      <point x="399" y="23" type="line"/>
    </contour>
    <contour>
      <point x="296" y="830" type="line"/>
      <point x="280" y="679" type="line"/>
      <point x="338" y="679" type="line"/>
      <point x="354" y="830" type="line"/>
    </contour>
    <contour>
      <point x="426" y="830" type="line"/>
      <point x="409" y="669" type="line"/>
      <point x="467" y="669" type="line"/>
      <point x="484" y="830" type="line"/>
    </contour>
  </outline>
</glyph>
<glyph name="franc" format="1">
  <advance width="600"/>
  <unicode hex="20A3"/>
  <outline>
    <contour>
      <point x="218" y="639" type="line"/>
      <point x="533" y="639" type="line"/>
      <point x="533" y="710" type="line"/>
      <point x="137" y="710" type="line"/>
      <point x="137" y="0" type="line"/>
      <point x="218" y="0" type="line"/>
      <point x="218" y="314" type="line"/>
      <point x="523" y="314" type="line"/>
      <point x="523" y="385" type="line"/>
      <point x="218" y="385" type="line"/>
    </contour>
    <contour>
      <point x="40" y="199" type="line"/>
      <point x="40" y="143" type="line"/>
      <point x="380" y="143" type="line"/>
      <point x="380" y="199" type="line"/>
    </contour>
  </outline>
</glyph>
<glyph name="lira" format="1">
  <advance width="600"/>
  <unicode hex="20A4"/>
  <outline>
    <contour>
      <point x="58" y="41" type="curve"/>
      <point x="92" y="-11" type="line"/>
      <point x="126" y="17"/>
      <point x="162" y="30"/>
      <point x="205" y="30" type="curve"/>
      <point x="278" y="30"/>
      <point x="386" y="-10"/>
      <point x="437" y="-10" type="curve"/>
      <point x="496" y="-10"/>
      <point x="547" y="23"/>
      <point x="571" y="78" type="curve"/>
      <point x="524" y="114" type="line"/>
      <point x="504" y="77"/>
      <point x="477" y="60"/>
      <point x="441" y="60" type="curve"/>
      <point x="388" y="60"/>
      <point x="302" y="98"/>
      <point x="235" y="98" type="curve"/>
      <point x="213" y="98"/>
      <point x="186" y="88"/>
      <point x="174" y="79" type="curve"/>
      <point x="188" y="78" type="line"/>
      <point x="226" y="105"/>
      <point x="245" y="150"/>
      <point x="245" y="202" type="curve"/>
      <point x="245" y="304"/>
      <point x="187" y="393"/>
      <point x="187" y="497" type="curve"/>
      <point x="187" y="592"/>
      <point x="243" y="649"/>
      <point x="340" y="649" type="curve"/>
      <point x="423" y="649"/>
      <point x="475" y="604"/>
      <point x="494" y="517" type="curve"/>
      <point x="557" y="542" type="line"/>
      <point x="535" y="655"/>
      <point x="455" y="720"/>
      <point x="339" y="720" type="curve"/>
      <point x="203" y="720"/>
      <point x="109" y="630"/>
      <point x="109" y="495" type="curve"/>
      <point x="109" y="390"/>
      <point x="171" y="283"/>
      <point x="171" y="195" type="curve"/>
      <point x="171" y="127"/>
      <point x="138" y="82"/>
    </contour>
    <contour>
      <point x="20" y="309" type="line"/>
      <point x="20" y="253" type="line"/>
      <point x="404" y="253" type="line"/>
      <point x="404" y="309" type="line"/>
    </contour>
    <contour>
      <point x="20" y="459" type="line"/>
      <point x="20" y="403" type="line"/>
      <point x="404" y="403" type="line"/>
      <point x="404" y="459" type="line"/>
    </contour>
  </outline>
</glyph>
<glyph name="uni20A6" format="1">
  <advance width="600"/>
  <unicode hex="20A6"/>
  <outline>
    <contour>
      <point x="493" y="710" type="line"/>
      <point x="424" y="710" type="line"/>
      <point x="424" y="81" type="line"/>
      <point x="449" y="103" type="line"/>
      <point x="178" y="710" type="line"/>
      <point x="107" y="710" type="line"/>
      <point x="107" y="0" type="line"/>
      <point x="176" y="0" type="line"/>
      <point x="176" y="630" type="line"/>
      <point x="151" y="607" type="line"/>
      <point x="422" y="0" type="line"/>
      <point x="493" y="0" type="line"/>
    </contour>
    <contour>
      <point x="570" y="383" type="line"/>
      <point x="483" y="383" type="line"/>
      <point x="483" y="327" type="line"/>
      <point x="570" y="327" type="line"/>
    </contour>
    <contour>
      <point x="30" y="327" type="line"/>
      <point x="117" y="327" type="line"/>
      <point x="117" y="383" type="line"/>
      <point x="30" y="383" type="line"/>
    </contour>
  </outline>
</glyph>
<glyph name="peseta" format="1">
  <advance width="600"/>
  <unicode hex="20A7"/>
  <outline>
    <contour>
      <point x="127" y="0" type="line"/>
      <point x="208" y="0" type="line"/>
      <point x="208" y="643" type="line"/>
      <point x="251" y="643" type="line" smooth="yes"/>
      <point x="356" y="643"/>
      <point x="415" y="598"/>
      <point x="415" y="502" type="curve"/>
      <point x="415" y="405"/>
      <point x="358" y="354"/>
      <point x="237" y="354" type="curve"/>
      <point x="182" y="354" type="line"/>
      <point x="182" y="285" type="line"/>
      <point x="232" y="285" type="line" smooth="yes"/>
      <point x="405" y="285"/>
      <point x="497" y="367"/>
      <point x="497" y="502" type="curve"/>
      <point x="497" y="638"/>
      <point x="400" y="711"/>
      <point x="259" y="711" type="curve"/>
      <point x="127" y="711" type="line"/>
    </contour>
    <contour>
      <point x="570" y="533" type="line"/>
      <point x="478" y="533" type="line"/>
      <point x="478" y="477" type="line"/>
      <point x="570" y="477" type="line"/>
    </contour>
    <contour>
      <point x="30" y="477" type="line"/>
      <point x="137" y="477" type="line"/>
      <point x="137" y="533" type="line"/>
      <point x="30" y="533" type="line"/>
    </contour>
  </outline>
</glyph>
<glyph name="uni20A9" format="1">
  <advance width="600"/>
  <unicode hex="20A9"/>
  <outline>
    <contour>
      <point x="560" y="710" type="line"/>
      <point x="498" y="710" type="line"/>
      <point x="414" y="34" type="line"/>
      <point x="450" y="33" type="line"/>
      <point x="336" y="710" type="line"/>
      <point x="266" y="710" type="line"/>
      <point x="149" y="34" type="line"/>
      <point x="188" y="33" type="line"/>
      <point x="105" y="710" type="line"/>
      <point x="40" y="710" type="line"/>
      <point x="134" y="0" type="line"/>
      <point x="200" y="0" type="line"/>
      <point x="308" y="612" type="line"/>
      <point x="292" y="612" type="line"/>
      <point x="400" y="0" type="line"/>
      <point x="466" y="0" type="line"/>
    </contour>
    <contour>
      <point x="20" y="309" type="line"/>
      <point x="20" y="253" type="line"/>
      <point x="121" y="253" type="line"/>
      <point x="111" y="309" type="line"/>
    </contour>
    <contour>
      <point x="20" y="459" type="line"/>
      <point x="20" y="403" type="line"/>
      <point x="97" y="403" type="line"/>
      <point x="87" y="459" type="line"/>
    </contour>
    <contour>
      <point x="494" y="309" type="line"/>
      <point x="486" y="253" type="line"/>
      <point x="580" y="253" type="line"/>
      <point x="580" y="309" type="line"/>
    </contour>
    <contour>
      <point x="507" y="459" type="line"/>
      <point x="497" y="403" type="line"/>
      <point x="580" y="403" type="line"/>
      <point x="580" y="459" type="line"/>
    </contour>
  </outline>
</glyph>
<glyph name="dong" format="1">
  <advance width="596"/>
  <unicode hex="20AB"/>
  <outline>
    <contour>
      <point x="497" y="0" type="line"/>
      <point x="497" y="740" type="line"/>
      <point x="419" y="740" type="line"/>
      <point x="419" y="498" type="line"/>
      <point x="421" y="407" type="line"/>
      <point x="429" y="419" type="line"/>
      <point x="408" y="471"/>
      <point x="362" y="507"/>
      <point x="300" y="507" type="curve"/>
      <point x="170" y="507"/>
      <point x="82" y="394"/>
      <point x="82" y="225" type="curve"/>
      <point x="82" y="85"/>
      <point x="145" y="-8"/>
      <point x="259" y="-8" type="curve"/>
      <point x="347" y="-8"/>
      <point x="410" y="58"/>
      <point x="436" y="163" type="curve"/>
      <point x="425" y="178" type="line"/>
      <point x="420" y="0" type="line"/>
    </contour>
    <contour>
      <point x="304" y="436" type="curve"/>
      <point x="376" y="436"/>
      <point x="420" y="379"/>
      <point x="420" y="284" type="curve"/>
      <point x="420" y="155"/>
      <point x="357" y="63"/>
      <point x="273" y="63" type="curve"/>
      <point x="205" y="63"/>
      <point x="163" y="123"/>
      <point x="163" y="231" type="curve"/>
      <point x="163" y="358"/>
      <point x="219" y="436"/>
    </contour>
    <contour>
      <point x="262" y="654" type="line"/>
      <point x="262" y="598" type="line"/>
      <point x="580" y="598" type="line"/>
      <point x="580" y="654" type="line"/>
    </contour>
    <contour>
      <point x="102" y="-60" type="line"/>
      <point x="102" y="-116" type="line"/>
      <point x="497" y="-116" type="line"/>
      <point x="497" y="-60" type="line"/>
    </contour>
  </outline>
</glyph>
<glyph name="Euro" format="1">
  <advance width="600"/>
  <unicode hex="20AC"/>
  <outline>
    <contour>
      <point x="569" y="136" type="curve"/>
      <point x="508" y="175" type="line"/>
      <point x="477" y="108"/>
      <point x="424" y="65"/>
      <point x="353" y="65" type="curve"/>
      <point x="237" y="65"/>
      <point x="165" y="149"/>
      <point x="165" y="342" type="curve"/>
      <point x="165" y="541"/>
      <point x="249" y="647"/>
      <point x="363" y="647" type="curve"/>
      <point x="430" y="647"/>
      <point x="478" y="609"/>
      <point x="508" y="546" type="curve"/>
      <point x="570" y="585" type="line"/>
      <point x="528" y="674"/>
      <point x="454" y="720"/>
      <point x="365" y="720" type="curve"/>
      <point x="209" y="720"/>
      <point x="85" y="586"/>
      <point x="85" y="342" type="curve"/>
      <point x="85" y="104"/>
      <point x="195" y="-8"/>
      <point x="352" y="-8" type="curve"/>
      <point x="445" y="-8"/>
      <point x="527" y="43"/>
    </contour>
    <contour>
      <point x="20" y="459" type="line"/>
      <point x="20" y="403" type="line"/>
      <point x="384" y="403" type="line"/>
      <point x="384" y="459" type="line"/>
    </contour>
    <contour>
      <point x="20" y="309" type="line"/>
      <point x="20" y="253" type="line"/>
      <point x="384" y="253" type="line"/>
      <point x="384" y="309" type="line"/>
    </contour>
  </outline>
</glyph>
<glyph name="uni20AD" format="1">
  <advance width="600"/>
  <unicode hex="20AD"/>
  <outline>
    <contour>
      <point x="199" y="355" type="line"/>
      <point x="506" y="0" type="line"/>
      <point x="598" y="0" type="line"/>
      <point x="292" y="355" type="line"/>
      <point x="598" y="710" type="line"/>
      <point x="506" y="710" type="line"/>
    </contour>
    <contour>
      <point x="137" y="710" type="line"/>
      <point x="137" y="0" type="line"/>
      <point x="220" y="0" type="line"/>
      <point x="220" y="710" type="line"/>
    </contour>
    <contour>
      <point x="40" y="383" type="line"/>
      <point x="40" y="327" type="line"/>
      <point x="525" y="327" type="line"/>
      <point x="525" y="383" type="line"/>
    </contour>
  </outline>
</glyph>
<glyph name="uni20B1" format="1">
  <advance width="600"/>
  <unicode hex="20B1"/>
  <outline>
    <contour>
      <point x="127" y="0" type="line"/>
      <point x="208" y="0" type="line"/>
      <point x="208" y="643" type="line"/>
      <point x="251" y="643" type="line" smooth="yes"/>
      <point x="356" y="643"/>
      <point x="415" y="598"/>
      <point x="415" y="502" type="curve"/>
      <point x="415" y="405"/>
      <point x="358" y="354"/>
      <point x="237" y="354" type="curve"/>
      <point x="182" y="354" type="line"/>
      <point x="182" y="285" type="line"/>
      <point x="232" y="285" type="line" smooth="yes"/>
      <point x="405" y="285"/>
      <point x="497" y="367"/>
      <point x="497" y="502" type="curve"/>
      <point x="497" y="638"/>
      <point x="400" y="711"/>
      <point x="259" y="711" type="curve"/>
      <point x="127" y="711" type="line"/>
    </contour>
    <contour>
      <point x="570" y="608" type="line"/>
      <point x="448" y="608" type="line"/>
      <point x="468" y="552" type="line"/>
      <point x="570" y="552" type="line"/>
    </contour>
    <contour>
      <point x="30" y="552" type="line"/>
      <point x="137" y="552" type="line"/>
      <point x="137" y="608" type="line"/>
      <point x="30" y="608" type="line"/>
    </contour>
    <contour>
      <point x="570" y="458" type="line"/>
      <point x="468" y="458" type="line"/>
      <point x="453" y="402" type="line"/>
      <point x="570" y="402" type="line"/>
    </contour>
    <contour>
      <point x="30" y="402" type="line"/>
      <point x="137" y="402" type="line"/>
      <point x="137" y="458" type="line"/>
      <point x="30" y="458" type="line"/>
    </contour>
  </outline>
</glyph>
<glyph name="uni20B2" format="1">
  <advance width="600"/>
  <unicode hex="20B2"/>
  <outline>
    <contour>
      <point x="333" y="-8" type="curve"/>
      <point x="413" y="-8"/>
      <point x="480" y="42"/>
      <point x="503" y="118" type="curve"/>
      <point x="491" y="120" type="line"/>
      <point x="502" y="0" type="line"/>
      <point x="558" y="0" type="line"/>
      <point x="558" y="347" type="line"/>
      <point x="331" y="347" type="line"/>
      <point x="331" y="279" type="line"/>
      <point x="498" y="279" type="line"/>
      <point x="483" y="294" type="line"/>
      <point x="483" y="218" type="line" smooth="yes"/>
      <point x="483" y="128"/>
      <point x="422" y="65"/>
      <point x="333" y="65" type="curve"/>
      <point x="209" y="68"/>
      <point x="145" y="162"/>
      <point x="145" y="342" type="curve"/>
      <point x="145" y="529"/>
      <point x="221" y="647"/>
      <point x="343" y="647" type="curve"/>
      <point x="406" y="647"/>
      <point x="456" y="613"/>
      <point x="488" y="546" type="curve"/>
      <point x="550" y="585" type="line"/>
      <point x="509" y="672"/>
      <point x="436" y="720"/>
      <point x="345" y="720" type="curve"/>
      <point x="177" y="720"/>
      <point x="65" y="569"/>
      <point x="65" y="342" type="curve"/>
      <point x="65" y="120"/>
      <point x="163" y="-8"/>
    </contour>
    <contour>
      <point x="307" y="30" type="line"/>
      <point x="307" y="-120" type="line"/>
      <point x="365" y="-120" type="line"/>
      <point x="365" y="30" type="line"/>
    </contour>
    <contour>
      <point x="307" y="830" type="line"/>
      <point x="307" y="680" type="line"/>
      <point x="365" y="680" type="line"/>
      <point x="365" y="830" type="line"/>
    </contour>
  </outline>
</glyph>
<glyph name="uni20B5" format="1">
  <advance width="600"/>
  <unicode hex="20B5"/>
  <outline>
    <contour>
      <point x="343" y="-8" type="curve"/>
      <point x="440" y="-8"/>
      <point x="525" y="43"/>
      <point x="569" y="136" type="curve"/>
      <point x="508" y="175" type="line"/>
      <point x="475" y="108"/>
      <point x="419" y="65"/>
      <point x="344" y="65" type="curve"/>
      <point x="221" y="65"/>
      <point x="145" y="149"/>
      <point x="145" y="342" type="curve"/>
      <point x="145" y="541"/>
      <point x="234" y="647"/>
      <point x="355" y="647" type="curve"/>
      <point x="425" y="647"/>
      <point x="476" y="609"/>
      <point x="508" y="546" type="curve"/>
      <point x="570" y="585" type="line"/>
      <point x="526" y="674"/>
      <point x="449" y="720"/>
      <point x="357" y="720" type="curve"/>
      <point x="194" y="720"/>
      <point x="65" y="586"/>
      <point x="65" y="342" type="curve"/>
      <point x="65" y="104"/>
      <point x="180" y="-8"/>
    </contour>
    <contour>
      <point x="376" y="-120" type="line"/>
      <point x="376" y="30" type="line"/>
      <point x="318" y="30" type="line"/>
      <point x="318" y="-120" type="line"/>
    </contour>
    <contour>
      <point x="376" y="680" type="line"/>
      <point x="376" y="830" type="line"/>
      <point x="318" y="830" type="line"/>
      <point x="318" y="680" type="line"/>
    </contour>
  </outline>
</glyph>
<glyph name="uni20B9" format="1">
  <advance width="600"/>
  <unicode hex="20B9"/>
  <outline>
    <contour>
      <point x="550" y="18" type="curve"/>
      <point x="532" y="82" type="line"/>
      <point x="516" y="72"/>
      <point x="498" y="66"/>
      <point x="478" y="66" type="curve"/>
      <point x="433" y="66"/>
      <point x="415" y="79"/>
      <point x="377" y="134" type="curve"/>
      <point x="288" y="265" type="line" smooth="yes"/>
      <point x="256" y="312"/>
      <point x="228" y="331"/>
      <point x="189" y="331" type="curve"/>
      <point x="183" y="321" type="line"/>
      <point x="232" y="321" type="line" smooth="yes"/>
      <point x="359" y="321"/>
      <point x="466" y="386"/>
      <point x="466" y="516" type="curve"/>
      <point x="466" y="636"/>
      <point x="378" y="700"/>
      <point x="217" y="700" type="curve"/>
      <point x="161" y="700" type="line"/>
      <point x="161" y="654" type="line"/>
      <point x="211" y="654" type="line" smooth="yes"/>
      <point x="330" y="654"/>
      <point x="384" y="604"/>
      <point x="384" y="520" type="curve"/>
      <point x="384" y="426"/>
      <point x="318" y="385"/>
      <point x="201" y="385" type="curve"/>
      <point x="80" y="385" type="line"/>
      <point x="80" y="319" type="line"/>
      <point x="120" y="319" type="line" smooth="yes"/>
      <point x="144" y="319"/>
      <point x="169" y="301"/>
      <point x="187" y="275" type="curve"/>
      <point x="317" y="83" type="line" smooth="yes"/>
      <point x="361" y="18"/>
      <point x="407" y="-6"/>
      <point x="465" y="-6" type="curve"/>
      <point x="500" y="-6"/>
      <point x="529" y="2"/>
    </contour>
    <contour>
      <point x="30" y="654" type="line"/>
      <point x="570" y="654" type="line"/>
      <point x="570" y="710" type="line"/>
      <point x="30" y="710" type="line"/>
    </contour>
    <contour>
      <point x="30" y="504" type="line"/>
      <point x="570" y="504" type="line"/>
      <point x="570" y="560" type="line"/>
      <point x="30" y="560" type="line"/>
    </contour>
  </outline>
</glyph>
<glyph name="uni20BA" format="1">
  <advance width="600"/>
  <unicode hex="20BA"/>
  <outline>
    <contour>
      <point x="137" y="710" type="line"/>
      <point x="137" y="0" type="line"/>
      <point x="301" y="0"/>
      <point x="463" y="55"/>
      <point x="545" y="167" type="curve"/>
      <point x="499" y="215" type="line"/>
      <point x="427" y="123"/>
      <point x="309" y="83"/>
      <point x="220" y="79" type="curve"/>
      <point x="220" y="710" type="line"/>
    </contour>
    <contour>
      <point x="40" y="319" type="line"/>
      <point x="40" y="261" type="line"/>
      <point x="424" y="461" type="line"/>
      <point x="424" y="519" type="line"/>
    </contour>
    <contour>
      <point x="40" y="469" type="line"/>
      <point x="40" y="411" type="line"/>
      <point x="424" y="611" type="line"/>
      <point x="424" y="669" type="line"/>
    </contour>
  </outline>
</glyph>
<glyph name="uni20BC" format="1">
  <advance width="600"/>
  <unicode hex="20BC"/>
  <outline>
    <contour>
      <point x="300" y="718" type="curve"/>
      <point x="161" y="718"/>
      <point x="67" y="622"/>
      <point x="67" y="437" type="curve"/>
      <point x="67" y="0" type="line"/>
      <point x="149" y="0" type="line"/>
      <point x="149" y="435" type="line" smooth="yes"/>
      <point x="149" y="582"/>
      <point x="209" y="646"/>
      <point x="300" y="646" type="curve"/>
      <point x="391" y="646"/>
      <point x="451" y="582"/>
      <point x="451" y="435" type="curve"/>
      <point x="451" y="0" type="line"/>
      <point x="533" y="0" type="line"/>
      <point x="533" y="437" type="line" smooth="yes"/>
      <point x="533" y="622"/>
      <point x="439" y="718"/>
    </contour>
    <contour>
      <point x="329" y="0" type="line"/>
      <point x="329" y="830" type="line"/>
      <point x="271" y="830" type="line"/>
      <point x="271" y="0" type="line"/>
    </contour>
  </outline>
</glyph>
<glyph name="uni20BD" format="1">
  <advance width="600"/>
  <unicode hex="20BD"/>
  <outline>
    <contour>
      <point x="127" y="0" type="line"/>
      <point x="208" y="0" type="line"/>
      <point x="208" y="643" type="line"/>
      <point x="289" y="643" type="line" smooth="yes"/>
      <point x="419" y="643"/>
      <point x="478" y="598"/>
      <point x="478" y="502" type="curve"/>
      <point x="478" y="405"/>
      <point x="421" y="354"/>
      <point x="255" y="354" type="curve"/>
      <point x="30" y="354" type="line"/>
      <point x="30" y="298" type="line"/>
      <point x="270" y="298" type="line" smooth="yes"/>
      <point x="468" y="298"/>
      <point x="560" y="377"/>
      <point x="560" y="508" type="curve"/>
      <point x="560" y="644"/>
      <point x="463" y="711"/>
      <point x="297" y="711" type="curve"/>
      <point x="127" y="711" type="line"/>
    </contour>
    <contour>
      <point x="30" y="148" type="line"/>
      <point x="437" y="148" type="line"/>
      <point x="437" y="204" type="line"/>
      <point x="30" y="204" type="line"/>
    </contour>
  </outline>
</glyph>
<glyph name="uni2113" format="1">
  <advance width="600"/>
  <unicode hex="2113"/>
  <outline>
    <contour>
      <point x="100" y="157" type="curve"/>
      <point x="125" y="122" type="line"/>
      <point x="381" y="326"/>
      <point x="497" y="480"/>
      <point x="497" y="616" type="curve"/>
      <point x="497" y="679"/>
      <point x="465" y="717"/>
      <point x="410" y="717" type="curve"/>
      <point x="292" y="717"/>
      <point x="205" y="497"/>
      <point x="205" y="197" type="curve"/>
      <point x="205" y="58"/>
      <point x="246" y="-15"/>
      <point x="322" y="-15" type="curve"/>
      <point x="368" y="-15"/>
      <point x="406" y="12"/>
      <point x="437" y="63" type="curve"/>
      <point x="415" y="88" type="line"/>
      <point x="397" y="62"/>
      <point x="367" y="38"/>
      <point x="341" y="38" type="curve"/>
      <point x="297" y="38"/>
      <point x="278" y="86"/>
      <point x="278" y="205" type="curve"/>
      <point x="278" y="457"/>
      <point x="335" y="667"/>
      <point x="403" y="667" type="curve"/>
      <point x="427" y="667"/>
      <point x="437" y="645"/>
      <point x="437" y="595" type="curve"/>
      <point x="437" y="476"/>
      <point x="321" y="326"/>
    </contour>
  </outline>
</glyph>
<glyph name="partialdiff" format="1">
  <advance width="600"/>
  <unicode hex="2202"/>
  <outline>
    <contour>
      <point x="291" y="-8" type="curve"/>
      <point x="444" y="-8"/>
      <point x="539" y="111"/>
      <point x="539" y="313" type="curve"/>
      <point x="539" y="583"/>
      <point x="392" y="744"/>
      <point x="159" y="744" type="curve"/>
      <point x="149" y="673" type="line"/>
      <point x="340" y="673"/>
      <point x="451" y="552"/>
      <point x="461" y="334" type="curve"/>
      <point x="480" y="324" type="line"/>
      <point x="466" y="413"/>
      <point x="398" y="470"/>
      <point x="299" y="470" type="curve"/>
      <point x="164" y="470"/>
      <point x="61" y="361"/>
      <point x="61" y="218" type="curve"/>
      <point x="61" y="79"/>
      <point x="150" y="-8"/>
    </contour>
    <contour>
      <point x="295" y="63" type="curve"/>
      <point x="197" y="63"/>
      <point x="141" y="119"/>
      <point x="141" y="218" type="curve"/>
      <point x="141" y="325"/>
      <point x="211" y="401"/>
      <point x="309" y="401" type="curve"/>
      <point x="401" y="401"/>
      <point x="453" y="341"/>
      <point x="453" y="245" type="curve"/>
      <point x="453" y="139"/>
      <point x="387" y="63"/>
    </contour>
  </outline>
</glyph>
